<svg width="378" height="107" viewBox="0 0 378 107" fill="none" xmlns="http://www.w3.org/2000/svg">
<path d="M158.534 48V15.909H169.136C173.202 15.909 176.337 16.555 178.541 17.847C180.783 19.139 181.904 21.552 181.904 25.086C181.904 27.366 181.277 29.342 180.023 31.014C178.807 32.648 176.926 33.465 174.38 33.465C175.976 33.465 177.154 33.807 177.914 34.491C178.712 35.175 179.244 36.049 179.51 37.113C179.814 38.139 179.985 39.222 180.023 40.362C180.061 41.464 180.137 42.471 180.251 43.383C180.365 44.295 180.631 44.96 181.049 45.378C181.505 45.796 182.265 45.815 183.329 45.435V47.829C182.987 48.133 182.455 48.342 181.733 48.456C181.049 48.608 180.327 48.57 179.567 48.342C178.807 48.114 178.161 47.601 177.629 46.803C177.135 46.005 176.888 44.827 176.888 43.269C176.888 40.913 176.755 39.089 176.489 37.797C176.223 36.505 175.615 35.593 174.665 35.061C173.753 34.529 172.309 34.225 170.333 34.149C168.357 34.073 165.659 34.073 162.239 34.149V48H158.534ZM162.239 31.356H169.706C172.708 31.356 174.931 30.957 176.375 30.159C177.857 29.361 178.598 27.746 178.598 25.314C178.598 23.414 178.199 22.027 177.401 21.153C176.603 20.241 175.444 19.671 173.924 19.443C172.442 19.177 170.599 19.044 168.395 19.044H162.239V31.356ZM192.121 44.922H210.589V48H188.53V15.909H210.019V19.158H192.121V30.216H206.314V33.294H192.121V44.922ZM213.64 48L224.926 15.909H230.968L242.425 48H238.549L235.072 37.968H220.993L217.516 48H213.64ZM228.061 17.505L222.019 34.89H234.046L228.061 17.505ZM247.214 48V15.909H250.862V44.808H268.646V48H247.214ZM155.7 67.8V60.59H186.5V67.8H175.3V100H166.83V67.8H155.7ZM193.231 100V60.59H208.491C213.625 60.59 217.638 61.4767 220.531 63.25C223.471 64.9767 224.941 68.01 224.941 72.35C224.941 75.71 224.148 78.37 222.561 80.33C221.021 82.29 218.875 83.27 216.121 83.27C217.568 83.27 218.665 83.62 219.411 84.32C220.158 84.9733 220.671 85.79 220.951 86.77C221.278 87.75 221.511 88.7767 221.651 89.85C221.838 90.8767 222.071 91.81 222.351 92.65C222.631 93.4433 223.098 94.0033 223.751 94.33C224.451 94.61 225.478 94.47 226.831 93.91V98.6C225.758 99.5333 224.521 100.14 223.121 100.42C221.721 100.747 220.368 100.677 219.061 100.21C217.755 99.7433 216.658 98.8333 215.771 97.48C214.931 96.08 214.511 94.1667 214.511 91.74C214.511 90.1533 214.395 88.8233 214.161 87.75C213.975 86.6767 213.485 85.8367 212.691 85.23C211.898 84.6233 210.638 84.2267 208.911 84.04C207.185 83.8533 204.781 83.8533 201.701 84.04V100H193.231ZM201.701 78.02H207.721C209.915 78.02 211.711 77.95 213.111 77.81C214.558 77.67 215.631 77.2733 216.331 76.62C217.031 75.92 217.381 74.73 217.381 73.05C217.381 71.1367 216.961 69.8067 216.121 69.06C215.281 68.2667 214.021 67.8 212.341 67.66C210.708 67.52 208.701 67.45 206.321 67.45H201.701V78.02ZM231.114 100L243.084 60.59H257.014L269.334 100H260.304L257.364 89.5H243.084L240.214 100H231.114ZM250.224 64.09L244.904 82.99H255.544L250.224 64.09ZM297.568 60.59H306.808L294.208 100H280.138L267.538 60.59H276.778L287.138 96.5L297.568 60.59ZM320.504 93.21H341.924V100H312.244V60.59H341.224V67.8H320.504V76.62H336.184V83.48H320.504V93.21ZM348.764 100V60.59H357.234V92.79H375.434V100H348.764Z" fill="white"/>
<path d="M127.635 9.73861L108.319 100.541C106.86 106.949 103.061 108.544 97.6617 105.527L68.2278 83.9074L54.0274 97.5244C52.4547 99.092 51.1425 100.4 48.1113 100.4L50.2281 70.5228L104.776 21.3914C107.148 19.286 104.259 18.1148 101.091 20.2248L33.6549 62.5522L4.62329 53.4925C-1.69052 51.5283 -1.80482 47.199 5.94 44.1775L119.493 0.569479C124.75 -1.39468 129.35 1.73613 127.635 9.74316V9.73861Z" fill="white"/>
</svg>
