<svg width="39" height="33" viewBox="0 0 39 33" fill="none" xmlns="http://www.w3.org/2000/svg">
<path d="M12.675 14.5588L11.505 13.0059C11.2393 13.2045 11.029 13.4674 10.894 13.7696C10.759 14.0718 10.7038 14.4034 10.7337 14.7328C10.7636 15.0622 10.8776 15.3786 11.0648 15.6519C11.252 15.9251 11.5062 16.1462 11.8034 16.2942L12.675 14.5588ZM20.475 18.4412L22.4055 18.7149C22.463 18.3118 22.3916 17.9009 22.2016 17.5403C22.0116 17.1797 21.7125 16.8878 21.3466 16.7058L20.475 18.4412ZM17.5695 24.9616C17.5322 25.2145 17.5454 25.4723 17.6084 25.7201C17.6715 25.9679 17.783 26.2009 17.9368 26.4057C18.0905 26.6104 18.2833 26.783 18.5042 26.9133C18.725 27.0437 18.9696 27.1294 19.2238 27.1655C19.4781 27.2015 19.737 27.1872 19.9856 27.1234C20.2343 27.0596 20.4678 26.9475 20.6729 26.7936C20.8779 26.6397 21.0504 26.447 21.1804 26.2265C21.3104 26.0061 21.3954 25.7622 21.4305 25.509L17.5695 24.9616ZM20.475 8.73529L21.8536 7.36288C21.5218 7.0325 21.0813 6.83235 20.6132 6.79919C20.145 6.76603 19.6805 6.90207 19.305 7.18235L20.475 8.73529ZM25.35 13.5882L23.9714 14.9606C24.337 15.3247 24.8329 15.5293 25.35 15.5294V13.5882ZM29.25 15.5294C29.7672 15.5294 30.2632 15.3249 30.6289 14.9609C30.9946 14.5968 31.2 14.1031 31.2 13.5882C31.2 13.0734 30.9946 12.5797 30.6289 12.2156C30.2632 11.8516 29.7672 11.6471 29.25 11.6471V15.5294ZM11.7 25.2353C11.7 26.265 11.2891 27.2524 10.5577 27.9805C9.82632 28.7086 8.83434 29.1176 7.8 29.1176V33C9.86869 33 11.8526 32.1819 13.3154 30.7258C14.7782 29.2696 15.6 27.2946 15.6 25.2353H11.7ZM7.8 29.1176C6.76566 29.1176 5.77368 28.7086 5.04228 27.9805C4.31089 27.2524 3.9 26.265 3.9 25.2353H0C0 27.2946 0.821784 29.2696 2.28457 30.7258C3.74735 32.1819 5.73131 33 7.8 33V29.1176ZM3.9 25.2353C3.9 24.2056 4.31089 23.2181 5.04228 22.4901C5.77368 21.762 6.76566 21.3529 7.8 21.3529V17.4706C5.73131 17.4706 3.74735 18.2887 2.28457 19.7448C0.821784 21.201 0 23.176 0 25.2353H3.9ZM7.8 21.3529C8.83434 21.3529 9.82632 21.762 10.5577 22.4901C11.2891 23.2181 11.7 24.2056 11.7 25.2353H15.6C15.6 23.176 14.7782 21.201 13.3154 19.7448C11.8526 18.2887 9.86869 17.4706 7.8 17.4706V21.3529ZM11.8034 16.2942L19.6034 20.1766L21.3466 16.7058L13.5466 12.8234L11.8034 16.2942ZM18.5445 18.1675L17.5695 24.9616L21.4305 25.509L22.4055 18.7149L18.5445 18.1675ZM13.845 16.1118L21.645 10.2882L19.305 7.18235L11.505 13.0059L13.845 16.1118ZM19.0964 10.1077L23.9714 14.9606L26.7286 12.2158L21.8536 7.36288L19.0964 10.1077ZM25.35 15.5294H29.25V11.6471H25.35V15.5294ZM35.1 25.2353C35.1 26.265 34.6891 27.2524 33.9577 27.9805C33.2263 28.7086 32.2343 29.1176 31.2 29.1176V33C33.2687 33 35.2526 32.1819 36.7154 30.7258C38.1782 29.2696 39 27.2946 39 25.2353H35.1ZM31.2 29.1176C30.1657 29.1176 29.1737 28.7086 28.4423 27.9805C27.7109 27.2524 27.3 26.265 27.3 25.2353H23.4C23.4 27.2946 24.2218 29.2696 25.6846 30.7258C27.1474 32.1819 29.1313 33 31.2 33V29.1176ZM27.3 25.2353C27.3 24.2056 27.7109 23.2181 28.4423 22.4901C29.1737 21.762 30.1657 21.3529 31.2 21.3529V17.4706C29.1313 17.4706 27.1474 18.2887 25.6846 19.7448C24.2218 21.201 23.4 23.176 23.4 25.2353H27.3ZM31.2 21.3529C32.2343 21.3529 33.2263 21.762 33.9577 22.4901C34.6891 23.2181 35.1 24.2056 35.1 25.2353H39C39 23.176 38.1782 21.201 36.7154 19.7448C35.2526 18.2887 33.2687 17.4706 31.2 17.4706V21.3529ZM25.35 3.88235V7.76471C26.3843 7.76471 27.3763 7.35567 28.1077 6.62759C28.8391 5.89951 29.25 4.91202 29.25 3.88235H25.35ZM25.35 3.88235H21.45C21.45 4.91202 21.8609 5.89951 22.5923 6.62759C23.3237 7.35567 24.3157 7.76471 25.35 7.76471V3.88235ZM25.35 3.88235V0C24.3157 0 23.3237 0.409032 22.5923 1.13711C21.8609 1.8652 21.45 2.85269 21.45 3.88235H25.35ZM25.35 3.88235H29.25C29.25 2.85269 28.8391 1.8652 28.1077 1.13711C27.3763 0.409032 26.3843 0 25.35 0V3.88235Z" fill="white"/>
</svg>
