<?xml version="1.0" encoding="utf-8"?>
<!-- Generator: Adobe Illustrator 24.1.2, SVG Export Plug-In . SVG Version: 6.00 Build 0)  -->
<svg version="1.1" id="Layer_1" xmlns="http://www.w3.org/2000/svg" xmlns:xlink="http://www.w3.org/1999/xlink" x="0px" y="0px"
	 viewBox="0 0 1960 1960" style="enable-background:new 0 0 1960 1960;" xml:space="preserve">
<style type="text/css">
	.cuerpo-garfield{fill:#FFA229;}
	.st1{fill:#FFFA6C;}
	.st2{fill:#FFFFFF;}
	.st3{fill:#F6B1CD;}
</style>
<g>
	<path d="M782.4,1208.2c-18-19.3-31.4-40.9-39.3-65.5c-13.4-41.8-14.4-84.1-4.7-126.8c7-30.8,19.9-59.3,35.7-86.5
		c0.8-1.4,1.7-2.9,2.5-4.3c0.2-0.3,0.2-0.6,0.3-1.4c-15.7-15.5-22.8-35.3-25.9-56.9c-2.6-18.3-1.9-36.6-0.5-54.8
		c0.4-5.6,0.9-11.3,1.4-17.2c-5.8-1-11.4-1.9-16.9-3.1c-50.8-10.3-94.1-34.8-131.4-70.2c-51.3-48.8-81.2-108.7-90.3-178.8
		c-5.2-39.3-3-78.4,8.2-116.3c4.5-15.1,13-29.1,20.9-43c16.6-29.4,36.9-56.2,59.5-81.3c0.9-1,1.7-2,3.3-3.9
		c-10.6-1.4-20.2-2.6-30.1,0c-5.7,1.5-11.7,2.2-17.4,3.7c-6.4,1.6-12.9,3.2-19.1,5.7c-29.6,12.1-59,24.5-88.5,36.8
		c-1.1,0.4-2.1,0.8-3.2,1.2c-2.9-10.6,2-24.8,11.5-33.2c10.3-9.2,22.7-14,36-16.1c17.4-2.8,34.9-5.1,52.4-7.2
		c19.6-2.4,39.3-1.5,58.7,1.5c5.4,0.8,9-0.3,12.1-5.7c-9-3.8-17.7-7.8-27.8-7.5c-4.9,0.1-9.9-1-14.8-1.2c-7.1-0.3-14.2-0.7-21.4-0.5
		c-36.3,0.9-71.5,9.8-107.1,15.8c-1.4,0.2-2.8,0.4-4.7,0.6c2.1-11.7,8.1-20.2,17.4-26.3c12-7.9,25.6-10.8,39.6-12.6
		c13.8-1.8,27.1,1.5,40.6,3c28.4,3.1,55.8,9.4,81.7,21.8c3.9,1.9,5.4-0.5,7.4-3.4c-8.9-6.5-17.4-13.3-28.9-14.9
		c-4.3-0.6-8.4-3-12.7-4c-9.5-2.3-19-4.5-28.6-6.1c-35.3-6.1-71.1-4.6-106.6-6.7c-3.7-0.2-7.3-0.4-11-0.7c-0.3,0-0.5-0.4-1-0.7
		c3.2-8.2,9-14.1,16.8-18.1c9.5-5,19.8-6.7,30.4-7.2c17.6-0.9,35.2-0.1,51.9,5.8c33.1,11.7,66.5,23.2,94.2,46
		c0.5,0.4,1.1,0.7,1.9,1.2c7.7-6.4,15.3-12.7,22.9-19.2c0.9-0.7,1.3-2.3,1.5-3.5c17.6-103.8,78.3-172,174.1-211.4
		c24.8-10.2,50.4-18,76.9-21.2c32.2-3.8,67.5,8,82,49.1c1.4,3.9,2.5,7.9,3.8,11.7c10.4-5.5,20.3-11.3,30.7-16
		c33.2-15.1,68.3-22,104.7-22.9c22.6-0.5,45,0.9,66.9,6.5c5,1.3,9.9,3,14.6,5c26.7,11.6,39,34.2,34.6,63.4
		c-3.5,23.4-13.2,44.6-24.3,65.2c-9,16.7-18.4,33.2-27.6,49.8c-1,1.7-1.7,3.6-2.6,5.6c7.7,5,15.2,9.9,22.9,15
		c0.8-1.1,1.6-1.9,2.2-2.8c13.6-21.1,30.9-38.5,50.2-54.6c14.8-12.3,29.7-24.1,47.6-31.6c13.8-5.7,27.8-10.3,43-10.2
		c9.6,0.1,18.3,2.9,26.1,9.7c-14.6,6.2-28.8,12.3-43,18.4c-10,4.3-20.1,8.2-29.8,12.9c-16.5,8-32.7,16.4-48.9,25
		c-4,2.1-7.3,5.7-10.9,8.6c-2.2,1.8-4.2,4.1-6.6,5.2c-10.8,5-16.6,14.5-22.8,23.7c5.3,5.9,5.5,5.9,11,0.8
		c17.7-16.3,37.5-29.1,59.6-38.8c15.4-6.7,30-15.2,46.8-18.2c16-2.9,32-4.9,48.2-2.3c11.6,1.9,21.5,6.7,29.1,17.3
		c-5.9,0.9-11.1,1.7-16.4,2.5c-28.2,4.3-56.4,8.4-84.4,13.2c-11.1,1.9-22.6,4-32.8,8.6c-15.8,7.2-33.9,10.7-46.1,24.7
		c-0.5,0.6-1.4,0.9-2.1,1.3c0.2,0.7,0.4,1.3,0.7,2c1.8-0.2,3.9,0.2,5.4-0.5c18.6-8.5,37.7-15.3,58.1-17.6c18-2.1,35.6-7.2,54-5.5
		c18.2,1.6,36.1,4.2,52.6,12.6c10.1,5.1,17.9,12.6,21.7,24.7c-8.5-1.3-16.5-2.5-24.4-3.6c-25.9-3.7-51.7-7.7-77.7-10.9
		c-11.5-1.4-23.6-2.9-34.8-1c-13.7,2.2-28.2-0.2-41.1,6.4c-1.3,0.7-2.6,1.3-4.3,2.1c9,7.8,17.8,15.1,26.4,22.8
		c13.1,11.7,25.4,24.1,35,38.9c4,6.2,6.8,13.3,10.3,19.9c0.9,1.6,2.2,3.1,3.8,4.1c9.1,6.2,18.3,12.1,27.4,18.3
		c1.1,0.7,2.1,1.8,2.7,2.9c8.4,14.9,15.1,30.4,16.7,47.7c0.9,9.7-0.5,18.9-7.1,26.8c-1.1,1.3-0.8,4.1-0.5,6
		c6.4,39.8,7.3,79.6-1.3,119.3c-12.1,56.2-41.1,101-90.5,131.6c-0.6,0.3-1.1,0.8-1.6,1.2c-0.1,0.1,0,0.3,0,0.5
		c53.5,1.2,89.2,18.1,120.9,57.4c1.4-0.9,2.9-1.8,4.3-2.8c12.6-8.6,25.7-16.1,40.2-21c36.7-12.4,68.4-2.4,91.3,28.9
		c14.4,19.6,22.6,41.8,27.6,65.3c6.7,31.6,8.4,63.4,2.3,95.3c-4.1,21.8-13.1,41.2-30.2,56.1c-10.8,9.4-23.6,14.9-37.5,19
		c0.7,6.6,1.6,13.2,2,19.8c2.2,31.7-7.8,59.3-27.9,83.6c-19,22.9-42.8,39.9-67.9,55.3c-3.8,2.4-7.6,5-11.7,6.8
		c-7.2,3.2-11.8,8.5-15.4,15.4c-53.2,100.1-102.1,202.2-141.3,308.7c-8.7,23.6-16.7,47.5-19.2,72.8c-0.2,2-0.2,4-0.2,6
		c0,1.3,0.4,2.6,0.6,4.1c18.4-0.2,30.4,8.2,35.4,26.5c3.6-0.7,7.3-1.6,11.1-2.2c41.1-7.5,82.1-15.5,123.4-22.3
		c15.9-2.6,32.3-4.3,48.2-3.4c43.7,2.3,85.5,11.9,121,39.7c19.8,15.6,34.3,34.8,39.2,60.2c2.9,15.4,1.8,30.8-6.6,44
		c-3.9,6.2-4.4,12.1-5.1,18.5c-2.7,28.5-18.1,48.4-42.2,62.3c-15.4,8.9-31.9,14.1-49.6,15.8c-10.8,1-17.2-0.2-25.9-4.7
		c-24.6,25.5-55.3,31-87.8,23.4c-35.6-8.4-48.9-37.6-57.1-70.3c-0.8,0.8-1.4,1.1-1.7,1.6c-14.7,23.3-36.6,34.6-63.2,36.8
		c-18.1,1.5-36.3,1.4-53.9-4.4c-19.9-6.5-36.3-18.1-50-33.5c-2.3-2.5-4.5-3.4-7.7-3.2c-27.1,1.6-54.2,3-81.3,4.3
		c-3.3,0.2-4.9,1-6.1,4.3c-4,10.5-11.9,17.9-20.8,24.3c-20,14.4-42.7,23.1-65.9,30.6c-39.9,12.9-80.8,21.2-122.2,27.4
		c-3.3,0.5-5.3,1.8-7.1,4.5c-12.4,18.1-27.2,33.7-47,43.9c-24.7,12.6-50.3,12.8-76.2,4.6c-10.3-3.3-20.2-7.6-30.1-11.5
		c-5.5,6.4-10.8,13.5-17.1,19.6c-21.2,20.4-46.1,33.3-76.1,34.1c-22.1,0.6-40.6-7.8-55.2-24.5c-1.3-1.5-2.7-3-4-4.4
		c-0.1-0.1-0.3-0.2-0.5-0.3c-19.3,7.6-39.3,11.3-60,7.1c-34.1-7-52.4-29.5-59.6-62.3c-2.7-12.2-2.7-24.5,0-36.7
		c0.8-3.9,1.1-7-1.1-11c-5.9-10.5-8.2-22.3-7.4-34.3c2.4-35.6,15.9-64.9,49.3-81.7c8.6-4.3,17.7-7.7,26.9-10.5
		c28.8-8.8,58.5-11.9,88.4-11.7c29,0.2,57.9,2.6,86.9,3.6c33.4,1.1,66.7,0.1,98.8-11c8.3-2.9,16.3-6.7,24-11.1
		c11.6-6.6,20.1-16.2,24.4-29.2c15.7-46.9,32.1-93.6,47.3-140.6c22.2-68.4,43.7-137.1,65.4-205.7c0.4-1.2,0.7-2.5,1.2-4.2
		c-5.1-2-9.9-4.1-15-5.6c-1.1-0.3-3.4,1.3-4.3,2.7c-11.4,17.4-24.4,33.3-39.7,47.4c-23.3,21.4-49.7,37.2-81.5,41.8
		c-15.1,2.2-30.5,2.2-45.8,3.6c-35.9,3.5-71.6,8.1-105.5,21.2c-9.7,3.8-18.8,9.2-27.6,14.9c-8.3,5.4-12.9,13.6-13.8,23.8
		c-2,20.7-4.7,41.3-6.4,62.1c-0.9,11.9,0.2,24-0.6,35.9c-1.5,21.3-6.9,41.7-17.6,60.4c-17.5,30.7-44.9,45.9-79.3,49.6
		c-19.6,2.1-39,0.7-57.6-6.4c-28.3-10.9-46.4-32-58.6-59c-10.4-22.9-15.6-47.1-17.3-72c-2.6-35.9-1.5-71.6,10.4-106.2
		c14.3-41.6,37.4-78.2,67.3-110.1c24.1-25.8,55.5-40.5,88.9-50.8c35.8-11,72.4-13.6,109.7-10.9c39.4,2.9,78.8,5.4,118.2,7.2
		c9.1,0.4,18.5-1.7,27.5-3.9C768.7,1224.2,776.1,1217,782.4,1208.2z M681.5,1889.1c8,3.1,16.8,7.1,25.9,9.9
		c32.2,10.1,62.2,6.4,88.7-15.9c11.1-9.3,20-20.5,28.2-32.3c1.2-1.7,3.3-3.5,5.3-3.9c13.9-2.6,27.9-4.6,41.8-7.2
		c35.6-6.6,70.7-15,104.5-28c18.1-6.9,35.8-14.8,50.3-28.1c6.1-5.6,11.7-11.8,12.6-20.4c1.9-19-1.2-37-15-51
		c-9.5-9.6-20.9-17.5-31.4-26.2c-9.5-7.8-19.2-15.5-28.4-23.6c-6.6-5.8-11-13.3-11-22.2c-0.1-13.1-0.7-26.5,1.4-39.3
		c4.9-30.5,10.3-61,17.2-91.2c17.4-76.3,39.6-151.4,64.8-225.5c6.4-18.7,13.8-37.1,21.1-55.6c2-5,3.5-5,7.9-2.1
		c2.4,1.6,2.2,3.2,1.3,5.5c-2,5.3-3.8,10.6-5.9,16.4c8.8-1.3,12.8-6.2,14.1-13.4c1.2-6.7,1.9-13.5,2.6-20.3c0.4-3.5,2.7-3.1,5.1-3.1
		c2.5,0,4.3,0.6,4,3.6c-0.4,4.1-0.6,8.3-1,12.4c-1.8,19.4-9.9,28.8-28.5,33.7c-1.8,0.5-3.3,2.4-4.9,3.6c0.3,0.7,0.7,1.4,1,2.1
		c7.7-0.6,15.5-0.8,23.1-1.8c23.3-3.1,46.5-6.2,69.7-9.7c12-1.8,24.4-2.9,35.7-6.8c48.2-16.6,95.6-35.4,141.7-57.1
		c34.6-16.2,68.4-33.9,98.6-57.5c20.7-16.1,39-34.4,49.6-59.1c9.1-21.2,10.3-43,5.8-65.7c-1.5,0.1-2.6,0-3.7,0.2
		c-20.9,3.9-41.8,3.1-62.7,0.2c-28.1-3.9-55.5-10.7-82.2-20.4c-4.6-1.7-7-0.8-9.7,3.3c-12,18.6-27.4,34.7-46.3,45.5
		c-54.4,31.1-112.2,38.3-172.5,19.2c-45.1-14.3-83-40.4-116.5-73.2c-1.6-1.5-3.2-3-5-4.8c-5.6,16.5-18.4,16.4-28.3,8.6
		c-6.5-5.2-12.4-11.1-18.7-16.5c-3-2.6-2.4-4.3,0-6.9c2.5-2.6,4.1-2.2,6.5,0.1c6,5.7,12.3,11.2,18.7,16.5c2.7,2.2,6.1,4.1,9.6,1.3
		c3.4-2.7,2.9-6.4,1.3-9.6c-2.6-5.3-5.4-10.7-8.9-15.5c-2.9-3.9-0.1-5.1,1.9-7.2c2.6-2.6,4-0.8,5.6,1.2
		c24.3,30.2,53.2,55.1,86.5,74.7c48.2,28.4,99.6,39.7,155,27.5c37.7-8.3,70.9-24.8,95.6-55.6c27.2-34,38.9-73.5,41.2-116.2
		c1.6-29.6-0.9-58.9-6.7-88c-0.7-3.7,0.4-5.2,3.9-5.9c3.5-0.7,4.9,0.7,5.3,4c0.2,2.1,0.8,4.1,1.4,7c1.8-1.7,3-2.7,4.2-3.8
		c5.3-5,10.5-10.2,16.1-15c12.7-11.1,12.7-11,1.1-23.4c-17.6-18.8-39.8-29.4-64.3-35.3c-11.2-2.7-23.2-5.7-34.4-4.5
		c-24.2,2.6-45.1,13.7-59.4,33.9c-7.2,10.2-13,21.8-17.3,33.5c-6.2,16.8-10.2,34.4-11.6,52.4c-1.3,15.6-7.5,29.9-14.3,43.9
		c-5.8,12-11,24.2-20.1,34.4c-23.5,26.2-58.4,25.5-79.2,8.6c-6-4.9-10.2-11.9-15.8-18.6c0.9,0,0.5-0.1,0.2,0c-3,1.9-6,3.7-8.8,5.7
		c-17.3,12-36.2,14.3-56.3,8.9c-23.2-6.2-35-20.7-35.9-44.9c-0.2-6.7,0-13.5,0-20.4c-1.6,0-2.4-0.1-3.2,0c-11.8,1.4-22.9-1-33.1-7.1
		c-8.8-5.2-17.4-11.1-20.8-21.4c-4-12.1-6.1-24.6-4.1-37.4c0.4-2.6,0.4-5.2,0.7-7.7c-0.7-0.2-1-0.4-1.3-0.3
		c-1.5,0.3-2.9,0.7-4.3,1.1c-34.8,10.4-70.3,16.5-106.8,15.5c-5.2-0.1-10.3-0.6-15.4-0.9c-2.5-0.2-4,0.3-4.2,3.4
		c-1.7,21.3-3.4,42.5-0.8,63.8c2.1,17.5,7.1,33.9,18.3,47.9c1.1,1.3,2.3,2.5,3.9,4.2c2.9-4.9,5.4-9.2,8.2-13.8
		c-14.8-4.4-20.2-15.7-22.4-28.9c-3.8-22.6-0.2-44.8,4.7-66.9c0.4-1.7,3.3-4,5.1-4.1c3.5-0.1,4.1,3.1,4.4,6.1
		c1.3,17.8,2.3,35.5,4,53.2c0.9,8.7,3,17.3,5,25.9c0.8,3.3,2.4,6.5,7,7c-0.1-1.3-0.1-2.2-0.2-3.2c-1.2-19.4-2.5-38.8-3.4-58.3
		c-0.3-7,2.7-12.9,8.1-18.1c0.6,1.3,1,1.8,1.1,2.4c3.4,23.7,7,47.4,10,71.2c0.8,6.4,0.3,13-0.5,19.4c-0.3,2.1-3.3,5.2-5.3,5.3
		c-2,0.2-4.4-2.6-6.3-4.4c-0.9-0.8-1.1-2.4-1.3-3.7c-0.7-3.9-3-4.2-6.9-2.9c6.3,2.4,4.2,5.6,2,9.4c-7.4,12.5-14.9,24.9-21.8,37.6
		c-24.8,46-36.4,94.8-31.1,147.3c5.7,56.6,31.9,100.8,78.4,133.2c26.6,18.5,56.1,31.2,86.4,42.2c0.7,0.3,1.5,0.2,2.6,0.3
		c1.6-5.2,3.1-10.2,4.7-15.6c-10.3-0.7-14.4-7.2-15.3-15.3c-0.9-7.5-0.4-15.2,0.3-22.8c0.5-5,2.1-5.3,6.8-3.5
		c3.3,1.2,2.2,3.3,2.2,5.7c-0.1,7.1-0.1,14.2,0.3,21.2c0.1,1.5,1.9,2.9,2.9,4.4c1.4-1,3.3-1.8,4.2-3.1c2.2-3.3,4.1-6.9,5.8-10.5
		c3.1-6.7,2.9-6.8,10.2-5.7c0.3,0,0.5,0.4,1.2,0.9c-0.6,2.2-1.1,4.6-1.8,6.9c-32.2,101.5-64.3,203.1-96.9,304.6
		c-10.5,32.6-22.3,64.8-33.5,97.3c-4.5,13-13,22.9-24.5,30c-7.3,4.5-15.1,8.6-23.1,11.8c-27.7,11.1-56.9,13.6-86.3,13.6
		c-20.9,0-41.8-2.2-62.8-3.3c-28.6-1.6-57.3-1.5-85.8,1.8c-21.4,2.5-42.3,7.1-62.4,15c-40.6,15.9-54.5,55.2-52.1,87.6
		c0.4,5.4,2.3,10.7,3.5,16.1c0.5,0,1,0,1.5,0c11.9-26.8,31.6-47.4,52-67.4c7.5,4.3,7.5,5.1,2.2,10.8c-9.5,10.3-19.4,20.3-28,31.2
		c-16.2,20.5-27,43.3-24.6,70.4c1.5,16.9,6.7,32.6,18,45.2c22.3,24.8,58.9,26.4,88.2,13.9c-0.9-1.6-1.8-3.2-2.7-4.7
		c-13.5-22.5-16.2-46.1-7.4-70.9c6.5-18.2,17.4-33.7,30-48c5.3-6,6-5.9,11.1,1.3c-1.1,1.3-2.2,2.7-3.4,4c-11.6,13.1-21.7,27-28,43.4
		c-4.5,11.5-6.6,23.3-5,35.7c2.3,18.1,11.2,32.8,23.1,46.2c16.2,18.3,36.8,23.7,60.2,20.1c19.6-3.1,36.9-11.7,51.7-24.6
		c22.4-19.6,38.1-42.5,32.4-74.5c-0.6-3.6,2.1-3.6,4.3-4.2c2.3-0.7,4.5-0.7,4.8,2.4c0.6,6.1,2,12.4,1.2,18.3
		C687,1867.6,684.1,1877.6,681.5,1889.1z M1572.9,1708.8c0.1-0.3,0.5-1,0.7-1.8c5.1-18.6,1.8-36-7.6-52.4
		c-12.2-21.5-30.7-36.4-52.5-46.9c-43.2-20.9-88.7-26.6-135.8-19c-36.1,5.9-72.2,12.3-108.1,19.2c-14.6,2.8-28.9,7.5-43.3,11.1
		c-5.5,1.4-11.1,2-16.7,2.8c-3.6,0.5-4.8-1.5-5.4-4.8c-0.7-3.8,1.4-4.6,4.3-5.2c5.9-1.3,11.7-2.6,17.5-4c5.2-1.2,6.2-3.5,3.6-8.2
		c-4.6-8.2-14-13.4-23.1-11.7c-9.6,1.8-19.1,4.5-28.5,7.2c-3.6,1-4.7-0.3-5.7-3.3c-1-3-0.6-4.7,2.6-5.6c6.1-1.7,12.2-3.5,18.1-5.6
		c1.3-0.5,3.1-2.3,3-3.5c-0.5-13.3,2.2-26.2,5.5-38.9c8.7-33.1,20.9-64.9,33.8-96.6c23.8-58.8,50.6-116.4,78.3-173.5
		c1.7-3.5,2.8-7.5,3.2-11.4c0.7-5.8-1.4-8.2-7.1-9.5c-10.1-2.4-19.9,0.3-29.5,2.7c-34.3,8.7-66.1,23.6-97.7,39
		c-5.6,2.7-9.1,6.5-11.9,11.9c-31.3,61.1-64.4,121.2-100.2,179.8c-22,36.1-44.6,71.9-71.6,104.7c-10.2,12.4-20.6,24.5-34.9,32.5
		c-1.3,0.7-2.3,2.9-2.5,4.5c-1.3,15.7,1.5,29.9,15.4,39.8c1.1,0.8,2,1.8,3,2.6c12,9,24.1,17.9,36,27c20.6,15.8,33.1,35.8,32.6,62.6
		c-0.1,3.9,1.6,4.8,5.1,4.6c27.3-1.4,54.6-2.7,81.9-4.2c3.8-0.2,6.4,0.7,9,3.7c10.5,12.3,22.7,22.5,37.6,29.2
		c22,10,45.2,10.7,68.5,7.2c25.7-3.9,44.4-17.7,54.8-42.1c0.6-1.5,3.6-2.9,5.3-2.8c1.7,0.1,4.2,2.1,4.7,3.7c2.3,8,3.5,16.3,6,24.2
		c5.2,16.7,13.4,31.7,28.2,41.9c18.4,12.7,38.7,13.2,59.4,8.3c8.9-2.1,18.3-4.9,25.9-9.9c10.8-7.2,18.9-17.7,25.4-29.2
		c11.5-20.1,11.9-40.5,1.2-61.1c-5.5-10.6-13-19.8-22-27.6c-2.7-2.3-4.4-4-1.3-7.6c3.4-4,5.3-1.4,7.6,0.7c2.5,2.2,4.9,4.6,7.2,7
		c28.2,30.1,35.7,67.1,8.8,103.2c-0.6,0.8-0.9,1.7-1.6,3.2c3,0.7,5.5,1.7,8,1.8c28.9,1.1,53.9-8.7,75.1-28.1
		c8.5-7.8,14.3-17.5,17.3-28.7c11.5-43-8.1-88.2-47.4-109.1c-3.8-2-4.1-3.7-2.4-7.3c2.1-4.3,4.5-2.1,6.9-0.8
		c19,10,33.7,24.5,43.2,43.7C1565.8,1688.3,1569,1698.8,1572.9,1708.8z M1141.1,736.2c1.5,0.1,2.3,0.3,3.1,0.3
		c34.3-3.6,67.6-11.3,99-26.1c45.7-21.6,78.8-55.2,97.3-102.5c17.2-44.1,19.2-89.8,13.8-136.2c-0.5-4.7-1.5-9.4-2.3-14.6
		c-21.5,7-42,2-62.8-2.8c0.1,2.5,0.3,4.1,0.3,5.7c0.7,12.4,1.9,24.8,1.8,37.3c-0.3,26.6-8.3,51.2-22.6,73.6
		c-21,33-50.9,55.3-86.1,71.4c-6.8,3.1-11.7,2.5-17.1-2.1c-17.5-14.9-35.1-29.7-52.7-44.5c-1.3-1.1-2.7-2.3-4.8-4
		c-1.2,1.6-1.9,2.9-3,4c-44.9,46.8-99.9,72-164.2,77.5c-27,2.3-53.8,0.1-80.5-4.9c-34.4-6.5-62.5-23.5-83.8-51.1
		c-16.1-20.9-23.2-45.1-23.7-71.3c-0.1-4.9,0-9.9,0-15.5c-2.6,0.9-4.4,1.7-6.3,2.1c-10.5,2.4-20.9,5.8-31.6,6.9
		c-25.6,2.6-45.4-11.8-51.2-36.8c-1.8-7.7-2.4-15.9-1.9-23.7c1.1-17,6-33.1,19-45c28.4-25.9,60.8-33.6,97.4-19.4
		c0.9,0.3,1.8,0.5,3.2,0.9c-0.4-2.1-0.8-3.7-1.1-5.3c-4-20.9-9.1-41.6-11.8-62.7c-4.1-31.5-1.7-62.6,10.9-92.2
		c3.2-7.5,2.4-15,0.8-22.5c-1-4.5-3.4-5.7-7.3-3.4c-4.3,2.5-8.3,5.5-11.9,8.9c-2.6,2.5-4.5,3.1-7.7,1.3c-3.4-1.9-3-4.3-2.1-7.1
		c7.2-22.7,13.4-45.7,21.7-68c11.6-31.3,27.8-60.1,51.4-84.3c17-17.4,37.1-30.8,57-44.6c4.5-3.1,8.8-6.4,13.3-9.5
		c-0.2-0.4-0.4-0.9-0.6-1.3c-13.5,3.9-27.2,7.3-40.6,11.8c-41.3,13.8-78.8,34.3-110.3,64.7c-41.1,39.7-66.5,87.8-75.3,144.4
		c-0.8,5-1.9,8.8-6.2,12.2c-46.3,37-84.4,81.3-113.6,132.9c-7.7,13.5-15.3,27.6-19.5,42.4c-9.3,32.6-11.2,66.2-7.6,100
		c9.5,88.2,50.3,158.3,122.6,209.7c39.8,28.3,84.3,43.5,133.4,45.2c39.8,1.3,78.2-5.9,115.9-17.8c1.6-0.5,3.2-2.3,3.9-3.9
		c10.6-25.1,28.5-43.3,52.3-55.7c24.4-12.7,47.9-10.6,69.5,6.9c13.5,10.9,23.1,24.8,29.6,40.9c1.2,3.1,3.1,4.4,6.1,5.8
		c8.5,4.1,16.8,8.6,24.9,13.5c4.2,2.5,7.6,6.3,11.8,9.8c10-13.2,19.7-26,29.4-38.9c-3.3,1.3-5.7,3.2-8.3,5
		c-7.4,5.3-15.1,9.9-24.3,11.1c-1.4,0.2-3-1-4.5-1.5c1-2.5-1.7-6.5,2.9-7.4c10-1.9,18.5-7.1,25.7-13.8
		c12.4-11.5,24.4-23.6,36.1-35.9c3.2-3.4,5.4-3.4,8.8-1.1c3.9,2.6,1,5.1-0.3,7.2c-3.8,6.3-7.9,12.3-11.9,18.5
		C1143.6,732.4,1142.5,734.1,1141.1,736.2z M950.9,494.3c22.4-0.7,44.3-0.6,66-2.4c24.8-2.1,49.5-6,74.3-9c6.8-0.8,7.3-1,7.4-7.9
		c0.3-10,0.4-20,0.3-30c-0.3-26.8-3.5-53.2-14.2-78.1c-6.7-15.6-14.6-30.7-22.1-45.9c-15-30.7-31.2-60.8-52.8-87.5
		c-15.7-19.3-33.3-36.7-56.3-47c-28.3-12.6-58.2-14.5-88.5-9.5c-21.6,3.6-38.8,14.2-49.9,33.8c-4.4,7.8-9.6,15.2-14.3,22.9
		c-16.7,27.3-25.4,57-24.1,88.9c0.8,19.9,3.8,39.7,6.8,59.4c5.8,37.9,21.6,71.8,42.8,103.4c1,1.5,3.2,3,5,3.2
		c12.1,1.2,24.2,2.5,36.3,3C895.5,492.7,923.5,493.4,950.9,494.3z M473.2,1579.8c0.8-2.9,1.2-4.3,1.5-5.8
		c6.3-28.8,11.3-57.8,11.6-87.5c0-3.5,0.9-5.6,4.9-5.8c4-0.3,4.6,1.8,5.2,5c2.9,16.9,6,33.7,9,50.6c1.6,8.9,3.1,17.7,4.7,26.6
		c2.6-7.8,4.5-15.6,6.1-23.4c4.3-20.6,10.3-41,10.6-62.3c0.1-4,3.3-2.8,5.5-3.4c3.1-0.7,3.6,1.2,3.9,3.6c2.6,20.1,5.3,40.3,8,60.4
		c1.4,10.2,3,20.3,4.6,30.5c1.5-1.8,2.2-3.6,2.9-5.4c6-18.1,8.6-36.7,7.7-55.6c-1.2-25.2,2.7-49.8,5.4-74.6
		c1.9-17.7,11.2-29.7,25.9-37.9c9-5,18.4-9.5,28.1-12.8c40.7-13.7,83-18.7,125.6-21.1c2.8-0.2,5-0.2,6.6-3.1
		c19.3-34.4,20.4-68.9,0.8-103.6c-3.4-6-3.4-5.8-9.4-2.3c-23.2,13.6-48.2,21.3-75.3,18.9c-9.6-0.9-19.1-4.1-28.4-7
		c-2.1-0.7-4.6-4.3-4.6-6.7c0-1.9,3-4.8,5.2-5.6c4.1-1.5,8.7-2.4,13.1-2.7c22.9-1.3,45.9-2.3,68.9-3.3c7.5-0.3,15-0.6,22.5-0.9
		c0.2-0.7,0.3-1.4,0.5-2.1c-2.5-1.1-5-2.9-7.5-3.1c-34.1-2-68.2-3.2-102.2-5.7c-30.6-2.2-61.1-4.4-91.6,0.4
		c-36.1,5.6-69.5,17.8-100.1,38c-21.1,13.9-36,33.5-50.2,53.6c-18.5,26.2-33.3,54.2-41.6,85.3c-8.1,30.3-8,61.3-5.9,92.3
		c0.1,0.8,0.2,1.7,0.5,2.4c4.5,10.7,9.1,21.5,13.7,32.2c0.5,1.1,1.3,1.9,2.5,3.7c0.4-2,0.7-2.9,0.8-3.9c2-23.9,4-47.8,5.8-71.6
		c0.3-3.4,1.3-5.2,4.9-5.5c3.7-0.3,4.9,1.5,5.8,4.6c6.1,22.2,12.2,44.3,18.4,66.4c1.2,4.2,2.4,8.4,3.7,12.6c1.1-2.3,1.4-4.4,1.7-6.5
		c1.9-16.2,3.9-32.4,5.6-48.6c0.4-3.3,0.6-5.6,4.9-5.8c4.4-0.3,5.2,2.1,6,5.5c4.2,16.5,8.5,32.9,12.8,49.3
		c2.2,8.3,4.5,16.6,6.7,24.9c3.4-21.8,6.2-43.4,8.7-65c0.4-3.7,2.3-4.7,5.6-4.8c3.5-0.2,4.4,1.9,5,4.8c3,16.9,6,33.7,9.1,50.6
		C469.1,1558.5,471,1568.4,473.2,1579.8z M991.8,199c11.6,13.7,23.3,26.3,33.6,39.9c19.4,25.4,33.9,53.8,47.7,82.5
		c7.7,16.1,16.3,31.8,22.6,48.4c12.8,34,13.9,69.6,11.8,105.4c-0.4,6.2-0.5,6.8,5.4,6.2c16.6-1.5,33.2-2.6,49.6-5.5
		c26.8-4.6,52.2-14.4,77.7-23.8c3.9-1.4,5.3-3.5,5.9-7.4c3.5-24.4,1.6-48.6-4.1-72.4c-14.2-59.4-42.1-111.9-81.1-158.7
		c-11.9-14.3-25.4-26.8-41.3-36.8c-15.1-9.5-31.6-15.3-49.4-15.3c-16.8,0-32.5,5.1-47,13.5C1011.4,181.8,1000.8,190,991.8,199z
		 M1328.9,979.8c5.9,2,12.3,4.3,18.8,6.2c38,11.2,76.4,20.1,116.4,15.6c16-1.8,31.4-6.1,45.2-14.7c21.8-13.4,31.6-34.6,36.2-58.5
		c5.5-28.3,4.2-56.8-1.2-84.9c-4.6-23.8-12.2-46.8-26.6-66.8c-14.4-20-33-33.3-58.8-31.5c-9.8,0.7-19.9,3-29,6.6
		c-30.5,12.1-54.8,33.1-76.9,56.8c-1.4,1.5-1.9,4.6-1.7,6.8c0.6,8.8,1.8,17.6,2.4,26.4c2.3,32,0.8,63.7-8.5,94.5
		C1340.7,950.9,1334.6,964.8,1328.9,979.8z M761,489.4c-2.8,0.9-5.5,1.8-8.2,2.4c-8.2,1.7-15-1.7-17.5-8.7
		c-3.4-9.7,2.4-26.7,11.3-32.6c1.7,1.5,3.4,3,4.4,3.9c-3,6.6-6.5,12.4-8.2,18.6c-2.4,9,2.7,13.3,11.4,9.9c4.9-1.9,9.4-4.8,14.1-7.3
		c4.8,2.3,5.3,5.4,3.3,10.7c-8,21-11.1,42.8-9.7,65.2c3.3,54.9,40.3,91.1,87.2,105.1c30.1,9,61.3,10.3,92.7,7.7
		c59.6-5,110.7-28.5,153.2-70.6c1.2-1.2,2.2-2.6,3-3.5c-8.9,0-17.6,0.5-26.2-0.1c-16.7-1.3-32.6-4.4-40.4-22.4
		c-15.5,11.2-32.9,15.2-51.2,14.9c-15.3-0.2-30.6-1.3-45.8-3.2c-26.9-3.3-49.4-16.5-69.3-34.2c-34.3-30.7-57.6-69.1-76.8-110.4
		c-1.6-3.4-4.4-6.7-7.6-8.7c-16.1-9.9-33.8-11.9-52-7.9c-40.3,8.9-62.8,36.4-57.7,77.2c2.8,22.8,18.2,35.9,41.2,35.6
		c14.3-0.2,27.5-4.7,40.3-10.4c1.2-0.5,2.4-2.3,2.7-3.7C757.3,507.9,759.1,498.9,761,489.4z M1182.3,1258.3
		c-12.9,2.1-24.7,4.4-36.5,6c-30.2,4-60.4,8-90.7,11.1c-6,0.6-8,2.5-9.8,7.7c-19.8,58.9-37.7,118.3-53.3,178.4
		c-12.1,46.6-23.7,93.3-29.6,141.2c-0.2,1.9-0.3,3.7-0.5,6.4c2-1.2,3.2-1.8,4.1-2.7c3.3-2.8,6.7-5.4,9.8-8.5
		c18.8-18.4,34-39.7,48.6-61.4c49.2-73,91.7-150,132.5-227.9c3.9-7.5,7.8-15.1,11.6-22.7C1173,1277,1177.4,1268.1,1182.3,1258.3z
		 M1282.8,435.6c2.1,3.5,3.2,8,5.5,8.7c15.8,5,31.8,8.7,48.6,7.3c17.1-1.5,25.2-11.6,23.4-28.7c-1.7-15.4-7.8-29.2-15-42.6
		c-0.6-1.1-1.6-2.2-2.7-2.9c-6.1-4.4-11.9-9.2-18.3-12.9c-26.7-15.6-48.4-10.5-66.2,14.7c-3.3,4.7-4.2,9.1-3.4,14.8
		c3.3,24.5,2.9,48.9-4.5,72.7c-11.8,37.9-37.7,62.8-73.3,78.4c-8.5,3.7-17.3,6.6-25.7,9.8c-0.8,22.7-19.4,25.2-35,31.1
		c0.3,0.6,0.4,1.1,0.7,1.4c18.4,15.6,36.8,31.2,55.4,46.6c1.3,1.1,4.4,1,6.2,0.3c15.4-6.2,29.6-14.6,42.7-24.7
		c30.1-23.2,51.4-52.4,59.1-90.3c6.3-31.4,2.1-62-7.4-92.1c-0.7-2.1-2.3-4.3,1.2-5.8c2.9-1.2,5.1-1.8,7,1.6c1.5,2.5,3.6,5,7.3,3.5
		c8.1-3.3,10.2-13.2,4-19.3c-2.7-2.6-5.9-4.7-9.1-7.2c1.1-2.2,2.1-4.4,3.1-6.5c12.5,5.2,19.3,14.6,17.8,24.3
		C1302.8,426.9,1294.5,434.4,1282.8,435.6z M790.5,232.1c7.1-11,14-21.7,20.8-32.3c7.8-12.2,18.7-20.6,32-26.1
		c17.1-7.1,35-8.8,53.3-8.2c29.3,0.9,57.2,6.6,81.4,24.5c0.8,0.6,1.9,0.8,3.2,1.3c6.1-26.8,10.1-53.4,9.8-80.5
		c-0.2-16.1-1.6-32-7.7-47c-1.6-3.8-5-6.8-8.1-10.9c-1.3,17.9-2.4,34.2-3.8,50.4c-1.4,15.9-3.2,31.8-4.8,47.7
		c-0.3,3.1-1.6,4.4-4.8,4c-3.1-0.4-4.9-1.4-4.5-5.1c0.4-3.3,0.2-6.7,0-10c-1.5-16.9-3-33.8-4.7-50.7c-0.7-6.9-1.9-13.8-3-21.7
		c-11.8,24.7-23.1,48.3-34.4,72c-7.8-4.1-7.8-4.1-5.1-11.3c0.8-2,1.6-4.1,1.7-6.2c0.7-12.9,1.2-25.9,1.7-38.8c0-0.8-0.7-1.6-1.3-3
		c-1.6,2.2-2.8,3.7-4,5.3c-13,17.8-26,35.5-38.8,53.3c-1.9,2.7-3.8,3.2-6.7,1.9c-2.8-1.1-4-2.6-3.2-5.7c0.5-2.1,0.6-4.3,0.8-6.4
		c0.7-6.1,1.4-12.2,2.2-19.7c-2.3,2.8-3.5,4.4-4.8,5.9c-17.7,22.1-35.4,44.2-53.1,66.3c-2.1,2.7-3.7,4.6-7.7,2.2
		c-4.3-2.6-2.4-5-1.2-7.9c11-24.5,21.9-48.9,32.9-73.4c1.5-3.3,2.8-6.7,4.2-10c-3.4-2.5-5.8-1.9-8,1.1c-7,9.5-14.6,18.7-20.8,28.7
		c-17.7,28.2-28.4,59.4-37.8,91c-1,3.2-1.8,6.5-2.9,10.4C780.3,215,785.6,219.5,790.5,232.1z M1097.9,491.7
		c-1.8,0.1-2.6,0.2-3.4,0.3c-23.5,2.8-46.9,5.6-70.4,8.3c-13.2,1.6-25.8,2.7-37.8,11.1c-16.9,11.9-39.3,8.2-56.5-6
		c-2.9-2.4-5.6-3.4-9.4-3.5c-22.1-0.8-44.3-1.8-66.4-2.8c-6.4-0.3-12.7-0.8-20.7-1.4c6.3,7.8,11.4,14.5,16.9,20.9
		c17.4,19.9,37.1,36.8,62,46.8c12.9,5.2,26.4,6.8,40.1,7.5c12.6,0.6,25.3,1.5,37.8,0.8c13.8-0.8,26.9-4.9,37.8-13.9
		c1.8-1.5,3.8-3.1,4.6-5.1c4.9-12.7,14.6-20.4,26.8-24.5c9.3-3.2,19.4-4.3,29.1-6.6c1.7-0.4,4.2-1.5,4.5-2.6
		C1094.8,511.4,1096.3,501.8,1097.9,491.7z M1175,831.5c-2-5.7-3.2-12.6-6.6-18.2c-8.6-14.2-33-29.7-56-23.3
		c-25.1,6.9-38.3,26.4-47,48.8c-5.8,15.1-6.8,31.4-5.2,47.8c2.5,24.4,18.5,39.4,43,39.7c20.8,0.3,35.8-10.1,45.5-27.4
		c8.1-14.6,14.6-30.2,21-45.7C1172.4,846.7,1173.1,839.6,1175,831.5z M1083,793.6c-6.1-6.8-14.2-12.8-23.4-17.3
		c-18.1-9-36.1-8.4-52.5,3.2c-9,6.3-17,14.5-24.2,22.9c-6.1,7.1-12.3,15.1-15.2,23.8c-5.6,16.7-7.7,34.3-5.5,52.2
		c2.2,17.8,10.2,27.3,27.4,32.1c18.6,5.2,35.9,3.2,51.8-8.4c2.4-1.8,5.3-3,7.4-5.1c1.4-1.4,2.6-3.7,2.6-5.6c0-8-1.2-16-0.7-23.9
		c1.1-15.3,2.6-30.7,11.2-44.1C1068.5,813.4,1075.7,803.9,1083,793.6z M1038.8,760.6c-3.5-9.8-8.8-17.6-14.9-24.8
		c-11.5-13.5-25.1-23.4-43.8-23.7c-15.2-0.2-28.1,6-40,14.8c-25,18.6-41.1,42.2-39.7,74.6c0.4,8.2,1.3,17.4,5.4,24
		c9,14.4,26.9,22.5,44.5,19.3c1.6-0.3,3.9-2.8,4.1-4.4c1.7-14.5,7.8-26.9,16.5-38.4C988,779.6,1007.4,761.1,1038.8,760.6z
		 M1171.8,98.6c-0.3-0.3-0.6-0.6-0.8-0.9c-1.1,0.9-2.4,1.6-3.4,2.6c-13.6,11.5-27.2,23-40.8,34.6c-2.3,2-4.1,3.5-7.2,1
		c-3-2.4-3.2-4.5-1.6-7.6c2.2-4.3,4.2-8.7,6.2-13.1c3.1-6.5,6.2-13.1,9.3-19.6c-4,1.6-7.2,3.9-10.5,6.1
		c-18.8,13-37.6,25.9-56.3,38.9c-2.7,1.9-4.6,2.4-7.2-0.4c-2.5-2.7-2.3-4.4-0.1-7.2c10-12.5,19.8-25.1,29.6-37.7
		c-4.1-2.3-4.1-2.3-7.8,0.8c-27.7,22.7-52.4,48.3-74.8,76.2c-0.6,0.8-1,1.7-1.7,2.9c0.8-0.1,1-0.1,1.1-0.2c1.7-1.1,3.3-2.2,5-3.3
		c16.3-10.7,33.9-17.8,53.5-19.1c24.7-1.6,46.5,6.6,66.5,20.4c19.4,13.4,35,30.7,49.3,49.3c1.4,1.8,2.8,3.5,4.5,5.5
		c11.5-20.9,23-41,33.8-61.4c9.9-18.6,18-37.9,20.9-59c0.6-4.5-1.2-6.3-4.7-8.3c-1,2.7-1.9,5-2.8,7.3c-10,25.6-24.2,48.9-38.9,72
		c-1,1.6-4.1,3.6-4.8,3.2c-2.5-1.6-6.3-3.2-3.5-7.7c1.2-1.9,1.8-4.3,2.2-6.6c2.4-12.1,4.7-24.1,6.8-36.3c1.1-6.6,1.6-13.3,2.4-19.9
		c-2.3,0.7-3.4,1.9-4.4,3.1c-10.3,12.2-20.7,24.4-30.9,36.7c-2.1,2.5-3.8,3.1-6.7,1.3c-3.1-1.9-3.5-3.7-2.1-6.9
		C1158.6,129.9,1165.2,114.2,1171.8,98.6z M1150.6,44.2c-0.1,0-1.3-0.1-2.6-0.2c-20.2-0.5-40.3,0.6-60.2,4.3
		c-30.2,5.6-58.7,15.8-84.8,32.3c-3.3,2.1-4.7,4-4.2,8.3c2.5,19.1,1.9,38.2-0.5,57.3c-1,7.8-2.1,15.6-3.3,24.7
		c1.6-1.8,2.4-2.6,3.1-3.5c8.6-10,16.8-20.3,25.7-29.9c26.7-28.8,55.3-55.5,89.6-75.1C1125.7,55.5,1138.8,50,1150.6,44.2z
		 M1243.5,460.3c-2.8,0.9-4.6,1.6-6.4,2.1c-23.2,7.2-46.3,14.4-69.5,21.4c-4,1.2-7.5,2.3-11.3,4.8c-15.2,10-31.4,17.9-50.6,14
		c-0.4-0.1-0.9,0.3-1.5,0.5c-1.1,6.7-2.2,13.3-3.3,20.1c1.1,0.3,1.7,0.5,2.4,0.6c16.4,2.6,31.1,8.4,42.2,21.4c0.8,1,3.4,1.3,4.7,0.8
		c11.6-4.5,23.6-8.3,34.6-14c27.5-14.1,46.9-35.8,56.8-65.4C1242.2,464.9,1242.7,463.1,1243.5,460.3z M1081.3,583.2
		c12.8-2.5,26.8-4.7,40.5-8c5.5-1.3,10.8-4.4,15.5-7.7c6.3-4.4,7.1-10.4,2.2-16.4c-3.1-3.8-6.9-7.4-11.1-9.8
		c-24.9-14.5-50-12.5-74.6,0.8c-4.1,2.2-7.7,6-10.5,9.7c-6.1,8-4.5,16.8,3.7,22.6c2.5,1.8,5.5,3.5,8.4,4.2
		C1063.5,580.3,1071.7,581.5,1081.3,583.2z M1215.6,731.4c-0.9,0.2-1.8,0.5-2.8,0.7c-19.3,4.2-38.6,8.5-58,12.5
		c-7.3,1.5-16,0-21.8,3.5c-6.1,3.7-9.5,11.8-14,17.9c-3.4,4.6-6.9,9.2-11.3,15c30.1-5.4,52.2,5.8,70.2,28.5
		C1184.2,780,1193.8,752.8,1215.6,731.4z M1308.1,348.2c-12.9-25.5-33-43.3-53.6-61.8c3.6,9.3,6.6,17.5,9.9,25.7
		c1.3,3.2,2.8,6.4,4.7,9.3c1.8,2.7,3.7,5.1,0.9,7.9c-3.1,3-5.9,0.9-8.2-1.4c-10.3-10.5-20.6-20.9-30.5-31.6c-3.1-3.4-6-7.4-7.7-11.6
		c-1.4-3.4-1.7-7.9-0.7-11.4c0.8-2.5,4.6-4.2,7.3-6.4c-10.8-7.5-22.3-15.5-33.7-23.5c6.5,12.7,13.5,24.6,20.2,36.7
		c4.3,7.7,8.5,15.1,15.6,21.3c9.2,8.2,16,19.1,23.9,28.7c2.3,2.8,2,4.6-1.1,6.8c-3.3,2.3-4.8,1.3-6.7-1.6c-3.9-5.6-8.1-11-12.1-16.5
		c-0.1,0.1-0.3,0.3-0.4,0.4c5.5,17.4,10.9,34.9,16.5,52.8C1266.1,353.5,1283.5,343.4,1308.1,348.2z"/>
	<path class="cuerpo-garfield" d="M681.5,1889.1c2.6-11.5,5.5-21.5,6.9-31.6c0.8-5.9-0.6-12.2-1.2-18.3c-0.3-3.1-2.5-3.1-4.8-2.4
		c-2.1,0.7-4.9,0.6-4.3,4.2c5.7,32-10,54.9-32.4,74.5c-14.8,13-32.1,21.5-51.7,24.6c-23.4,3.7-43.9-1.8-60.2-20.1
		c-11.9-13.4-20.7-28.1-23.1-46.2c-1.6-12.3,0.6-24.2,5-35.7c6.4-16.4,16.5-30.4,28-43.4c1.2-1.3,2.3-2.7,3.4-4
		c-5.1-7.1-5.8-7.3-11.1-1.3c-12.6,14.4-23.5,29.8-30,48c-8.8,24.8-6.1,48.4,7.4,70.9c0.9,1.5,1.8,3.1,2.7,4.7
		c-29.3,12.4-65.9,10.9-88.2-13.9c-11.3-12.6-16.5-28.3-18-45.2c-2.4-27.2,8.3-49.9,24.6-70.4c8.7-10.9,18.5-21,28-31.2
		c5.3-5.7,5.3-6.5-2.2-10.8c-20.4,20-40.2,40.6-52,67.4c-0.5,0-1,0-1.5,0c-1.2-5.4-3.1-10.7-3.5-16.1c-2.4-32.4,11.5-71.8,52.1-87.6
		c20.2-7.9,41-12.5,62.4-15c28.5-3.4,57.2-3.4,85.8-1.8c20.9,1.1,41.9,3.3,62.8,3.3c29.4-0.1,58.6-2.5,86.3-13.6
		c8-3.2,15.7-7.3,23.1-11.8c11.5-7.1,20-16.9,24.5-30c11.2-32.4,23-64.6,33.5-97.3c32.6-101.4,64.6-203,96.9-304.6
		c0.7-2.3,1.2-4.7,1.8-6.9c-0.7-0.5-1-0.8-1.2-0.9c-7.2-1.1-7.1-1.1-10.2,5.7c-1.6,3.6-3.6,7.1-5.8,10.5c-0.9,1.4-2.7,2.1-4.2,3.1
		c-1-1.5-2.8-2.9-2.9-4.4c-0.4-7.1-0.4-14.2-0.3-21.2c0-2.3,1.1-4.5-2.2-5.7c-4.7-1.7-6.4-1.5-6.8,3.5c-0.7,7.5-1.2,15.3-0.3,22.8
		c0.9,8.1,5,14.6,15.3,15.3c-1.6,5.4-3.1,10.4-4.7,15.6c-1.1-0.1-1.9-0.1-2.6-0.3c-30.3-11.1-59.8-23.7-86.4-42.2
		c-46.5-32.4-72.8-76.6-78.4-133.2c-5.3-52.5,6.4-101.3,31.1-147.3c6.9-12.8,14.4-25.2,21.8-37.6c2.2-3.7,4.3-7-2-9.4
		c3.9-1.3,6.2-1,6.9,2.9c0.2,1.3,0.5,2.9,1.3,3.7c1.9,1.8,4.3,4.5,6.3,4.4c2-0.2,5-3.2,5.3-5.3c0.8-6.4,1.3-13,0.5-19.4
		c-3-23.8-6.6-47.5-10-71.2c-0.1-0.6-0.5-1.1-1.1-2.4c-5.4,5.2-8.4,11.2-8.1,18.1c0.9,19.4,2.2,38.8,3.4,58.3c0.1,1,0.1,1.9,0.2,3.2
		c-4.6-0.5-6.2-3.7-7-7c-2-8.6-4.1-17.2-5-25.9c-1.8-17.7-2.8-35.5-4-53.2c-0.2-3-0.9-6.2-4.4-6.1c-1.8,0.1-4.7,2.3-5.1,4.1
		c-4.9,22-8.5,44.3-4.7,66.9c2.2,13.3,7.6,24.5,22.4,28.9c-2.8,4.6-5.3,8.9-8.2,13.8c-1.5-1.6-2.8-2.8-3.9-4.2
		c-11.3-14-16.2-30.4-18.3-47.9c-2.6-21.3-0.9-42.6,0.8-63.8c0.3-3.1,1.8-3.5,4.2-3.4c5.1,0.4,10.3,0.8,15.4,0.9
		c36.5,1,72-5.2,106.8-15.5c1.4-0.4,2.9-0.8,4.3-1.1c0.3-0.1,0.6,0.1,1.3,0.3c-0.2,2.5-0.3,5.1-0.7,7.7c-2,12.8,0.1,25.3,4.1,37.4
		c3.4,10.3,12,16.2,20.8,21.4c10.2,6,21.3,8.4,33.1,7.1c0.8-0.1,1.6,0,3.2,0c0,6.9-0.2,13.7,0,20.4c0.8,24.1,12.7,38.7,35.9,44.9
		c20.1,5.3,39,3.1,56.3-8.9c2.9-2,5.9-3.8,8.8-5.7c0.2-0.2,0.6-0.1-0.2,0c5.5,6.6,9.7,13.7,15.8,18.6c20.8,16.8,55.8,17.5,79.2-8.6
		c9.1-10.1,14.3-22.4,20.1-34.4c6.8-14,13.1-28.3,14.3-43.9c1.5-18.1,5.5-35.6,11.6-52.4c4.3-11.7,10.1-23.3,17.3-33.5
		c14.3-20.2,35.2-31.3,59.4-33.9c11.2-1.2,23.1,1.8,34.4,4.5c24.5,5.8,46.8,16.5,64.3,35.3c11.6,12.4,11.6,12.4-1.1,23.4
		c-5.5,4.8-10.7,10-16.1,15c-1.2,1.1-2.4,2.1-4.2,3.8c-0.6-2.9-1.2-4.9-1.4-7c-0.4-3.3-1.9-4.7-5.3-4c-3.5,0.7-4.6,2.1-3.9,5.9
		c5.7,29,8.3,58.4,6.7,88c-2.3,42.7-13.9,82.3-41.2,116.2c-24.7,30.8-57.9,47.3-95.6,55.6c-55.4,12.2-106.8,0.9-155-27.5
		c-33.4-19.6-62.2-44.6-86.5-74.7c-1.6-1.9-3-3.7-5.6-1.2c-2.1,2.1-4.8,3.3-1.9,7.2c3.5,4.8,6.3,10.1,8.9,15.5
		c1.6,3.2,2,6.9-1.3,9.6c-3.5,2.8-6.9,0.9-9.6-1.3c-6.4-5.3-12.7-10.8-18.7-16.5c-2.5-2.3-4-2.7-6.5-0.1c-2.4,2.5-3,4.3,0,6.9
		c6.3,5.4,12.2,11.4,18.7,16.5c9.9,7.9,22.7,7.9,28.3-8.6c1.8,1.8,3.4,3.3,5,4.8c33.5,32.9,71.4,59,116.5,73.2
		c60.3,19.1,118.1,11.8,172.5-19.2c18.9-10.8,34.3-26.8,46.3-45.5c2.7-4.2,5.1-5,9.7-3.3c26.7,9.7,54.1,16.5,82.2,20.4
		c20.9,2.9,41.8,3.6,62.7-0.2c1.1-0.2,2.3-0.1,3.7-0.2c4.5,22.6,3.3,44.5-5.8,65.7c-10.6,24.6-28.9,42.9-49.6,59.1
		c-30.3,23.6-64.1,41.3-98.6,57.5c-46.2,21.7-93.6,40.5-141.7,57.1c-11.3,3.9-23.7,5-35.7,6.8c-23.2,3.5-46.5,6.7-69.7,9.7
		c-7.7,1-15.4,1.2-23.1,1.8c-0.3-0.7-0.7-1.4-1-2.1c1.6-1.3,3.1-3.2,4.9-3.6c18.7-4.8,26.8-14.2,28.5-33.7c0.4-4.1,0.7-8.3,1-12.4
		c0.3-3-1.5-3.6-4-3.6c-2.4,0-4.7-0.4-5.1,3.1c-0.7,6.8-1.4,13.6-2.6,20.3c-1.3,7.2-5.3,12.1-14.1,13.4c2-5.7,3.9-11.1,5.9-16.4
		c0.9-2.3,1.1-3.9-1.3-5.5c-4.4-2.9-5.9-2.9-7.9,2.1c-7.2,18.4-14.7,36.8-21.1,55.6c-25.1,74.1-47.4,149.2-64.8,225.5
		c-6.9,30.1-12.3,60.7-17.2,91.2c-2.1,12.8-1.5,26.2-1.4,39.3c0.1,8.9,4.4,16.4,11,22.2c9.3,8.1,18.9,15.8,28.4,23.6
		c10.5,8.7,21.8,16.6,31.4,26.2c13.8,14,16.9,32.1,15,51c-0.9,8.6-6.4,14.9-12.6,20.4c-14.6,13.3-32.2,21.2-50.3,28.1
		c-33.8,13-68.9,21.5-104.5,28c-13.9,2.6-27.9,4.6-41.8,7.2c-2,0.4-4.1,2.2-5.3,3.9c-8.2,11.8-17.1,23-28.2,32.3
		c-26.5,22.3-56.4,26.1-88.7,15.9C698.3,1896.2,689.5,1892.2,681.5,1889.1z M750.8,1051.3c1.7,6.3,2.5,13.1,5.3,18.8
		c3.5,7,11.4,6.3,14.7-0.7c1.3-2.7,2.4-5.6,2.8-8.5c5.3-32.1,10.4-64.2,15.7-96.4c0.6-3.5-0.9-4.7-3.9-5.6c-3.3-1-4.9,0-6.2,3
		c-6.1,14.8-12.7,29.3-18.2,44.2C755.6,1020.6,752.1,1035.5,750.8,1051.3z M815.5,1215.2c6.3,0.1,9.3-3.3,8.2-7.5
		c-0.5-2.1-1.4-4.1-2.5-6c-18.3-29.7-36.7-59.4-55.1-89.2c-1.8-2.9-3.6-2.6-6.1-1.3c-2.5,1.3-4.1,2.4-2.9,5.7
		c8.9,23.9,18.1,47.7,31.5,69.4c4.9,8,11.1,15.4,17.3,22.4C808.8,1212,813.2,1213.7,815.5,1215.2z M814,974.6
		c-0.6-0.3-1.3-0.6-1.9-1c-4.2,6-9.1,11.7-12.5,18.2c-10.7,20.6-13.8,42.8-12.5,65.8c0.2,3.4,0.9,7.1,2.4,10.1
		c1.1,2.2,3.9,4.8,6,4.9c2.1,0.1,4.7-2.5,6.3-4.5c1.4-1.9,2.1-4.6,2.4-7c2.5-17.1,5-34.2,7-51.4C812.6,998.1,813.1,986.3,814,974.6z
		 M857.9,1207.9c-0.2-0.8-0.3-1.5-0.6-2.1c-15.8-25.1-31.6-50.1-47.3-75.2c-1.8-2.9-3.8-1.6-6-0.8c-2.5,1-3.8,2.3-3,5.2
		c5.1,19,10.9,37.7,21.4,54.6c4.5,7.2,9.8,13.9,17.6,18C845.7,1210.7,851.7,1211.8,857.9,1207.9z M813.7,1066.8c0,0.8,0,1.7,0,2.5
		c0.1,3.7,0.8,7.2,4.9,8.3c3.9,1.1,6.4-1.6,8-4.6c1.9-3.6,3.7-7.5,4.7-11.5c5.5-20.5,6.5-41.6,7.6-62.7c0.1-1.7-0.5-4.8-1-4.9
		c-2-0.2-4.3,0.1-6.1,1.1c-1.4,0.8-2.6,2.6-3.2,4.2C820.6,1021.1,815.9,1043.7,813.7,1066.8z M820.7,843.3c0,0-0.1,0-0.1,0
		c0.8,10.6,1.2,21.3,2.4,31.8c0.9,8,2.7,16,4.5,23.9c1,4.2,3.4,8,8.6,7.3c5.1-0.8,6.3-5,6.5-9.4c0.2-3.1,0.5-6.4-0.2-9.4
		c-3.7-17.2-7.7-34.3-11.5-51.5c-0.7-3.1-1.9-5-5.7-4.4c-4.1,0.6-4.8,2.8-4.5,6.2C820.8,839.6,820.7,841.4,820.7,843.3z M881,1198.6
		c-0.9-1.9-1.5-3.4-2.3-4.7c-11.8-19.1-23.6-38.2-35.3-57.4c-1.8-2.9-3.2-4.5-7.1-2.9c-3.9,1.7-3.7,4.1-2.7,7.2
		c2.3,6.9,4.3,14,6.9,20.8c4.3,10.9,9.7,21.2,18.5,29.3C865,1196.4,871.7,1199.4,881,1198.6z M901,1182.3c-1-2.9-1.5-6.3-3.2-8.7
		c-8.5-12.3-17.3-24.4-26-36.6c-1.6-2.3-3.4-2.1-5.5-0.7c-2.2,1.4-4.6,2.5-3.1,5.8c6,13.3,11.9,26.7,18.4,39.8
		c1.5,3,4.7,5.7,7.8,7.4C894.8,1192.2,900.3,1188.5,901,1182.3z M865.7,1033.2c-0.1,0-0.3,0-0.4,0c0-7.3-0.2-14.7,0.1-22
		c0.1-3.8-1.9-4.7-5-5.3c-3.3-0.6-4.7,1-5.3,3.7c-1.7,8.5-3.9,16.9-4.9,25.4c-1.2,10.9-1,22,3.1,32.5c0.8,2,3.6,4.2,5.7,4.3
		c1.5,0.1,3.3-2.9,4.6-4.8c0.7-1,0.6-2.6,0.7-3.9C864.8,1053.2,865.2,1043.2,865.7,1033.2z M847.7,848c-0.3,0.1-0.6,0.1-0.9,0.2
		c2.3,12.7,4.4,25.5,7.2,38.1c1,4.8,3.4,9.4,6,13.6c1.1,1.8,4.3,3.2,6.3,3c1.2-0.1,2.5-3.7,3-5.9c0.4-1.8-0.2-4-0.7-5.9
		c-3.7-16.3-7.6-32.6-11.2-49c-0.9-4.1-2.8-4.9-6.6-4.4c-3.9,0.5-3.7,3.1-3.5,5.8C847.5,845.1,847.6,846.5,847.7,848z M871.9,855
		c-0.2,11,0.6,21.9,5.3,32.1c2.7,5.9,6.5,8.6,10,7.1c5.3-2.2,4.5-7.1,3.7-11.2c-2.8-13.3-5.9-26.6-9.3-39.8
		c-0.5-1.9-3.2-3.1-4.8-4.7c-1.6,1.8-4.2,3.4-4.6,5.5C871.4,847.6,871.9,851.4,871.9,855z M889.4,1033.9c-0.6-4.6-0.8-9-2.1-13.1
		c-0.5-1.7-3.1-3.8-4.9-3.9c-1.7-0.1-4.8,2-5.1,3.5c-1.4,9-2.5,18-3.1,27.1c-0.2,3.5,2.4,7,6.1,6.4c2.5-0.4,5.7-3.1,6.5-5.5
		C888.5,1043.8,888.7,1038.7,889.4,1033.9z M914.2,1166.4c-0.1-7.2-13.2-25.5-18.8-27.3c-1.6-0.5-4.2-0.2-5.4,0.8
		c-1.2,1-2.2,4-1.6,5.2c4.8,8.4,9.9,16.7,15.4,24.7c1,1.4,5,1.6,7.2,0.9C912.6,1170.1,913.6,1167.3,914.2,1166.4z M906.9,873.7
		c-2.2-8.5-4-16.2-6.5-23.7c-0.7-2-4.2-4.4-6.2-4.3c-1.7,0.1-4.6,3.8-4.4,5.8c0.6,8.9,1.8,17.7,3.4,26.5c0.8,3.9,4.8,5.9,8.2,3.9
		C903.9,880.4,905,876.6,906.9,873.7z"/>
	<path class="cuerpo-garfield" d="M1572.9,1708.8c-3.9-10.1-7.1-20.6-12-30.3c-9.5-19.2-24.2-33.7-43.2-43.7c-2.4-1.2-4.8-3.5-6.9,0.8
		c-1.7,3.6-1.4,5.3,2.4,7.3c39.3,20.8,58.9,66.1,47.4,109.1c-3,11.2-8.8,20.9-17.3,28.7c-21.2,19.4-46.2,29.2-75.1,28.1
		c-2.5-0.1-5-1.1-8-1.8c0.8-1.6,1.1-2.5,1.6-3.2c26.8-36.1,19.4-73.1-8.8-103.2c-2.3-2.4-4.7-4.7-7.2-7c-2.3-2.1-4.2-4.7-7.6-0.7
		c-3.1,3.6-1.4,5.3,1.3,7.6c9,7.8,16.5,17,22,27.6c10.7,20.5,10.2,41-1.2,61.1c-6.5,11.4-14.6,22-25.4,29.2
		c-7.5,5-16.9,7.7-25.9,9.9c-20.7,4.9-41.1,4.4-59.4-8.3c-14.8-10.2-23-25.2-28.2-41.9c-2.5-7.9-3.7-16.2-6-24.2
		c-0.5-1.6-3-3.5-4.7-3.7c-1.7-0.2-4.7,1.3-5.3,2.8c-10.4,24.4-29.1,38.2-54.8,42.1c-23.3,3.5-46.5,2.8-68.5-7.2
		c-14.8-6.7-27.1-16.9-37.6-29.2c-2.6-3.1-5.2-3.9-9-3.7c-27.3,1.5-54.6,2.7-81.9,4.2c-3.5,0.2-5.2-0.7-5.1-4.6
		c0.5-26.8-12-46.8-32.6-62.6c-11.9-9.1-24-18-36-27c-1.1-0.8-2-1.8-3-2.6c-13.9-9.9-16.7-24.1-15.4-39.8c0.1-1.6,1.2-3.7,2.5-4.5
		c14.3-8,24.8-20.2,34.9-32.5c26.9-32.8,49.5-68.6,71.6-104.7c35.8-58.6,68.8-118.8,100.2-179.8c2.8-5.4,6.3-9.2,11.9-11.9
		c31.6-15.4,63.5-30.3,97.7-39c9.6-2.4,19.4-5.1,29.5-2.7c5.8,1.4,7.8,3.7,7.1,9.5c-0.5,3.9-1.5,7.9-3.2,11.4
		c-27.7,57.1-54.5,114.6-78.3,173.5c-12.8,31.6-25.1,63.5-33.8,96.6c-3.4,12.7-6,25.6-5.5,38.9c0,1.2-1.7,3-3,3.5
		c-6,2.1-12,3.9-18.1,5.6c-3.2,0.9-3.7,2.6-2.6,5.6c1,3,2.1,4.3,5.7,3.3c9.4-2.7,18.9-5.4,28.5-7.2c9.1-1.7,18.5,3.5,23.1,11.7
		c2.6,4.7,1.6,7-3.6,8.2c-5.8,1.4-11.7,2.7-17.5,4c-2.9,0.6-5,1.4-4.3,5.2c0.6,3.3,1.8,5.3,5.4,4.8c5.6-0.8,11.2-1.5,16.7-2.8
		c14.5-3.6,28.7-8.3,43.3-11.1c35.9-6.9,72-13.3,108.1-19.2c47.1-7.7,92.7-1.9,135.8,19c21.8,10.6,40.2,25.5,52.5,46.9
		c9.4,16.4,12.7,33.8,7.6,52.4C1573.5,1707.8,1573.1,1708.6,1572.9,1708.8z"/>
	<path class="cuerpo-garfield" d="M1141.1,736.2c1.4-2.2,2.5-3.8,3.5-5.4c4-6.1,8.1-12.2,11.9-18.5c1.3-2.1,4.1-4.6,0.3-7.2
		c-3.4-2.3-5.6-2.2-8.8,1.1c-11.7,12.3-23.7,24.4-36.1,35.9c-7.2,6.7-15.7,11.9-25.7,13.8c-4.6,0.9-1.8,5-2.9,7.4
		c1.5,0.5,3.1,1.7,4.5,1.5c9.2-1.2,16.9-5.8,24.3-11.1c2.6-1.8,5-3.8,8.3-5c-9.7,12.8-19.5,25.7-29.4,38.9
		c-4.2-3.6-7.7-7.3-11.8-9.8c-8.1-4.9-16.4-9.4-24.9-13.5c-2.9-1.4-4.8-2.8-6.1-5.8c-6.4-16.1-16.1-29.9-29.6-40.9
		c-21.6-17.5-45.1-19.6-69.5-6.9c-23.8,12.4-41.8,30.6-52.3,55.7c-0.7,1.6-2.3,3.4-3.9,3.9c-37.7,11.9-76.1,19.1-115.9,17.8
		c-49-1.7-93.6-16.8-133.4-45.2C571.3,691.4,530.4,621.4,521,533.2c-3.6-33.8-1.7-67.4,7.6-100c4.2-14.8,11.9-28.9,19.5-42.4
		c29.2-51.6,67.3-95.9,113.6-132.9c4.3-3.4,5.4-7.2,6.2-12.2c8.8-56.6,34.2-104.6,75.3-144.4c31.5-30.4,69-50.9,110.3-64.7
		c13.4-4.5,27.1-7.9,40.6-11.8c0.2,0.4,0.4,0.9,0.6,1.3c-4.4,3.2-8.8,6.4-13.3,9.5c-19.8,13.8-40,27.2-57,44.6
		c-23.6,24.2-39.9,53-51.4,84.3c-8.2,22.3-14.5,45.3-21.7,68c-0.9,2.9-1.3,5.3,2.1,7.1c3.3,1.8,5.1,1.2,7.7-1.3
		c3.6-3.4,7.7-6.4,11.9-8.9c3.9-2.3,6.4-1.1,7.3,3.4c1.6,7.5,2.3,15-0.8,22.5c-12.6,29.7-15,60.8-10.9,92.2
		c2.7,21.1,7.8,41.8,11.8,62.7c0.3,1.6,0.6,3.1,1.1,5.3c-1.5-0.4-2.4-0.6-3.2-0.9c-36.6-14.2-69-6.6-97.4,19.4
		c-12.9,11.8-17.9,27.9-19,45c-0.5,7.9,0.1,16.1,1.9,23.7c5.8,25.1,25.6,39.4,51.2,36.8c10.7-1.1,21.1-4.5,31.6-6.9
		c1.9-0.4,3.7-1.2,6.3-2.1c0,5.6-0.1,10.5,0,15.5c0.5,26.2,7.6,50.4,23.7,71.3c21.3,27.7,49.4,44.6,83.8,51.1
		c26.6,5,53.4,7.2,80.5,4.9c64.3-5.5,119.4-30.7,164.2-77.5c1-1.1,1.8-2.4,3-4c2.1,1.7,3.4,2.8,4.8,4c17.6,14.8,35.2,29.5,52.7,44.5
		c5.4,4.6,10.3,5.3,17.1,2.1c35.2-16.1,65.1-38.4,86.1-71.4c14.2-22.4,22.3-46.9,22.6-73.6c0.1-12.4-1.2-24.8-1.8-37.3
		c-0.1-1.6-0.2-3.3-0.3-5.7c20.9,4.8,41.3,9.8,62.8,2.8c0.8,5.2,1.7,9.8,2.3,14.6c5.3,46.4,3.4,92.2-13.8,136.2
		c-18.5,47.3-51.6,81-97.3,102.5c-31.4,14.8-64.7,22.5-99,26.1C1143.4,736.6,1142.6,736.4,1141.1,736.2z M563.9,398
		c-0.3,8.1,4.9,12,10.5,8.7c5.2-3,10.2-7.2,13.8-11.9c10.9-14.7,20.6-30.3,31.6-44.9c16.6-22.1,33.9-43.6,51-65.4
		c1.8-2.3,2.9-4.1,0-6.7c-2.8-2.5-4.7-2.7-7.5-0.1c-19,17.2-38.4,33.9-57.3,51.3c-9,8.3-19,16-24.5,27.4c-5,10.3-9.8,20.8-14.4,31.3
		C565.4,391.4,564.6,395.5,563.9,398z M572.6,627.5c-5.6,5.9-6.2,11-2.2,17.4c1.4,2.2,2.7,4.6,4,6.9c17.3,32.1,39.6,59.9,69.9,80.8
		c12,8.3,24.9,14.9,38.8,19.2c2.2,0.7,6.3-0.1,7.3-1.6c1.1-1.5,0.2-5.4-1.1-7.4c-1.9-3-4.7-5.6-7.5-8c-25.7-22.7-51.7-45.1-77.2-68
		c-12.3-11-25.8-21.3-31-38.3C573.6,628.1,573,627.9,572.6,627.5z M555.8,606.5c0.6-0.3,1.1-0.6,1.7-0.9c0.2-0.9,0.6-1.9,0.6-2.8
		c0-17.3,0.4-34.6-0.2-51.9c-0.3-7.7-1.8-15.6-4.1-23c-3.2-10.4-3.9-21-3.2-31.6c1.1-15.8,2.7-31.5,4.4-47.2
		c0.4-3.6-1.2-4.7-4.1-5.4c-2.9-0.7-4.6-0.2-5.6,2.9c-9.9,29.7-16.8,59.9-15.2,91.5c0.9,18.7,4.9,36.7,14.3,53
		C547.5,596.6,551.9,601.4,555.8,606.5z M801.3,783.4c3.4-0.3,8.6-0.5,13.7-1.1c13.4-1.5,26.2-4.7,37.6-12.3c2-1.3,4.1-4.6,3.8-6.7
		c-0.3-2.1-3.2-4.7-5.5-5.4c-4.4-1.3-9.2-2-13.7-1.9c-29.3,0.7-58.5,1.8-87.8,2.5c-9.9,0.2-19.9-0.3-29.8-0.7
		c-3.1-0.1-5.9,0.1-6.6,3.7c-0.6,3.4,1.6,5.1,4.7,5.9c3.1,0.8,6.1,1.6,9.1,2.6C750.4,777.7,774.6,782.7,801.3,783.4z M600.7,406.7
		c0,0.8,0,1.7,0,2.5c0.2,4.1,1.7,7.4,5.6,9.3c3.9,1.9,6.9,0,9.4-2.5c3.1-3,6.3-6,8.6-9.6c13.1-20.2,26.2-40.5,38.8-61.1
		c4.8-7.8,8.5-16.2,12.1-24.6c0.8-1.8-0.1-5.5-1.5-6.8c-1.1-1-5.1-0.6-6.6,0.6c-19.8,16.4-38.8,33.6-53.4,55
		C606.2,380.6,602.3,393.3,600.7,406.7z M1305.1,645.1c-1.8-3-2.6-6.1-4.5-7c-1.8-0.9-4.8,0.3-7.2,0.9c-1,0.3-1.9,1.3-2.8,2.1
		c-13.9,11.2-27.5,22.7-41.7,33.4c-11,8.3-22.7,15.7-34.4,22.9c-8.2,5-17.1,9-25.5,13.6c-2.7,1.5-5.4,4.1-3.3,7.2
		c1.2,1.8,4.9,3.1,7.1,2.7c17.9-3.4,35.3-8.2,51.8-16c20-9.5,38-21.6,50.6-40.3C1299.1,658.7,1301.7,651.8,1305.1,645.1z
		 M592.9,571.2c0-0.4-0.1-1.2-0.2-2.1c-2.3-21.1-4.6-42.3-6.9-63.4c-1.5-13.6-3.2-27.1-4.5-40.7c-0.4-4.1-3.4-3.4-5.7-3.9
		c-2.7-0.6-3.9,0.9-4.3,3.5c-0.6,3.8-1.4,7.5-2.2,11.2c-2.4,11.7-6,23.3-6.8,35.2c-1,13.7-0.4,27.6,0.9,41.3
		c0.8,8.6,3.5,17.2,6.6,25.3c2.3,6,10.1,8.8,15.5,7.2C590.2,583.5,592.9,578.7,592.9,571.2z M1321.7,616.7c0.6-1.1,1.2-1.9,1.5-2.8
		c5.4-13.8,10.2-27.9,16.4-41.3c7.3-15.7,10.3-31.9,8.8-49c-0.9-9.6-1.8-19.2-3.3-28.7c-0.6-4-2.8-7.8-7.9-7.5c-4.8,0.3-7,3.9-7.6,8
		c-0.8,5.6-1,11.2-1.1,16.9c-0.2,13.1,1.3,26.5-0.7,39.4c-2.7,18-7.7,35.7-12,53.5C1313.9,613,1313.7,613,1321.7,616.7z
		 M681.8,710.4c6.4-1.1,9.4-5.2,6.6-10.4c-2.1-4.1-4.9-8.1-8.2-11.2c-16.7-15.7-33.6-31.3-50.7-46.7c-4.3-3.9-9.2-7.2-14.2-10.2
		c-1.7-1-5.6-1.1-6.7,0.1c-1.4,1.4-1.7,4.8-1.1,7c0.6,2.6,2.4,5.1,4.1,7.3c5.3,7,10.3,14.5,16.4,20.7c11.8,11.9,24,23.5,36.7,34.4
		C669.6,705.6,676.1,707.5,681.8,710.4z M633.1,426.2c0.4,0.4,0.9,0.7,1.3,1.1c6.8-5,13.5-10.1,20.4-14.9
		c6.9-4.8,11.7-10.9,14.8-18.8c5.9-15.2,12.6-30.1,18.9-45.1c1.3-3,1.4-6.1-1.8-7.9c-3.3-1.9-5.9,0.1-7.6,2.7
		c-11.7,17.4-23.7,34.6-34.8,52.3C638.3,404.9,635.3,415.5,633.1,426.2z M593.6,516.7c-1.1,12.2,2.2,23.4,7.7,34.1
		c1.8,3.5,3.5,7.6,8.4,7.4c5-0.2,7.7-3.9,9.5-7.8c1-2.1,1.1-4.9,0.7-7.3c-2.3-13.9-4.6-27.9-7.4-41.7c-1.5-7.3-3.7-14.5-6.1-21.5
		c-0.6-1.7-3.4-4.1-4.8-3.9c-1.9,0.3-3.6,2.7-4.9,4.5c-0.8,1.1-0.7,2.9-0.8,4.3C595.1,495.5,594.3,506.1,593.6,516.7z M799.4,753.4
		c4-1.1,11.7-2.5,18.8-5.3c6.5-2.6,10.1-7.9,8.7-11.4c-2.2-5.8-7.8-5.8-12.6-5.9c-11.4-0.3-22.9-0.3-34.4,0.1
		c-10.4,0.4-20.9,1.7-31.3,2.4c-3.6,0.2-4.2,2.4-4.7,5.2c-0.6,2.9,0.8,4.2,3.4,5.1C763.1,748.8,779.1,752.3,799.4,753.4z
		 M1253.3,654.8c-0.1-4.1-2.1-5.1-5.1-4.6c-2.6,0.5-5.2,1.3-7.4,2.6c-7,4.2-14,8.3-20.7,13c-11.9,8.4-23.7,17.2-35.4,25.9
		c-2.6,2-5.5,4.6-3.2,8.4c2.2,3.5,5.5,2.3,8.5,1.1c6.8-2.6,13.8-5.1,20.3-8.2c13.9-6.6,27.3-14,36.7-26.7
		C1249.6,662.9,1251.2,658.7,1253.3,654.8z M1295.4,615.8c9-4.6,14-11,16.7-19.4c5.1-15.4,5.9-31.3,4.7-47.4
		c-0.2-2.3-0.8-4.7-1.8-6.7c-2.2-4.3-7-4.6-9.5-0.5c-1.4,2.2-2.4,4.9-2.7,7.4c-2.1,15.5-4.1,31-6,46.5
		C1296.1,602.1,1295.9,608.5,1295.4,615.8z M695.3,664.1c-1.3-1.6-2.9-4.6-5.4-6.5c-14.4-10.7-29.1-21-43.7-31.5
		c-2.7-2-4.4-0.9-6.4,1.1c-2,2.1-2.6,3.9-0.6,6.5c8.7,11.3,18,22,30.1,29.6c5.5,3.5,12,5.6,18.3,7.6
		C691.9,672.2,695.4,669.4,695.3,664.1z M639.1,540.6c0.5-0.1,1-0.3,1.5-0.4c-0.8-5.2-1.4-10.4-2.4-15.6
		c-2.3-11.9-4.7-23.8-7.4-35.6c-0.8-3.4-2.4-7-6.8-6.7c-4.2,0.3-5,3.8-5.6,7.2C614.5,510.9,626.3,526,639.1,540.6z M671.6,410.9
		c-0.7,3.5,1,4.9,4.1,4.3c2.2-0.4,4.9-1,6.3-2.5c6.7-7.3,13.3-14.7,19.3-22.5c1.4-1.9,1.4-6.3,0.2-8.5c-1.9-3.4-5.9-2.3-9-0.8
		C680,387,673.8,397.5,671.6,410.9z M791,725c3.3-0.4,6.4,0.1,8.4-1.2c2.4-1.5,4.9-4.3,5.3-6.9c0.3-1.9-2.4-4.6-4.3-6.4
		c-1.2-1.1-3.4-1.6-5.1-1.5c-7.9,0.4-15.9,1-23.8,1.5c-3.5,0.2-3.6,2.6-3.8,5.2c-0.2,2.8,0.7,4.4,3.5,5
		C778,722.1,784.8,723.6,791,725z M687.5,629.8c0-0.4-0.1-1.1-0.2-1.7c-1.2-6.3-17.7-21.3-24-21.8c-4.5-0.4-7.8,4-5,7.5
		c6.1,7.5,12.9,14.6,20.2,21C682.1,637.9,687.3,634.6,687.5,629.8z M1216.8,659.2c-1.5-1.8-2.7-3.9-4.5-5.2c-0.8-0.6-2.9,0-3.9,0.6
		c-7.6,4.8-14.9,10-22.6,14.6c-4.1,2.4-3.3,5.1-1.8,8.3c1.7,3.7,4.8,2.2,6.7,0.9c8.2-5.3,16.1-11,24-16.6
		C1215.5,661.3,1215.9,660.3,1216.8,659.2z M1295.9,573.2c-0.5-3.8-0.4-7.7-5.1-8.2c-4.3-0.5-6.5,2.7-7,6.3c-1.1,7-2,14.1-2.4,21.2
		c-0.1,1.2,2.4,3,4.1,3.6c2,0.7,4.7,1.3,5.6-2.2C1292.6,587,1294.3,580.1,1295.9,573.2z"/>
	<path class="cuerpo-garfield" d="M950.9,494.3c-27.4-0.9-55.3-1.6-83.3-2.8c-12.1-0.5-24.2-1.8-36.3-3c-1.8-0.2-4-1.7-5-3.2
		c-21.2-31.6-37.1-65.5-42.8-103.4c-3-19.7-6-39.6-6.8-59.4c-1.3-31.9,7.4-61.6,24.1-88.9c4.7-7.7,9.9-15,14.3-22.9
		c11.1-19.6,28.3-30.2,49.9-33.8c30.3-5,60.2-3.1,88.5,9.5c23,10.3,40.6,27.6,56.3,47c21.7,26.7,37.8,56.8,52.8,87.5
		c7.5,15.3,15.3,30.3,22.1,45.9c10.7,24.8,13.9,51.2,14.2,78.1c0.1,10-0.1,20-0.3,30c-0.2,6.9-0.6,7.1-7.4,7.9
		c-24.8,3.1-49.4,6.9-74.3,9C995.1,493.7,973.3,493.6,950.9,494.3z"/>
	<path class="cuerpo-garfield" d="M473.2,1579.8c-2.1-11.4-4-21.3-5.8-31.2c-3.1-16.9-6.1-33.7-9.1-50.6c-0.5-3-1.4-5-5-4.8
		c-3.2,0.2-5.1,1.1-5.6,4.8c-2.5,21.6-5.3,43.2-8.7,65c-2.2-8.3-4.5-16.6-6.7-24.9c-4.3-16.4-8.6-32.8-12.8-49.3
		c-0.8-3.3-1.6-5.7-6-5.5c-4.3,0.2-4.6,2.5-4.9,5.8c-1.8,16.2-3.7,32.4-5.6,48.6c-0.3,2.1-0.6,4.3-1.7,6.5
		c-1.2-4.2-2.5-8.4-3.7-12.6c-6.2-22.1-12.3-44.3-18.4-66.4c-0.9-3.1-2.1-4.9-5.8-4.6c-3.7,0.3-4.7,2.1-4.9,5.5
		c-1.9,23.9-3.9,47.8-5.8,71.6c-0.1,1-0.4,1.9-0.8,3.9c-1.2-1.7-2-2.6-2.5-3.7c-4.6-10.7-9.1-21.4-13.7-32.2
		c-0.3-0.7-0.4-1.6-0.5-2.4c-2.1-31-2.2-62,5.9-92.3c8.3-31.1,23.1-59.2,41.6-85.3c14.3-20.2,29.1-39.7,50.2-53.6
		c30.6-20.2,64-32.4,100.1-38c30.6-4.8,61-2.6,91.6-0.4c34,2.4,68.1,3.7,102.2,5.7c2.6,0.1,5,2,7.5,3.1c-0.2,0.7-0.3,1.4-0.5,2.1
		c-7.5,0.3-15,0.6-22.5,0.9c-23,1.1-45.9,2-68.9,3.3c-4.4,0.2-9,1.1-13.1,2.7c-2.3,0.8-5.2,3.7-5.2,5.6c0,2.3,2.4,6,4.6,6.7
		c9.3,2.9,18.8,6.1,28.4,7c27.1,2.4,52-5.3,75.3-18.9c5.9-3.5,6-3.7,9.4,2.3c19.7,34.7,18.5,69.2-0.8,103.6c-1.6,2.9-3.9,3-6.6,3.1
		c-42.7,2.4-84.9,7.4-125.6,21.1c-9.7,3.3-19.2,7.8-28.1,12.8c-14.7,8.2-23.9,20.3-25.9,37.9c-2.7,24.8-6.6,49.5-5.4,74.6
		c0.9,18.9-1.7,37.5-7.7,55.6c-0.6,1.9-1.3,3.7-2.9,5.4c-1.5-10.2-3.2-20.3-4.6-30.5c-2.8-20.1-5.4-40.2-8-60.4
		c-0.3-2.5-0.8-4.4-3.9-3.6c-2.2,0.5-5.5-0.7-5.5,3.4c-0.3,21.3-6.3,41.7-10.6,62.3c-1.6,7.8-3.5,15.6-6.1,23.4
		c-1.6-8.9-3.1-17.7-4.7-26.6c-3-16.9-6.1-33.7-9-50.6c-0.5-3.1-1.2-5.3-5.2-5c-4,0.3-4.9,2.4-4.9,5.8c-0.3,29.6-5.3,58.6-11.6,87.5
		C474.4,1575.4,473.9,1576.9,473.2,1579.8z M455.8,1291.5c-3.1,0.2-5.2,0.2-7.3,0.5c-13.6,1.6-25,7.8-34.8,17.1
		c-18.5,17.6-29.4,39.6-35.9,64c-1.2,4.5-2,9.2-1.8,13.7c0.1,2.7,1.9,6.7,4,7.6c2.1,1,6.2-0.3,8.3-2c3.5-2.7,6.6-6.2,9-9.9
		c19.1-29,38-58.2,56.9-87.4C454.8,1294.4,455,1293.4,455.8,1291.5z M466.8,1291.6c3.1-0.6,4.5-0.8,5.8-1.2
		c40.3-13.3,80.6-26.6,121-39.9c3.2-1,4.6-2.3,4.1-6.1c-0.6-3.7-2.4-4.7-5.6-4.7c-2,0-4-0.1-6-0.3c-24.6-2-49-0.6-72.4,7.7
		c-16.5,5.9-30.9,15.1-40.4,30.3C470.7,1281.3,469.3,1286,466.8,1291.6z M591.1,1271.6c-7.5-3.5-14.6-5.8-22.4-6
		c-20.7-0.6-39.1,6.8-56.7,16.8c-4,2.3-7.7,5.2-11.3,8.2c-3.2,2.7-6.3,6.1-4.1,10.8c2.2,4.6,6.6,3.8,10.6,3.2
		c3.3-0.5,6.6-1.1,9.7-2.3c23.7-9.4,47.3-18.9,70.9-28.4C588.8,1273.4,589.6,1272.6,591.1,1271.6z M407.8,1386.3
		c1.4,1.8,2.8,5.4,5.2,6.5c2.3,0.9,6.4,0,8.5-1.7c3.3-2.6,6.3-6.2,8.1-9.9c8.6-17.8,16.8-35.8,25.1-53.7c1.5-3.2,0.3-4.5-3.1-4.8
		c-4.9-0.5-8.4,1.9-11.4,5.1c-13.6,14.5-23.8,31.1-30.6,49.8C408.9,1379.9,408.7,1382.4,407.8,1386.3z M733.7,1266.5
		c-11.7,1.2-23.5,1.9-35.2,3.6c-6.7,1-13.4,2.8-19.5,5.5c-6.3,2.7-6.6,9.7-0.8,13.5c2.6,1.7,6.1,3.1,9.2,3.2
		c19.9,0.9,37.1-7.9,54.3-16.2c0.9-0.4,1.5-2.4,1.4-3.7C742.8,1265.8,738,1266.6,733.7,1266.5z M748.3,1294.1
		c-2.3-0.6-3.5-1.2-4.8-1.3c-12.6-0.4-25.2-1-37.8-1c-4.2,0-8.7,1-12.6,2.5c-6.5,2.5-7.4,9.5-1.9,13.9c1.9,1.5,4.4,2.8,6.7,2.9
		c4.6,0.2,9.3,0.1,13.8-0.9C724.5,1307.4,736.1,1301.5,748.3,1294.1z M445.2,1397.4c8.6-18.7,16.7-36.4,25.2-54.9
		C440.6,1350.3,431.2,1374.7,445.2,1397.4z M573.8,1297c-4.9-5.1-7.9-6.1-13.7-4.9c-11.2,2.4-21.4,7.2-30.8,13.6
		c-6.2,4.2-8.1,7.9-6.1,11.6c1.9,3.5,6.7,4.7,13.1,1.5c12.1-6.2,23.8-13.2,35.6-19.9C572.5,1298.5,573,1297.8,573.8,1297z"/>
	<path class="cuerpo-garfield" d="M991.8,199c9-9.1,19.6-17.2,31.3-24c14.5-8.3,30.2-13.5,47-13.5c17.9,0,34.3,5.9,49.4,15.3
		c15.8,9.9,29.3,22.5,41.3,36.8c39,46.8,66.9,99.3,81.1,158.7c5.7,23.8,7.6,48,4.1,72.4c-0.6,3.9-2,6-5.9,7.4
		c-25.4,9.4-50.8,19.2-77.7,23.8c-16.4,2.8-33,3.9-49.6,5.5c-5.9,0.5-5.8-0.1-5.4-6.2c2.1-35.8,0.9-71.4-11.8-105.4
		c-6.3-16.6-14.9-32.3-22.6-48.4c-13.8-28.7-28.3-57.1-47.7-82.5C1015.1,225.3,1003.4,212.7,991.8,199z"/>
	<path class="cuerpo-garfield" d="M1328.9,979.8c5.7-15.1,11.8-28.9,16.2-43.4c9.4-30.8,10.8-62.6,8.5-94.5c-0.6-8.8-1.8-17.6-2.4-26.4
		c-0.1-2.3,0.3-5.3,1.7-6.8c22.1-23.7,46.4-44.7,76.9-56.8c9.1-3.6,19.2-5.9,29-6.6c25.8-1.8,44.4,11.4,58.8,31.5
		c14.4,20,21.9,42.9,26.6,66.8c5.5,28.2,6.8,56.6,1.2,84.9c-4.7,23.9-14.5,45.1-36.2,58.5c-13.8,8.6-29.2,12.9-45.2,14.7
		c-40.1,4.4-78.4-4.4-116.4-15.6C1341.1,984.1,1334.8,981.8,1328.9,979.8z"/>
	<path class="st1" d="M761,489.4c-1.9,9.5-3.7,18.5-5.7,27.4c-0.3,1.4-1.4,3.2-2.7,3.7c-12.9,5.7-26.1,10.2-40.3,10.4
		c-23,0.3-38.4-12.8-41.2-35.6c-5-40.8,17.4-68.3,57.7-77.2c18.2-4,35.9-2.1,52,7.9c3.1,1.9,6,5.3,7.6,8.7
		c19.1,41.3,42.5,79.7,76.8,110.4c19.9,17.8,42.4,30.9,69.3,34.2c15.2,1.9,30.5,2.9,45.8,3.2c18.3,0.2,35.7-3.8,51.2-14.9
		c7.8,18,23.7,21.1,40.4,22.4c8.6,0.6,17.3,0.1,26.2,0.1c-0.8,1-1.8,2.3-3,3.5c-42.5,42.2-93.6,65.6-153.2,70.6
		c-31.3,2.6-62.6,1.3-92.7-7.7c-46.9-14-83.9-50.1-87.2-105.1c-1.4-22.5,1.8-44.2,9.7-65.2c2-5.3,1.5-8.4-3.3-10.7
		c-4.7,2.5-9.2,5.4-14.1,7.3c-8.7,3.4-13.8-0.8-11.4-9.9c1.7-6.3,5.2-12,8.2-18.6c-1-0.9-2.7-2.4-4.4-3.9c-8.9,6-14.7,23-11.3,32.6
		c2.5,7,9.3,10.4,17.5,8.7C755.5,491.2,758.2,490.2,761,489.4z M748,431c0.1-4.6-3.8-8.6-8.4-8.7c-4.6-0.1-8.5,3.8-8.5,8.5
		c0,4.6,3.5,8.2,8.1,8.4C744,439.3,747.9,435.8,748,431z M708.7,463c-0.1-4.8-3.8-8.3-8.7-8.2c-4.8,0.1-8.3,3.9-8.2,8.8
		c0.2,4.6,3.8,8,8.4,8C705.1,471.5,708.8,467.8,708.7,463z M700.8,504.9c4.3,0,7.9-3.5,7.9-7.9c0.1-4.4-3.4-8-7.7-8.1
		c-4.5-0.1-8.3,3.6-8.2,8.1C692.9,501.4,696.5,504.9,700.8,504.9z"/>
	<path class="st2" d="M1182.3,1258.3c-4.9,9.8-9.2,18.7-13.7,27.6c-3.8,7.6-7.6,15.2-11.6,22.7c-40.8,77.9-83.3,154.9-132.5,227.9
		c-14.6,21.7-29.8,43-48.6,61.4c-3.1,3-6.5,5.7-9.8,8.5c-1,0.8-2.2,1.4-4.1,2.7c0.2-2.6,0.3-4.5,0.5-6.4
		c5.9-47.9,17.5-94.6,29.6-141.2c15.7-60.1,33.5-119.6,53.3-178.4c1.7-5.2,3.8-7,9.8-7.7c30.3-3.1,60.5-7.1,90.7-11.1
		C1157.6,1262.7,1169.4,1260.5,1182.3,1258.3z"/>
	<path class="st1" d="M1282.8,435.6c11.7-1.3,20-8.7,21.4-17.9c1.5-9.7-5.3-19.1-17.8-24.3c-1,2.1-2,4.3-3.1,6.5
		c3.2,2.5,6.4,4.6,9.1,7.2c6.2,6.1,4,16-4,19.3c-3.7,1.5-5.9-0.9-7.3-3.5c-2-3.4-4.2-2.8-7-1.6c-3.5,1.4-1.9,3.7-1.2,5.8
		c9.6,30.1,13.8,60.7,7.4,92.1c-7.7,37.9-29,67.1-59.1,90.3c-13.1,10.1-27.3,18.5-42.7,24.7c-1.8,0.7-4.9,0.8-6.2-0.3
		c-18.6-15.4-37-31-55.4-46.6c-0.3-0.3-0.4-0.8-0.7-1.4c15.6-5.9,34.2-8.3,35-31.1c8.3-3.1,17.2-6,25.7-9.8
		c35.6-15.6,61.5-40.5,73.3-78.4c7.4-23.8,7.9-48.2,4.5-72.7c-0.8-5.7,0.1-10.1,3.4-14.8c17.8-25.2,39.5-30.3,66.2-14.7
		c6.4,3.8,12.3,8.5,18.3,12.9c1,0.8,2.1,1.8,2.7,2.9c7.2,13.4,13.4,27.2,15,42.6c1.8,17.2-6.2,27.2-23.4,28.7
		c-16.7,1.5-32.8-2.3-48.6-7.3C1286,443.6,1284.9,439.1,1282.8,435.6z M1303.6,373.9c0-4.7-3.5-8.3-8.1-8.4
		c-4.8-0.1-8.6,3.7-8.6,8.5c0.1,4.9,3.8,8.5,8.7,8.3C1300.2,382.2,1303.6,378.6,1303.6,373.9z M1328.1,432.2c-3.8,0-7,3.2-6.9,7
		c0,3.8,3.3,7,7,6.9c3.8-0.1,7-3.3,7-7C1335,435.3,1331.9,432.2,1328.1,432.2z M1330,396c-3.9,0-7,3.1-6.9,7c0,3.8,3.3,6.9,7.1,6.9
		c3.8-0.1,6.9-3.2,6.9-7C1337,398.9,1333.9,395.9,1330,396z"/>
	<path class="cuerpo-garfield" d="M790.5,232.1c-4.9-12.6-10.3-17.1-27.2-8.7c1.1-3.8,1.9-7.1,2.9-10.4c9.4-31.7,20.2-62.8,37.8-91
		c6.3-10,13.9-19.1,20.8-28.7c2.1-2.9,4.6-3.5,8-1.1c-1.4,3.3-2.7,6.7-4.2,10c-10.9,24.5-21.9,48.9-32.9,73.4
		c-1.3,2.8-3.2,5.3,1.2,7.9c4,2.4,5.6,0.5,7.7-2.2c17.7-22.1,35.4-44.2,53.1-66.3c1.2-1.6,2.5-3.1,4.8-5.9
		c-0.8,7.5-1.5,13.6-2.2,19.7c-0.2,2.1-0.3,4.3-0.8,6.4c-0.8,3.1,0.5,4.5,3.2,5.7c3,1.2,4.8,0.7,6.7-1.9
		c12.9-17.8,25.9-35.6,38.8-53.3c1.2-1.6,2.3-3.2,4-5.3c0.6,1.4,1.3,2.2,1.3,3c-0.5,12.9-1,25.9-1.7,38.8c-0.1,2.1-1,4.2-1.7,6.2
		c-2.7,7.2-2.7,7.2,5.1,11.3c11.3-23.6,22.6-47.3,34.4-72c1.1,7.9,2.3,14.8,3,21.7c1.7,16.9,3.2,33.8,4.7,50.7c0.3,3.3,0.4,6.7,0,10
		c-0.4,3.6,1.3,4.6,4.5,5.1c3.3,0.5,4.5-0.8,4.8-4c1.6-15.9,3.4-31.8,4.8-47.7c1.4-16.2,2.5-32.5,3.8-50.4c3.1,4.1,6.6,7.1,8.1,10.9
		c6.1,15,7.6,30.9,7.7,47c0.3,27.1-3.7,53.7-9.8,80.5c-1.3-0.5-2.4-0.7-3.2-1.3c-24.2-18-52-23.7-81.4-24.5
		c-18.3-0.6-36.2,1.1-53.3,8.2c-13.3,5.5-24.2,13.9-32,26.1C804.5,210.5,797.6,221.1,790.5,232.1z"/>
	<path class="st2" d="M1097.9,491.7c-1.6,10.1-3.1,19.7-5,29.3c-0.2,1.1-2.8,2.2-4.5,2.6c-9.7,2.2-19.7,3.4-29.1,6.6
		c-12.2,4.1-21.9,11.9-26.8,24.5c-0.8,2-2.8,3.7-4.6,5.1c-11,9-24,13.2-37.8,13.9c-12.6,0.7-25.2-0.2-37.8-0.8
		c-13.7-0.7-27.2-2.3-40.1-7.5c-24.9-10.1-44.6-26.9-62-46.8c-5.5-6.4-10.7-13.1-16.9-20.9c7.9,0.5,14.3,1.1,20.7,1.4
		c22.1,1,44.2,2,66.4,2.8c3.7,0.1,6.5,1.2,9.4,3.5c17.3,14.2,39.7,17.8,56.5,6c12-8.4,24.6-9.6,37.8-11.1
		c23.5-2.8,46.9-5.6,70.4-8.3C1095.3,491.9,1096.1,491.8,1097.9,491.7z"/>
	<path class="cuerpo-garfield" d="M1175,831.5c-1.9,8.1-2.6,15.2-5.2,21.5c-6.5,15.5-12.9,31.1-21,45.7c-9.6,17.4-24.7,27.7-45.5,27.4
		c-24.5-0.3-40.6-15.3-43-39.7c-1.7-16.3-0.6-32.7,5.2-47.8c8.7-22.4,21.9-41.8,47-48.8c23-6.4,47.4,9.1,56,23.3
		C1171.8,818.9,1173,825.8,1175,831.5z"/>
	<path class="cuerpo-garfield" d="M1083,793.6c-7.3,10.3-14.5,19.8-21,29.8c-8.6,13.3-10.1,28.8-11.2,44.1c-0.6,7.9,0.7,15.9,0.7,23.9
		c0,1.9-1.2,4.3-2.6,5.6c-2.1,2-5,3.3-7.4,5.1c-15.8,11.6-33.2,13.6-51.8,8.4c-17.2-4.8-25.2-14.3-27.4-32.1
		c-2.2-17.9-0.1-35.5,5.5-52.2c2.9-8.7,9.1-16.7,15.2-23.8c7.2-8.4,15.2-16.5,24.2-22.9c16.4-11.6,34.4-12.2,52.5-3.2
		C1068.8,780.8,1076.9,786.8,1083,793.6z"/>
	<path class="cuerpo-garfield" d="M1038.8,760.6c-31.5,0.5-50.8,19-67.8,41.4c-8.7,11.5-14.8,23.9-16.5,38.4c-0.2,1.7-2.4,4.2-4.1,4.4
		c-17.7,3.1-35.5-4.9-44.5-19.3c-4.1-6.6-5.1-15.9-5.4-24c-1.4-32.5,14.7-56,39.7-74.6c11.8-8.8,24.8-15.1,40-14.8
		c18.7,0.3,32.3,10.1,43.8,23.7C1030,743,1035.3,750.8,1038.8,760.6z"/>
	<path class="cuerpo-garfield" d="M1171.8,98.6c-6.6,15.6-13.2,31.3-20,46.8c-1.4,3.2-0.9,5.1,2.1,6.9c3,1.8,4.7,1.2,6.7-1.3
		c10.2-12.3,20.6-24.5,30.9-36.7c1-1.2,2.1-2.4,4.4-3.1c-0.8,6.7-1.3,13.3-2.4,19.9c-2.1,12.1-4.4,24.2-6.8,36.3
		c-0.4,2.3-1,4.7-2.2,6.6c-2.7,4.5,1,6.1,3.5,7.7c0.7,0.4,3.8-1.6,4.8-3.2c14.6-23.1,28.8-46.4,38.9-72c0.9-2.3,1.8-4.6,2.8-7.3
		c3.5,1.9,5.3,3.8,4.7,8.3c-3,21.1-11,40.4-20.9,59c-10.9,20.4-22.3,40.5-33.8,61.4c-1.7-2-3.2-3.7-4.5-5.5
		c-14.3-18.6-29.8-35.9-49.3-49.3c-20-13.8-41.8-22-66.5-20.4c-19.6,1.3-37.2,8.4-53.5,19.1c-1.7,1.1-3.3,2.2-5,3.3
		c-0.1,0.1-0.3,0.1-1.1,0.2c0.7-1.2,1-2.1,1.7-2.9c22.4-27.9,47.1-53.5,74.8-76.2c3.7-3.1,3.8-3.1,7.8-0.8
		c-9.9,12.6-19.7,25.2-29.6,37.7c-2.2,2.7-2.4,4.5,0.1,7.2c2.6,2.8,4.6,2.3,7.2,0.4c18.7-13,37.5-26,56.3-38.9
		c3.2-2.2,6.5-4.5,10.5-6.1c-3.1,6.5-6.2,13.1-9.3,19.6c-2.1,4.4-4,8.8-6.2,13.1c-1.7,3.2-1.4,5.3,1.6,7.6c3.2,2.5,5,0.9,7.2-1
		c13.5-11.6,27.2-23.1,40.8-34.6c1.1-0.9,2.3-1.7,3.4-2.6C1171.2,98,1171.5,98.3,1171.8,98.6z"/>
	<path class="cuerpo-garfield" d="M1150.6,44.2c-11.8,5.8-24.9,11.2-37,18.2c-34.3,19.7-62.9,46.3-89.6,75.1c-8.9,9.6-17.2,19.9-25.7,29.9
		c-0.7,0.8-1.5,1.6-3.1,3.5c1.2-9.1,2.3-16.9,3.3-24.7c2.3-19.1,2.9-38.2,0.5-57.3c-0.6-4.3,0.9-6.3,4.2-8.3
		c26.1-16.5,54.6-26.7,84.8-32.3c19.9-3.7,40-4.8,60.2-4.3C1149.3,44.1,1150.5,44.2,1150.6,44.2z"/>
	<path class="st2" d="M1243.5,460.3c-0.8,2.8-1.3,4.7-1.9,6.5c-9.9,29.6-29.3,51.2-56.8,65.4c-11,5.7-23,9.6-34.6,14
		c-1.3,0.5-3.9,0.1-4.7-0.8c-11.2-13-25.9-18.8-42.2-21.4c-0.6-0.1-1.2-0.3-2.4-0.6c1.1-6.8,2.2-13.4,3.3-20.1
		c0.6-0.2,1.1-0.6,1.5-0.5c19.2,3.8,35.4-4,50.6-14c3.7-2.5,7.3-3.6,11.3-4.8c23.2-7.1,46.4-14.3,69.5-21.4
		C1238.9,461.8,1240.7,461.2,1243.5,460.3z"/>
	<path class="st3" d="M1081.3,583.2c-9.6-1.7-17.8-2.8-25.9-4.6c-3-0.7-5.9-2.4-8.4-4.2c-8.2-5.8-9.8-14.5-3.7-22.6
		c2.8-3.8,6.4-7.5,10.5-9.7c24.6-13.3,49.7-15.3,74.6-0.8c4.2,2.4,8,6.1,11.1,9.8c4.9,6,4.1,12-2.2,16.4c-4.7,3.3-10,6.4-15.5,7.7
		C1108.1,578.5,1094.1,580.7,1081.3,583.2z"/>
	<path class="cuerpo-garfield" d="M1215.6,731.4c-21.8,21.5-31.4,48.6-37.7,78.1c-18-22.6-40.1-33.8-70.2-28.5c4.4-5.8,7.8-10.4,11.3-15
		c4.6-6.1,8-14.2,14-17.9c5.8-3.5,14.5-2,21.8-3.5c19.4-3.9,38.7-8.3,58-12.5C1213.8,731.9,1214.7,731.6,1215.6,731.4z"/>
	<path class="cuerpo-garfield" d="M1308.1,348.2c-24.7-4.9-42,5.3-55.8,23.9c-5.6-17.9-11.1-35.3-16.5-52.8c0.1-0.1,0.3-0.3,0.4-0.4
		c4.1,5.5,8.3,10.9,12.1,16.5c2,2.9,3.5,3.9,6.7,1.6c3.1-2.2,3.4-4,1.1-6.8c-7.9-9.7-14.7-20.6-23.9-28.7
		c-7.1-6.3-11.2-13.6-15.6-21.3c-6.8-12-13.7-24-20.2-36.7c11.5,8,22.9,15.9,33.7,23.5c-2.7,2.3-6.5,3.9-7.3,6.4
		c-1,3.5-0.7,7.9,0.7,11.4c1.7,4.2,4.5,8.2,7.7,11.6c10,10.7,20.3,21.1,30.5,31.6c2.3,2.3,5.1,4.4,8.2,1.4c2.8-2.8,0.9-5.2-0.9-7.9
		c-2-2.8-3.4-6.1-4.7-9.3c-3.3-8.2-6.4-16.4-9.9-25.7C1275.2,305,1295.2,322.7,1308.1,348.2z"/>
	<path d="M750.8,1051.3c1.3-15.8,4.9-30.7,10.2-45.1c5.6-14.9,12.2-29.5,18.2-44.2c1.2-3,2.9-4,6.2-3c3,0.9,4.5,2.2,3.9,5.6
		c-5.3,32.1-10.4,64.3-15.7,96.4c-0.5,2.9-1.6,5.8-2.8,8.5c-3.3,7-11.2,7.8-14.7,0.7C753.3,1064.4,752.5,1057.7,750.8,1051.3z"/>
	<path d="M815.5,1215.2c-2.3-1.5-6.7-3.2-9.5-6.4c-6.3-7.1-12.4-14.4-17.3-22.4c-13.4-21.8-22.6-45.6-31.5-69.4
		c-1.2-3.3,0.4-4.4,2.9-5.7c2.6-1.3,4.3-1.7,6.1,1.3c18.3,29.8,36.7,59.5,55.1,89.2c1.1,1.8,2,3.9,2.5,6
		C824.8,1211.8,821.8,1215.3,815.5,1215.2z"/>
	<path d="M814,974.6c-0.9,11.7-1.5,23.5-2.8,35.2c-2,17.2-4.6,34.3-7,51.4c-0.3,2.4-1,5.1-2.4,7c-1.6,2-4.2,4.6-6.3,4.5
		c-2.1-0.1-4.9-2.7-6-4.9c-1.5-3-2.2-6.7-2.4-10.1c-1.3-22.9,1.8-45.2,12.5-65.8c3.4-6.5,8.3-12.1,12.5-18.2
		C812.7,973.9,813.4,974.3,814,974.6z"/>
	<path d="M857.9,1207.9c-6.2,3.9-12.1,2.8-18-0.2c-7.8-4.1-13.1-10.7-17.6-18c-10.5-16.9-16.3-35.6-21.4-54.6c-0.8-3,0.5-4.3,3-5.2
		c2.2-0.8,4.2-2.1,6,0.8c15.8,25.1,31.6,50.1,47.3,75.2C857.6,1206.3,857.6,1207,857.9,1207.9z"/>
	<path d="M813.7,1066.8c2.3-23.1,6.9-45.6,14.9-67.4c0.6-1.6,1.8-3.4,3.2-4.2c1.8-1,4.1-1.3,6.1-1.1c0.5,0.1,1.1,3.2,1,4.9
		c-1.2,21.1-2.1,42.2-7.6,62.7c-1.1,4-2.8,7.8-4.7,11.5c-1.6,2.9-4,5.7-8,4.6c-4.1-1.1-4.8-4.7-4.9-8.3
		C813.6,1068.4,813.7,1067.6,813.7,1066.8z"/>
	<path d="M820.7,843.3c0-1.8,0.1-3.7,0-5.5c-0.3-3.4,0.4-5.6,4.5-6.2c3.9-0.6,5.1,1.3,5.7,4.4c3.9,17.2,7.8,34.3,11.5,51.5
		c0.7,3,0.4,6.3,0.2,9.4c-0.2,4.4-1.4,8.6-6.5,9.4c-5.2,0.8-7.6-3-8.6-7.3c-1.8-7.9-3.6-15.9-4.5-23.9c-1.2-10.6-1.7-21.2-2.4-31.8
		C820.7,843.3,820.7,843.3,820.7,843.3z"/>
	<path d="M881,1198.6c-9.3,0.7-16.1-2.2-22-7.7c-8.8-8.1-14.2-18.4-18.5-29.3c-2.7-6.8-4.6-13.9-6.9-20.8c-1-3.1-1.2-5.5,2.7-7.2
		c3.8-1.6,5.3,0,7.1,2.9c11.7,19.2,23.6,38.3,35.3,57.4C879.6,1195.2,880.1,1196.7,881,1198.6z"/>
	<path d="M901,1182.3c-0.6,6.3-6.2,9.9-11.7,7c-3.1-1.7-6.3-4.3-7.8-7.4c-6.5-13.1-12.3-26.5-18.4-39.8c-1.5-3.2,1-4.3,3.1-5.8
		c2.2-1.5,3.9-1.6,5.5,0.7c8.7,12.2,17.5,24.3,26,36.6C899.5,1176,899.9,1179.4,901,1182.3z"/>
	<path d="M865.7,1033.2c-0.5,10-0.9,19.9-1.4,29.9c-0.1,1.3,0,2.9-0.7,3.9c-1.3,1.9-3.2,4.9-4.6,4.8c-2-0.1-4.9-2.3-5.7-4.3
		c-4.1-10.5-4.4-21.5-3.1-32.5c1-8.6,3.2-17,4.9-25.4c0.6-2.8,1.9-4.3,5.3-3.7c3.2,0.6,5.1,1.5,5,5.3c-0.2,7.3-0.1,14.6-0.1,22
		C865.4,1033.2,865.5,1033.2,865.7,1033.2z"/>
	<path d="M847.7,848c-0.1-1.5-0.2-3-0.4-4.5c-0.2-2.8-0.4-5.3,3.5-5.8c3.8-0.5,5.7,0.3,6.6,4.4c3.5,16.4,7.4,32.7,11.2,49
		c0.4,1.9,1.1,4,0.7,5.9c-0.5,2.2-1.8,5.7-3,5.9c-2,0.2-5.3-1.3-6.3-3c-2.6-4.2-4.9-8.8-6-13.6c-2.8-12.6-4.8-25.4-7.2-38.1
		C847.1,848.1,847.4,848.1,847.7,848z"/>
	<path d="M871.9,855c0-3.7-0.6-7.4,0.2-10.9c0.5-2.1,3-3.7,4.6-5.5c1.7,1.5,4.4,2.8,4.8,4.7c3.4,13.2,6.5,26.5,9.3,39.8
		c0.9,4.1,1.6,9-3.7,11.2c-3.5,1.4-7.3-1.2-10-7.1C872.6,877,871.8,866.1,871.9,855z"/>
	<path d="M889.4,1033.9c-0.7,4.7-0.9,9.9-2.5,14.5c-0.8,2.4-4,5.2-6.5,5.5c-3.7,0.6-6.3-2.9-6.1-6.4c0.6-9.1,1.7-18.1,3.1-27.1
		c0.2-1.5,3.4-3.6,5.1-3.5c1.7,0.1,4.4,2.2,4.9,3.9C888.5,1024.9,888.7,1029.3,889.4,1033.9z"/>
	<path d="M914.2,1166.4c-0.6,0.9-1.6,3.7-3.2,4.2c-2.2,0.7-6.2,0.5-7.2-0.9c-5.6-7.9-10.6-16.2-15.4-24.7c-0.6-1.1,0.4-4.1,1.6-5.2
		c1.2-1,3.8-1.3,5.4-0.8C901,1140.8,914.1,1159.2,914.2,1166.4z"/>
	<path d="M906.9,873.7c-1.9,2.9-3,6.7-5.5,8.2c-3.4,2-7.4,0-8.2-3.9c-1.7-8.7-2.8-17.6-3.4-26.5c-0.1-1.9,2.7-5.6,4.4-5.8
		c2-0.2,5.5,2.2,6.2,4.3C902.9,857.4,904.6,865.2,906.9,873.7z"/>
	<path d="M563.9,398c0.7-2.4,1.5-6.6,3.2-10.4c4.6-10.5,9.4-20.9,14.4-31.3c5.5-11.4,15.5-19.1,24.5-27.4
		c18.8-17.4,38.2-34.2,57.3-51.3c2.9-2.6,4.7-2.4,7.5,0.1c2.9,2.6,1.8,4.4,0,6.7c-17.1,21.8-34.4,43.3-51,65.4
		c-11,14.6-20.7,30.2-31.6,44.9c-3.5,4.8-8.6,8.9-13.8,11.9C568.8,410,563.6,406.1,563.9,398z"/>
	<path d="M572.6,627.5c0.4,0.3,0.9,0.6,1,1c5.2,16.9,18.7,27.2,31,38.3c25.5,22.9,51.5,45.3,77.2,68c2.7,2.4,5.6,5,7.5,8
		c1.3,2.1,2.2,5.9,1.1,7.4c-1.1,1.6-5.1,2.3-7.3,1.6c-13.9-4.3-26.8-10.9-38.8-19.2c-30.3-20.9-52.6-48.7-69.9-80.8
		c-1.3-2.3-2.6-4.7-4-6.9C566.4,638.6,567,633.5,572.6,627.5z"/>
	<path d="M555.8,606.5c-3.8-5.1-8.2-9.9-11.4-15.3c-9.4-16.3-13.3-34.3-14.3-53c-1.6-31.6,5.3-61.8,15.2-91.5c1-3.1,2.7-3.6,5.6-2.9
		c3,0.7,4.5,1.8,4.1,5.4c-1.7,15.7-3.3,31.4-4.4,47.2c-0.7,10.6,0,21.2,3.2,31.6c2.2,7.4,3.8,15.3,4.1,23
		c0.6,17.3,0.2,34.6,0.2,51.9c0,0.9-0.4,1.9-0.6,2.8C556.9,605.9,556.3,606.2,555.8,606.5z"/>
	<path d="M801.3,783.4c-26.7-0.7-50.9-5.7-74.5-13.4c-3-1-6.1-1.8-9.1-2.6c-3.1-0.8-5.3-2.5-4.7-5.9c0.6-3.6,3.4-3.8,6.6-3.7
		c9.9,0.4,19.9,0.9,29.8,0.7c29.3-0.7,58.5-1.8,87.8-2.5c4.6-0.1,9.4,0.6,13.7,1.9c2.3,0.7,5.2,3.3,5.5,5.4c0.3,2.1-1.8,5.4-3.8,6.7
		c-11.3,7.6-24.2,10.8-37.6,12.3C809.9,782.9,804.7,783.1,801.3,783.4z"/>
	<path d="M600.7,406.7c1.6-13.4,5.5-26.2,13.1-37.3c14.6-21.4,33.6-38.6,53.4-55c1.5-1.2,5.5-1.7,6.6-0.6c1.5,1.4,2.3,5,1.5,6.8
		c-3.6,8.4-7.3,16.8-12.1,24.6c-12.6,20.6-25.7,40.8-38.8,61.1c-2.3,3.6-5.6,6.6-8.6,9.6c-2.6,2.5-5.6,4.4-9.4,2.5
		c-3.9-1.9-5.4-5.2-5.6-9.3C600.6,408.4,600.7,407.6,600.7,406.7z"/>
	<path d="M1305.1,645.1c-3.4,6.7-6,13.6-10,19.6c-12.6,18.7-30.6,30.7-50.6,40.3c-16.5,7.8-34,12.6-51.8,16c-2.2,0.4-5.9-1-7.1-2.7
		c-2.1-3.1,0.5-5.7,3.3-7.2c8.5-4.6,17.3-8.6,25.5-13.6c11.7-7.2,23.4-14.7,34.4-22.9c14.3-10.7,27.9-22.2,41.7-33.4
		c0.9-0.7,1.8-1.8,2.8-2.1c2.4-0.6,5.4-1.8,7.2-0.9C1302.4,638.9,1303.3,642,1305.1,645.1z"/>
	<path d="M592.9,571.2c0,7.5-2.7,12.3-7.5,13.7c-5.4,1.6-13.2-1.2-15.5-7.2c-3.1-8.1-5.8-16.7-6.6-25.3c-1.3-13.7-1.9-27.6-0.9-41.3
		c0.9-11.8,4.5-23.5,6.8-35.2c0.8-3.7,1.6-7.5,2.2-11.2c0.4-2.6,1.6-4.1,4.3-3.5c2.4,0.5,5.3-0.2,5.7,3.9c1.3,13.6,3,27.1,4.5,40.7
		c2.3,21.1,4.6,42.3,6.9,63.4C592.9,570,592.9,570.8,592.9,571.2z"/>
	<path d="M1321.7,616.7c-8-3.8-7.8-3.7-5.9-11.5c4.2-17.8,9.3-35.5,12-53.5c1.9-12.9,0.4-26.2,0.7-39.4c0.1-5.6,0.3-11.3,1.1-16.9
		c0.6-4.1,2.8-7.7,7.6-8c5.1-0.3,7.3,3.5,7.9,7.5c1.5,9.5,2.5,19.1,3.3,28.7c1.5,17.1-1.5,33.3-8.8,49c-6.2,13.4-11,27.5-16.4,41.3
		C1322.8,614.9,1322.3,615.7,1321.7,616.7z"/>
	<path d="M681.8,710.4c-5.7-2.9-12.3-4.8-17-8.8c-12.7-10.9-24.9-22.5-36.7-34.4c-6.2-6.2-11.1-13.7-16.4-20.7
		c-1.7-2.2-3.5-4.7-4.1-7.3c-0.5-2.2-0.3-5.6,1.1-7c1.1-1.2,5-1.1,6.7-0.1c5,3,9.9,6.3,14.2,10.2c17,15.4,33.9,30.9,50.7,46.7
		c3.3,3.1,6.1,7.1,8.2,11.2C691.2,705.2,688.2,709.3,681.8,710.4z"/>
	<path d="M633.1,426.2c2.2-10.7,5.2-21.4,11.1-30.6c11.2-17.7,23.1-35,34.8-52.3c1.8-2.6,4.4-4.6,7.6-2.7c3.2,1.8,3.1,4.9,1.8,7.9
		c-6.3,15-12.9,29.9-18.9,45.1c-3.1,7.9-7.9,14-14.8,18.8c-6.9,4.8-13.6,9.9-20.4,14.9C633.9,427,633.5,426.6,633.1,426.2z"/>
	<path d="M593.6,516.7c0.7-10.6,1.4-21.2,2.2-31.8c0.1-1.5,0.1-3.2,0.8-4.3c1.3-1.8,3.1-4.2,4.9-4.5c1.4-0.2,4.2,2.1,4.8,3.9
		c2.4,7.1,4.7,14.2,6.1,21.5c2.8,13.8,5.1,27.8,7.4,41.7c0.4,2.3,0.3,5.2-0.7,7.3c-1.8,3.9-4.5,7.6-9.5,7.8
		c-4.9,0.2-6.6-3.8-8.4-7.4C595.8,540.1,592.5,528.9,593.6,516.7z"/>
	<path d="M799.4,753.4c-20.3-1.1-36.4-4.6-52-9.9c-2.6-0.9-4-2.1-3.4-5.1c0.5-2.7,1.1-5,4.7-5.2c10.4-0.6,20.9-2,31.3-2.4
		c11.4-0.4,22.9-0.4,34.4-0.1c4.9,0.1,10.4,0.1,12.6,5.9c1.3,3.4-2.2,8.8-8.7,11.4C811.1,750.9,803.4,752.3,799.4,753.4z"/>
	<path d="M1253.3,654.8c-2.1,3.9-3.7,8.1-6.2,11.7c-9.4,12.7-22.8,20.1-36.7,26.7c-6.6,3.1-13.5,5.5-20.3,8.2
		c-3,1.2-6.3,2.4-8.5-1.1c-2.3-3.8,0.6-6.4,3.2-8.4c11.7-8.8,23.4-17.5,35.4-25.9c6.6-4.7,13.7-8.9,20.7-13c2.2-1.3,4.9-2.1,7.4-2.6
		C1251.1,649.6,1253.2,650.7,1253.3,654.8z"/>
	<path d="M1295.4,615.8c0.5-7.3,0.7-13.7,1.4-20.1c1.8-15.5,3.8-31,6-46.5c0.4-2.6,1.4-5.2,2.7-7.4c2.5-4.1,7.4-3.8,9.5,0.5
		c1,2,1.7,4.4,1.8,6.7c1.1,16.1,0.3,31.9-4.7,47.4C1309.4,604.8,1304.4,611.3,1295.4,615.8z"/>
	<path d="M695.3,664.1c0.1,5.3-3.4,8.2-7.7,6.8c-6.3-2-12.8-4.1-18.3-7.6c-12.1-7.6-21.4-18.4-30.1-29.6c-2-2.6-1.4-4.4,0.6-6.5
		c1.9-2,3.6-3.1,6.4-1.1c14.5,10.5,29.2,20.9,43.7,31.5C692.4,659.4,694,662.5,695.3,664.1z"/>
	<path d="M639.1,540.6c-12.9-14.6-24.7-29.6-20.7-51.2c0.6-3.4,1.5-6.9,5.6-7.2c4.4-0.3,6.1,3.3,6.8,6.7c2.7,11.8,5,23.7,7.4,35.6
		c1,5.2,1.6,10.4,2.4,15.6C640.2,540.3,639.7,540.4,639.1,540.6z"/>
	<path d="M671.6,410.9c2.2-13.4,8.4-23.9,21-30.1c3.1-1.5,7-2.6,9,0.8c1.2,2.2,1.3,6.6-0.2,8.5c-6,7.9-12.6,15.2-19.3,22.5
		c-1.4,1.5-4.1,2.1-6.3,2.5C672.6,415.8,670.9,414.4,671.6,410.9z"/>
	<path d="M791,725c-6.3-1.3-13.1-2.8-19.9-4.2c-2.8-0.6-3.7-2.2-3.5-5c0.2-2.6,0.3-5,3.8-5.2c7.9-0.5,15.9-1.2,23.8-1.5
		c1.7-0.1,4,0.4,5.1,1.5c1.9,1.8,4.6,4.5,4.3,6.4c-0.4,2.6-2.9,5.4-5.3,6.9C797.4,725.1,794.3,724.6,791,725z"/>
	<path d="M687.5,629.8c-0.2,4.8-5.5,8.1-9,5c-7.3-6.4-14.1-13.5-20.2-21c-2.8-3.5,0.5-7.9,5-7.5c6.3,0.5,22.8,15.6,24,21.8
		C687.4,628.8,687.5,629.4,687.5,629.8z"/>
	<path d="M1216.8,659.2c-0.8,1.1-1.3,2.1-2,2.6c-8,5.6-15.9,11.3-24,16.6c-2,1.3-5,2.8-6.7-0.9c-1.5-3.2-2.3-5.9,1.8-8.3
		c7.7-4.6,15-9.8,22.6-14.6c1.1-0.7,3.2-1.2,3.9-0.6C1214,655.3,1215.3,657.3,1216.8,659.2z"/>
	<path d="M1295.9,573.2c-1.6,6.9-3.3,13.9-4.9,20.8c-0.8,3.4-3.5,2.9-5.6,2.2c-1.6-0.6-4.1-2.4-4.1-3.6c0.4-7.1,1.2-14.2,2.4-21.2
		c0.6-3.6,2.8-6.8,7-6.3C1295.5,565.5,1295.4,569.4,1295.9,573.2z"/>
	<path d="M455.8,1291.5c-0.7,1.8-0.9,2.8-1.4,3.6c-18.9,29.1-37.8,58.3-56.9,87.4c-2.4,3.7-5.5,7.2-9,9.9c-2.2,1.7-6.3,3-8.3,2
		c-2.1-1-3.9-4.9-4-7.6c-0.2-4.6,0.6-9.3,1.8-13.7c6.4-24.4,17.4-46.4,35.9-64c9.8-9.3,21.2-15.5,34.8-17.1
		C450.5,1291.8,452.7,1291.7,455.8,1291.5z"/>
	<path d="M466.8,1291.6c2.5-5.6,3.9-10.2,6.3-14.2c9.6-15.2,23.9-24.4,40.4-30.3c23.5-8.3,47.8-9.8,72.4-7.7c2,0.2,4,0.3,6,0.3
		c3.3,0,5.1,1,5.6,4.7c0.6,3.7-0.9,5-4.1,6.1c-40.3,13.2-80.6,26.6-121,39.9C471.3,1290.8,469.9,1290.9,466.8,1291.6z"/>
	<path d="M591.1,1271.6c-1.5,1-2.3,1.9-3.3,2.3c-23.6,9.5-47.2,19-70.9,28.4c-3.1,1.2-6.4,1.9-9.7,2.3c-3.9,0.6-8.4,1.4-10.6-3.2
		c-2.2-4.7,0.9-8,4.1-10.8c3.5-3,7.2-5.9,11.3-8.2c17.5-10,35.9-17.4,56.7-16.8C576.5,1265.8,583.6,1268.1,591.1,1271.6z"/>
	<path d="M407.8,1386.3c0.8-3.9,1.1-6.4,1.9-8.7c6.8-18.7,17.1-35.3,30.6-49.8c3-3.2,6.5-5.6,11.4-5.1c3.4,0.3,4.6,1.6,3.1,4.8
		c-8.3,17.9-16.5,35.9-25.1,53.7c-1.8,3.8-4.8,7.3-8.1,9.9c-2.1,1.7-6.2,2.6-8.5,1.7C410.6,1391.7,409.2,1388.1,407.8,1386.3z"/>
	<path d="M733.7,1266.5c4.4,0.1,9.2-0.7,9.4,5.8c0,1.2-0.5,3.2-1.4,3.7c-17.2,8.4-34.4,17.1-54.3,16.2c-3.1-0.1-6.6-1.4-9.2-3.2
		c-5.8-3.8-5.5-10.7,0.8-13.5c6.2-2.6,12.9-4.5,19.5-5.5C710.1,1268.4,721.9,1267.6,733.7,1266.5z"/>
	<path d="M748.3,1294.1c-12.2,7.4-23.8,13.2-36.7,16.1c-4.4,1-9.2,1.1-13.8,0.9c-2.3-0.1-4.8-1.5-6.7-2.9
		c-5.5-4.3-4.6-11.4,1.9-13.9c4-1.5,8.4-2.5,12.6-2.5c12.6,0,25.2,0.6,37.8,1C744.7,1292.9,746,1293.5,748.3,1294.1z"/>
	<path d="M445.2,1397.4c-14.1-22.8-4.6-47.1,25.2-54.9C462,1361,453.8,1378.8,445.2,1397.4z"/>
	<path d="M573.8,1297c-0.8,0.8-1.3,1.5-2,1.9c-11.8,6.7-23.5,13.7-35.6,19.9c-6.3,3.3-11.2,2.1-13.1-1.5c-1.9-3.7-0.1-7.4,6.1-11.6
		c9.5-6.3,19.6-11.2,30.8-13.6C565.9,1290.8,568.9,1291.9,573.8,1297z"/>
	<path d="M748,431c-0.1,4.7-4,8.3-8.8,8.1c-4.6-0.2-8.1-3.7-8.1-8.4c0-4.7,3.9-8.6,8.5-8.5C744.2,422.4,748.1,426.4,748,431z"/>
	<path d="M708.7,463c0.1,4.8-3.6,8.6-8.4,8.6c-4.7,0-8.3-3.4-8.4-8c-0.2-4.9,3.3-8.6,8.2-8.8C704.9,454.6,708.7,458.2,708.7,463z"/>
	<path d="M700.8,504.9c-4.3,0-7.9-3.5-8-7.9c-0.1-4.5,3.7-8.2,8.2-8.1c4.3,0.1,7.7,3.7,7.7,8.1C708.7,501.4,705.1,504.9,700.8,504.9
		z"/>
	<path d="M1303.6,373.9c0,4.8-3.4,8.3-8,8.4c-4.9,0.1-8.6-3.5-8.7-8.3c-0.1-4.8,3.8-8.6,8.6-8.5
		C1300,365.6,1303.6,369.2,1303.6,373.9z"/>
	<path d="M1328.1,432.2c3.8,0,7,3.1,7,6.9c0.1,3.7-3.2,6.9-7,7c-3.8,0.1-7-3.1-7-6.9C1321.1,435.4,1324.2,432.2,1328.1,432.2z"/>
	<path d="M1330,396c3.9,0,7,3,7.1,6.8c0,3.8-3.1,7-6.9,7c-3.8,0.1-7.1-3.1-7.1-6.9C1323,399.1,1326.1,396,1330,396z"/>
</g>
</svg>
