<svg xmlns:xlink="http://www.w3.org/1999/xlink" viewBox="0 0 115 100" enable-background="new 0 0 1200 3500" width="115" xmlns="http://www.w3.org/2000/svg" height="100">
<defs>
<clipPath id="SVGID_203_">
<use width="1200" height="3500" xlink:href="#SVGID_202_"/>
</clipPath>
<clipPath>
<use width="1200" height="3500" xlink:href="#SVGID_38_"/>
</clipPath>
<clipPath>
<use width="1200" height="3500" xlink:href="#SVGID_50_"/>
</clipPath>
<clipPath>
<use width="1200" height="3500" xlink:href="#SVGID_42_"/>
</clipPath>
<clipPath>
<use width="1200" height="3500" xlink:href="#SVGID_34_"/>
</clipPath>
<clipPath>
<use width="1200" height="3500" xlink:href="#SVGID_30_"/>
</clipPath>
<clipPath id="SVGID_207_">
<use width="1200" height="3500" xlink:href="#SVGID_206_"/>
</clipPath>
<clipPath id="SVGID_215_">
<use width="1200" height="3500" xlink:href="#SVGID_214_"/>
</clipPath>
<clipPath id="SVGID_211_">
<use width="1200" height="3500" xlink:href="#SVGID_210_"/>
</clipPath>
<clipPath>
<use width="1200" height="3500" xlink:href="#SVGID_114_"/>
</clipPath>
<clipPath>
<use width="1200" height="3500" xlink:href="#SVGID_124_"/>
</clipPath>
<clipPath>
<use width="1200" height="3500" xlink:href="#SVGID_208_"/>
</clipPath>
<clipPath>
<use width="1200" height="3500" xlink:href="#SVGID_216_"/>
</clipPath>
<clipPath>
<use width="1200" height="3500" xlink:href="#SVGID_212_"/>
</clipPath>
<clipPath>
<use width="1200" height="3500" xlink:href="#SVGID_204_"/>
</clipPath>
<clipPath>
<use width="1200" height="3500" xlink:href="#SVGID_200_"/>
</clipPath>
<clipPath>
<use width="1200" height="3500" xlink:href="#SVGID_188_"/>
</clipPath>
<clipPath>
<use width="1200" height="3500" xlink:href="#SVGID_196_"/>
</clipPath>
<clipPath>
<use width="1200" height="3500" xlink:href="#SVGID_192_"/>
</clipPath>
<clipPath>
<use width="1200" height="3500" xlink:href="#SVGID_118_"/>
</clipPath>
<clipPath id="SVGID_33_">
<use width="1200" height="3500" xlink:href="#SVGID_32_"/>
</clipPath>
<clipPath id="SVGID_12_">
<use width="1200" height="3500" xlink:href="#SVGID_11_"/>
</clipPath>
<clipPath id="SVGID_29_">
<use width="1200" height="3500" xlink:href="#SVGID_28_"/>
</clipPath>
<clipPath id="SVGID_14_">
<use width="1200" height="3500" xlink:href="#SVGID_13_"/>
</clipPath>
<clipPath id="SVGID_10_">
<use width="1200" height="3500" xlink:href="#SVGID_9_"/>
</clipPath>
<clipPath id="SVGID_8_">
<use width="1200" height="3500" xlink:href="#SVGID_7_"/>
</clipPath>
<clipPath id="SVGID_2_">
<use width="1200" height="3500" xlink:href="#SVGID_1_"/>
</clipPath>
<clipPath id="SVGID_6_">
<use width="1200" height="3500" xlink:href="#SVGID_5_"/>
</clipPath>
<clipPath id="SVGID_4_">
<use width="1200" height="3500" xlink:href="#SVGID_3_"/>
</clipPath>
<clipPath id="SVGID_199_">
<use width="1200" height="3500" xlink:href="#SVGID_198_"/>
</clipPath>
<clipPath id="SVGID_117_">
<use width="1200" height="3500" xlink:href="#SVGID_116_"/>
</clipPath>
<clipPath id="SVGID_123_">
<use width="1200" height="3500" xlink:href="#SVGID_122_"/>
</clipPath>
<clipPath id="SVGID_195_">
<use width="1200" height="3500" xlink:href="#SVGID_194_"/>
</clipPath>
<clipPath id="SVGID_191_">
<use width="1200" height="3500" xlink:href="#SVGID_190_"/>
</clipPath>
<clipPath id="SVGID_187_">
<use width="1200" height="3500" xlink:href="#SVGID_186_"/>
</clipPath>
<clipPath id="SVGID_37_">
<use width="1200" height="3500" xlink:href="#SVGID_36_"/>
</clipPath>
<clipPath id="SVGID_41_">
<use width="1200" height="3500" xlink:href="#SVGID_40_"/>
</clipPath>
<clipPath id="SVGID_113_">
<use width="1200" height="3500" xlink:href="#SVGID_112_"/>
</clipPath>
<clipPath id="SVGID_49_">
<use width="1200" height="3500" xlink:href="#SVGID_48_"/>
</clipPath>
<path id="SVGID_38_" d="m413.887,1435.79h371.828v190.82h-371.828z"/>
<path id="SVGID_42_" d="m15.292,1122.75h370.708v190.91h-370.708z"/>
<path id="SVGID_50_" d="m843.403,322.54h304.867v228.452h-304.867z" transform="matrix(-.9994 -.0349 .0349 -.9994 1975.8232 908.0203)"/>
<path id="SVGID_34_" d="m415,720.81h371v190.756h-371z"/>
<path id="SVGID_206_" d="m1049.08,1154.04h100.5v110h-100.5z"/>
<path id="SVGID_30_" d="m13.2,317.826h772.457v360h-772.457z"/>
<path id="SVGID_114_" d="m619.75,2142.41h259.976v224.69h-259.976z"/>
<path id="SVGID_214_" d="m1049.08,1689.84h100.5v110h-100.5z"/>
<path id="SVGID_210_" d="m1049.08,1422.17h100.5v110h-100.5z"/>
<path id="SVGID_192_" d="m803.575,1129.93h189.334v142h-189.334z"/>
<path id="SVGID_118_" d="m22.446,2142.35h257.52v225.08h-257.52z"/>
<path id="SVGID_204_" d="m1046.7,878.279h108.75v145.001h-108.75z"/>
<path id="SVGID_212_" d="m1005.58,1406.06h185v138.75h-185z"/>
<path id="SVGID_208_" d="m1005.58,1137.93h185v138.75h-185z"/>
<path id="SVGID_200_" d="m803.575,1665.73h189.334v142h-189.334z"/>
<path id="SVGID_196_" d="m803.575,1398.06h189.334v142h-189.334z"/>
<path id="SVGID_124_" d="m322,2142.36h253.982v228h-253.982z"/>
<path id="SVGID_202_" d="m1049.08,885.775h100.5v110h-100.5z"/>
<path id="SVGID_188_" d="m798.242,854.775h213.328v160.005h-213.328z"/>
<path id="SVGID_1_" d="m0,0h1200v3500h-1200z"/>
<path id="SVGID_198_" d="m836.325,1689.84h136.001v110h-136.001z"/>
<path id="SVGID_11_" d="m0,0h1200v3500h-1200z"/>
<path id="SVGID_28_" d="m15,317.826h770v360h-770z"/>
<path id="SVGID_13_" d="m0,0h1200v3500h-1200z"/>
<path id="SVGID_9_" d="m0,0h1200v3500h-1200z"/>
<path id="SVGID_7_" d="m0,0h1200v3500h-1200z"/>
<path id="SVGID_216_" d="m1005.58,1673.73h185v138.75h-185z"/>
<path id="SVGID_5_" d="m0,0h1200v3500h-1200z"/>
<path id="SVGID_3_" d="m0,0h1200v3500h-1200z"/>
<path id="SVGID_32_" d="m415,721.826h370v189h-370z"/>
<path id="SVGID_36_" d="m415,1436.83h370v189h-370z"/>
<path id="SVGID_186_" d="m836.325,885.775h136.001v110h-136.001z"/>
<path id="SVGID_194_" d="m836.325,1422.17h136.001v110h-136.001z"/>
<path id="SVGID_190_" d="m836.325,1154.04h136.001v110h-136.001z"/>
<path id="SVGID_122_" d="m321.999,2143.44h253.984v225.99h-253.984z"/>
<path id="SVGID_116_" d="m23.503,2143.43h255.497v224h-255.497z"/>
<path id="SVGID_40_" d="m15.291,1123.83h370v189h-370z"/>
<path id="SVGID_112_" d="m621,2143.43h258v223.67h-258z"/>
<path id="SVGID_48_" d="m852.07,328.611h287.66v217.525h-287.66z" transform="matrix(-.9994 -.0349 .0349 -.9994 1975.9312 909.2356)"/>
</defs>
<switch transform="translate(167.97305 125.9901)">
<g>
<g>
<g clip-path="url(#SVGID_2_)" transform="translate(-232.9483 -158.34708)">
<path fill="#414e56" d="m102.362,128.492c0,.269 .113,.372 .64,.372 1.301,0 2.149-.537 2.149-1.924 0-1.303-.867-2.151-2.085-2.151-.567,0-.642,.037-.659,.534-.02,.455-.045,.899-.045,1.353v1.816zm-.503-3.35c0-.196-.081-.376-.308-.376v-.113c.308,0 .604,.023 .899,.023 .296,0 .59-.023 .885-.023 1.346,0 2.414,.905 2.414,2.331 0,1.344-1.087,2.056-2.414,2.056-.295,0-.589-.026-.885-.026-.295,0-.591,.026-.886,.026v-.114c.214,0 .295-.182 .295-.376v-3.408z" clip-path="url(#SVGID_4_)"/>
<path fill="#414e56" d="m109.751,125.338h-.113c-.063-.285-.296-.447-.824-.447h-.98c-.038,.277-.051,.785-.051,1.156v.633h1.101c.351,0 .47-.08 .539-.32h.114c-.006,.132-.018,.277-.018,.421 0,.145 .012,.289 .018,.429h-.114c-.069-.232-.188-.313-.539-.313h-1.101v1.903h1.308c.403,0 .578-.182 .69-.436l.101,.02-.094,.686c-.22-.046-.434-.056-.835-.056h-2.024v-.089c.258-.012 .351-.098 .351-.375v-1.747c0-1.949-.025-1.999-.351-2.014v-.112h2.501c.138,0 .177-.036 .208-.1h.113v.761z" clip-path="url(#SVGID_4_)"/>
<path fill="#414e56" d="m113.453,125.368c-.132-.407-.585-.59-.982-.59-.508,0-.998,.265-.998,.835 0,1.352 2.219,.754 2.219,2.256 0,.818-.59,1.244-1.364,1.244-.383,0-.773-.07-1.163-.182l-.024-.654h.113c.145,.446 .647,.636 1.067,.636 .498,0 .931-.247 .931-.799 0-1.333-2.218-.635-2.218-2.254 0-.915 .716-1.283 1.538-1.283 .328,0 .641,.1 .97,.086l.024,.705h-.113z" clip-path="url(#SVGID_4_)"/>
<path fill="#414e56" d="m115.4,128.492c0,.269 .113,.372 .641,.372 1.301,0 2.148-.537 2.148-1.924 0-1.303-.865-2.151-2.084-2.151-.567,0-.641,.037-.66,.534-.019,.455-.045,.899-.045,1.353v1.816zm-.503-3.35c0-.196-.08-.376-.308-.376v-.113c.308,0 .604,.023 .9,.023 .295,0 .59-.023 .884-.023 1.347,0 2.415,.905 2.415,2.331 0,1.344-1.087,2.056-2.415,2.056-.294,0-.589-.026-.884-.026-.296,0-.592,.026-.886,.026v-.114c.214,0 .294-.182 .294-.376v-3.408z" clip-path="url(#SVGID_4_)"/>
<path fill="#414e56" d="m122.539,125.338h-.113c-.063-.285-.295-.447-.823-.447h-.981c-.038,.277-.051,.785-.051,1.156v.633h1.101c.352,0 .471-.08 .541-.32h.114c-.01,.132-.02,.277-.02,.421 0,.145 .01,.289 .02,.429h-.114c-.07-.232-.189-.313-.541-.313h-1.101v1.903h1.308c.402,0 .578-.182 .692-.436l.1,.02-.094,.686c-.22-.046-.434-.056-.837-.056h-2.023v-.089c.258-.012 .351-.098 .351-.375v-1.747c0-1.949-.024-1.999-.351-2.014v-.112h2.501c.139,0 .177-.036 .208-.1h.113v.761z" clip-path="url(#SVGID_4_)"/>
<path fill="#414e56" d="m125.845,125.383v-.139c.44-.222 .872-.561 1.155-.92h.118c-.009,.307-.04,1.475-.04,2.395v1.932c0,.184 .188,.253 .361,.269v.125c-.22,0-.439-.03-.66-.03-.22,0-.44,.03-.659,.03v-.125c.148-.016 .369-.085 .369-.269v-1.538c0-.849-.009-1.674-.009-1.924l-.635,.194z" clip-path="url(#SVGID_4_)"/>
<path fill="#414e56" d="m130.827,126.375c.149,0 .588-.441 .588-.998 0-.51-.297-.911-.833-.911-.407,0-.738,.369-.738,.73 0,.878 .951,1.179 .983,1.179m-.276,2.496c.549,0 .809-.393 .809-.904 0-.896-.943-1.153-1.03-1.153-.203,0-.636,.518-.636,1.014 0,.524 .276,1.043 .857,1.043m-.441-2.199c-.446-.258-.777-.636-.777-1.177 0-.708 .588-1.249 1.288-1.249 .638,0 1.305,.398 1.305,1.154 0,.563-.402,.878-.879,1.091 .534,.301 .926,.683 .926,1.33 0,.744-.651,1.271-1.367,1.271-.675,0-1.422-.407-1.422-1.164 0-.658 .409-.941 .926-1.256" clip-path="url(#SVGID_4_)"/>
<path fill="#414e56" d="m134.767,126.94c.645,0 1.076-.415 1.076-1.154 0-.77-.36-1.32-1.036-1.32-.637,0-.926,.667-.926,1.272 0,.518 .243,1.202 .886,1.202m-1.209,1.746 .088-.01c.092,.078 .288,.134 .485,.134 .282,0 .786-.229 1.021-.495 .417-.471 .614-1.084 .739-1.831h-.016c-.196,.409-.676,.708-1.162,.708-.786,0-1.446-.549-1.446-1.375 0-.81 .629-1.57 1.522-1.57 1.156,0 1.738,.973 1.738,2.026 0,.776-.322,1.508-.848,2.024-.416,.41-1.139,.785-1.807,.785-.111,0-.205-.014-.26-.021l-.054-.375z" clip-path="url(#SVGID_4_)"/>
<path fill="#414e56" d="m140.478,129.043c-.456-.006-.911-.029-1.366-.029-.456,0-.92,.023-1.376,.029v-.509c.064,.017 .125,.023 .173,.023 .912,0 1.916-1.532 1.916-2.522 0-.605-.298-1.278-1.004-1.278-.409,0-.801,.25-.912,.626h-.158l.032-.802c.354-.202 .746-.336 1.14-.336 .927,0 1.414,.739 1.414,1.603 0,1.125-.818,2.082-1.666,2.727v.014h1.375c.321,0 .456-.157 .557-.329h.118l-.243,.783z" clip-path="url(#SVGID_4_)"/>
<path fill="#414e56" d="m99.57,126.698c0-.355-.287-.643-.643-.643-.355,0-.643,.288-.643,.643 0,.354 .288,.644 .643,.644 .356,0 .643-.29 .643-.644" clip-path="url(#SVGID_4_)"/>
<path fill="#414e56" d="m144.259,126.698c0-.355-.287-.643-.643-.643-.355,0-.643,.288-.643,.643 0,.354 .288,.644 .643,.644 .356,0 .643-.29 .643-.644" clip-path="url(#SVGID_4_)"/>
<path fill="#414e56" d="m69.954,112.232c0-7.99-.095-8.181-1.379-8.369v-.429c.856,0 1.569,.095 2.282,.095 .81,0 1.523-.095 2.116-.096v.43c-.807,0-1.116,.688-1.116,1.425 0,1.143-.143,4.756-.143,6.944 0,2.281 .143,5.04 .143,6.895h4.707c1.807,0 2.545-.642 3.163-1.95l.38,.118-.594,2.855c-.809-.215-3.614-.215-5.373-.215-1.784,0-3.544,.096-5.303,.096v-.428c.808,0 1.117-.691 1.117-1.427v-5.944z" clip-path="url(#SVGID_4_)"/>
<path fill="#414e56" d="m78.306,112.572h5.044l-2.37-6.55-2.674,6.55zm-.323,.826-.642,1.77c-.141,.381-.141,.883-.141,1.084 0,.362 .362,.624 .864,.805v.361c-.502,0-1.025-.08-1.527-.08-.523,0-1.045,.08-1.669,.08v-.361c1.005-.321 1.146-.805 1.508-1.688l4.863-12.221h.341l4.363,12.221c.341,.963 .622,1.324 1.587,1.688v.361c-.603,0-1.205-.08-1.809-.08-.603,0-1.205,.08-1.809,.08v-.361c.262-.181 .704-.442 .704-.684 0-.322-.121-.583-.221-.865l-.784-2.109h-5.628z" clip-path="url(#SVGID_4_)"/>
<path fill="#414e56" d="m95.23,103.863c-.927,0-1.189,.689-1.189,1.426l-.119,12.887c0,.737 .381,1.428 1.094,1.428v.428c-.499,0-1.212-.096-2.022-.096-.713,0-1.426,.096-1.901,.096v-.428c.666,0 1.046-.69 1.046-1.428l-.119-12.887c0-.737-.261-1.426-1.189-1.426v-.428c.737,0 1.45,.096 2.163,.096 .81,0 1.523-.096 2.236-.097v.429z" clip-path="url(#SVGID_4_)"/>
<path fill="#414e56" d="m101.993,111.113h.713c2.354,0 3.852-.808 3.852-3.352 0-2.521-1.474-3.898-3.567-3.898-.879,0-.975,.355-.975,1.07l-.023,6.18zm-.024,7.134c0,.904 .214,1.118 1.118,1.118 2.543,0 3.828-1.452 3.828-3.877 0-2.52-1.594-3.708-3.662-3.708h-1.26l-.024,6.467zm-1.95-12.055c0-2.093-.286-2.329-1.141-2.329v-.429c.807,0 1.569,.095 2.33,.095 .761,0 1.521-.095 2.283-.096 2.496,0 4.969,1 4.969,4.137 0,2.069-1.45,3.378-3.353,3.878v.046c2.449,.547 3.71,2.26 3.71,4.114 0,3.804-2.83,4.423-5.326,4.423-.762,0-1.522-.096-2.283-.096-.975,0-1.831,.096-2.353,.096v-.428c.878,0 1.212-.691 1.212-1.427l-.048-11.984z" clip-path="url(#SVGID_4_)"/>
<path fill="#414e56" d="m122.349,106.025h-.428c-.238-1.069-1.117-1.688-3.115-1.688h-3.71c-.142,1.045-.189,2.972-.189,4.375v2.401h4.161c1.331,0 1.783-.309 2.044-1.213h.429c-.024,.5-.072,1.048-.072,1.595 0,.547 .048,1.094 .072,1.616h-.429c-.261-.878-.713-1.189-2.044-1.189h-4.161v7.206h4.945c1.523,0 2.188-.691 2.616-1.643l.381,.071-.357,2.594c-.833-.168-1.641-.215-3.162-.215h-7.656v-.332c.974-.048 1.33-.381 1.33-1.427v-6.611c0-7.372-.095-7.561-1.33-7.608v-.427h9.463c.522,0 .666-.144 .784-.381h.428v2.876z" clip-path="url(#SVGID_4_)"/>
<path fill="#414e56" d="m129.197,111.994c.286,.048 .666,.143 1.094,.143 2.615,0 4.329-1.569 4.329-3.97 0-2.332-1.475-4.162-4.186-4.162-.951,0-1.141,.047-1.141,.808 0,1.094-.096,2.379-.096,3.401v3.78zm-1.902-.262c0-2.14-.095-4.303-.095-6.016 0-1.236-.261-1.854-1.308-1.854v-.429c1.142,0 3.186-.142 4.446-.142 3.282,0 6.35,1.235 6.35,4.922 0,2.211-1.974,3.78-4.019,4.303l5.255,6.11c.5,.596 .927,.785 1.499,.977v.427c-.618,0-1.237-.095-1.855-.095-.618,0-1.236,.095-1.855,.095v-.427c.071-.048 .191-.121 .191-.167 0-.071-.096-.262-.191-.381l-4.067-4.946c-.57-.688-1.308-1.235-2.449-1.355v5.423c0,.736 .309,1.427 1.118,1.427v.427c-.595,0-1.308-.095-2.116-.095-.713,0-1.426,.095-2.022,.095v-.427c.81,0 1.118-.69 1.118-1.427v-6.445z" clip-path="url(#SVGID_4_)"/>
<path fill="#414e56" d="m145.735,103.863c-.928,0-1.189,.689-1.189,1.426l-.119,12.887c0,.737 .38,1.428 1.093,1.428v.428c-.498,0-1.212-.096-2.019-.096-.714,0-1.427,.096-1.903,.096v-.428c.665,0 1.046-.69 1.046-1.428l-.118-12.887c0-.737-.263-1.426-1.19-1.426v-.428c.738,0 1.451,.096 2.165,.096 .807,0 1.521-.096 2.234-.097v.429z" clip-path="url(#SVGID_4_)"/>
<path fill="#414e56" d="m162.553,119.651c-1.498,.427-3.52,.666-5.064,.666-5.684,0-9.464-3.472-9.464-8.584 0-5.113 3.78-8.584 9.464-8.584 2.14,0 4.399,.856 4.873,.856 .096,0 .215-.095 .334-.119l.261,2.544h-.427c-.833-1.83-3.258-2.52-5.041-2.52-4.257,0-7.205,2.805-7.205,7.823 0,3.59 3.234,7.823 7.205,7.823 2.829,0 4.445-.714 5.587-2.474l.309,.166-.832,2.403z" clip-path="url(#SVGID_4_)"/>
<path fill="#414e56" d="m165.255,114.3h5.969l-2.807-7.751-3.162,7.751zm-.38,.975-.761,2.094c-.165,.451-.165,1.045-.165,1.281 0,.43 .427,.738 1.021,.953v.428c-.594,0-1.213-.096-1.806-.096-.619,0-1.236,.096-1.973,.096v-.428c1.188-.381 1.354-.953 1.782-1.998l5.755-14.457h.404l5.159,14.457c.405,1.141 .737,1.568 1.879,1.998v.428c-.714,0-1.427-.096-2.139-.096-.715,0-1.428,.096-2.142,.096v-.428c.311-.215 .833-.523 .833-.81 0-.38-.143-.689-.262-1.022l-.928-2.496h-6.657z" clip-path="url(#SVGID_4_)"/>
<path fill="#414e56" d="m116.244,102.588 2.92-3.18c.472-.518 .919-.731 1.155-.731 .376,0 .777,.308 .777,.731 0,.306-.094,.519-.376,.708l-3.651,2.473h-.825z" clip-path="url(#SVGID_4_)"/>
</g>
<path fill="#414e56" d="m115.657,69.958h5.209v18.249h-5.209z" clip-path="url(#SVGID_2_)" transform="translate(-232.9483 -158.34708)"/>
<path fill="#414e56" d="m98.231,69.958h5.21v18.249h-5.21z" clip-path="url(#SVGID_2_)" transform="translate(-232.9483 -158.34708)"/>
<path fill="#414e56" d="m121.577,69.958h5.21v18.249h-5.21z" clip-path="url(#SVGID_2_)" transform="translate(-232.9483 -158.34708)"/>
<path fill="#414e56" d="m104.152,84.058h10.793v4.149h-10.793z" clip-path="url(#SVGID_2_)" transform="translate(-232.9483 -158.34708)"/>
<path fill="#414e56" d="m127.5,84.058h10.792v4.149h-10.792z" clip-path="url(#SVGID_2_)" transform="translate(-232.9483 -158.34708)"/>
<path fill="#414e56" d="m139.003,69.958h5.21v18.249h-5.21z" clip-path="url(#SVGID_2_)" transform="translate(-232.9483 -158.34708)"/>
<path fill="#414e56" d="m142.77,66.759 .352,.669-.269,.447-.895,0-.27-.447 .351-.669-.351-3.053-.795,0-.353,3.053 .353,.669-.27,.447-.896,0-.27-.447 .353-.669-.353-3.053-.794,0-.353,3.053 .353,.669-.268,.447-.898,0-.268-.447 .351-.669-.351-3.053-.797,0-.352,3.053 .352,.669-.269,.447-.897,0-.268-.447 .352-.669-.352-3.053-.796,0-.353,3.053 .353,.669-.269,.447-.897,0-.269-.447 .353-.669-.353-3.053-.794,0-.353,3.053 .353,.669-.27,.447-.896,0-.269-.447 .353-.669-.353-3.053-.795,0-.354,3.053 .354,.669-.27,.447-.896,0-.269-.447 .352-.669-.352-3.053-.796,0-.352,3.053 .352,.669-.27,.447-.895,0-.269-.447 .351-.669-.351-3.053-.796,0-.352,3.053 .352,.669-.27,.447-.896,0-.269-.447 .353-.669-.353-3.053-.795,0-.352,3.053 .352,.669-.27,.447-.895,0-.27-.447 .352-.669-.352-3.053-.796,0-.352,3.053 .352,.669-.269,.447-.895,0-.269-.447 .351-.669-.351-3.053-.796,0-.353,3.053 .353,.669-.269,.447-.897,0-.269-.447 .352-.669-.352-3.053-.796,0-.352,3.053 .352,.669-.269,.447-.896,0-.269-.447 .353-.669-.353-3.053-.796,0-.353,3.053 .353,.669-.269,.447-.896,0-.269-.447 .352-.669-.352-3.053-.796,0-.352,3.053 .352,.669-.269,.447-.896,0-.27-.447 .353-.669-.353-3.053-.795,0-.352,3.053 .352,.669-.269,.447-.896,0-.269-.447 .352-.669-.352-3.053-.796,0-.352,3.053 .352,.669-.27,.447-.896,0-.269-.447 .352-.669-.352-3.053-.795,0-.353,3.053 .353,.669-.269,.447-.896,0-.27-.447 .352-.669-.352-3.053-.795,0-.353,3.053 .353,.669-.27,.447-.895,0-.27-.447 .352-.669-.352-3.053-.795,0-.353,3.053 .353,.669-.27,.447-.896,0-.268-.447 .352-.669-.352-3.053-.796,0-.353,3.053 .353,.669-.27,.447-.09,0 0,1.24 46.081,0 0-1.24-.055,0-.268-.447 .352-.669-.352-3.053-.797,0z" clip-path="url(#SVGID_2_)" transform="translate(-232.9483 -158.34708)"/>
<path fill="#414e56" d="m98.161,62.297h46.081v.738h-46.081z" clip-path="url(#SVGID_2_)" transform="translate(-232.9483 -158.34708)"/>
<path fill="#414e56" d="m142.77,44.28 .352,.668-.277,.46-.88,0-.277-.46 .351-.668-.351-3.052-.795,0-.353,3.052 .353,.668-.278,.46-.88,0-.278-.46 .353-.668-.353-3.052-.794,0-.353,3.052 .353,.668-.276,.46-.883,0-.275-.46 .351-.668-.351-3.052-.797,0-.352,3.052 .352,.668-.276,.46-.882,0-.276-.46 .352-.668-.352-3.052-.796,0-.353,3.052 .353,.668-.276,.46-.882,0-.277-.46 .353-.668-.353-3.052-.794,0-.353,3.052 .353,.668-.277,.46-.881,0-.277-.46 .353-.668-.353-3.052-.795,0-.354,3.052 .354,.668-.277,.46-.881,0-.277-.46 .352-.668-.352-3.052-.796,0-.352,3.052 .352,.668-.277,.46-.88,0-.277-.46 .351-.668-.351-3.052-.796,0-.352,3.052 .352,.668-.277,.46-.881,0-.277-.46 .353-.668-.353-3.052-.795,0-.352,3.052 .352,.668-.277,.46-.88,0-.278-.46 .352-.668-.352-3.052-.796,0-.352,3.052 .352,.668-.277,.46-.879,0-.277-.46 .351-.668-.351-3.052-.796,0-.353,3.052 .353,.668-.277,.46-.881,0-.277-.46 .352-.668-.352-3.052-.796,0-.352,3.052 .352,.668-.277,.46-.88,0-.277-.46 .353-.668-.353-3.052-.796,0-.353,3.052 .353,.668-.277,.46-.88,0-.277-.46 .352-.668-.352-3.052-.796,0-.352,3.052 .352,.668-.277,.46-.881,0-.277-.46 .353-.668-.353-3.052-.795,0-.352,3.052 .352,.668-.277,.46-.881,0-.276-.46 .352-.668-.352-3.052-.796,0-.352,3.052 .352,.668-.277,.46-.881,0-.277-.46 .352-.668-.352-3.052-.795,0-.353,3.052 .353,.668-.277,.46-.88,0-.278-.46 .352-.668-.352-3.052-.795,0-.353,3.052 .353,.668-.277,.46-.881,0-.277-.46 .352-.668-.352-3.052-.795,0-.353,3.052 .353,.668-.277,.46-.881,0-.276-.46 .352-.668-.352-3.052-.796,0-.353,3.052 .353,.668-.277,.46-.083,0 0,1.877 46.081,0 0-1.877-.047,0-.276-.46 .352-.668-.352-3.052-.797,0z" clip-path="url(#SVGID_2_)" transform="translate(-232.9483 -158.34708)"/>
<path fill="#414e56" d="m98.161,39.973h46.081v.739h-46.081z" clip-path="url(#SVGID_2_)" transform="translate(-232.9483 -158.34708)"/>
<g clip-path="url(#SVGID_2_)" transform="translate(-232.9483 -158.34708)">
<path fill="#414e56" d="m104.022,38.03c0,.814-.66,1.475-1.475,1.475-.816,0-1.476-.661-1.476-1.475 0-.816 .66-1.478 1.476-1.478 .815,0 1.475,.662 1.475,1.478" clip-path="url(#SVGID_6_)"/>
<path fill="#414e56" d="m116.389,38.03c0,.814-.66,1.475-1.476,1.475-.815,0-1.474-.661-1.474-1.475 0-.816 .659-1.478 1.474-1.478 .816,0 1.476,.662 1.476,1.478" clip-path="url(#SVGID_6_)"/>
<path fill="#414e56" d="m128.756,38.03c0,.814-.661,1.475-1.476,1.475-.815,0-1.476-.661-1.476-1.475 0-.816 .661-1.478 1.476-1.478 .815,0 1.476,.662 1.476,1.478" clip-path="url(#SVGID_6_)"/>
<path fill="#414e56" d="m141.122,38.03c0,.814-.662,1.475-1.476,1.475-.815,0-1.475-.661-1.475-1.475 0-.816 .66-1.478 1.475-1.478 .814,0 1.476,.662 1.476,1.478" clip-path="url(#SVGID_6_)"/>
<path fill="#414e56" d="m103.078,35.765c0,.293-.239,.53-.531,.53-.293,0-.532-.237-.532-.53 0-.294 .239-.532 .532-.532 .292-.001 .531,.238 .531,.532" clip-path="url(#SVGID_6_)"/>
<path fill="#414e56" d="m115.444,35.765c0,.293-.238,.53-.531,.53-.293,0-.531-.237-.531-.53 0-.294 .238-.532 .531-.532 .293,0 .531,.238 .531,.532" clip-path="url(#SVGID_6_)"/>
<path fill="#414e56" d="m127.811,35.765c0,.293-.237,.53-.531,.53-.293,0-.531-.237-.531-.53 0-.294 .238-.532 .531-.532 .293-.001 .531,.238 .531,.532" clip-path="url(#SVGID_6_)"/>
<path fill="#414e56" d="m140.177,35.765c0,.293-.237,.53-.531,.53-.294,0-.531-.237-.531-.53 0-.294 .237-.532 .531-.532 .294,0 .531,.238 .531,.532" clip-path="url(#SVGID_6_)"/>
</g>
<path fill="#414e56" d="m104.223,71.613 .574-.574 .587,.586-.575,.575-.586-.587zm1.508-1.508 .587,.586-.577,.577-.587-.584 .577-.579zm1.521,1.52-.577,.578-.577-.578 .577-.577 .577,.577zm.357-1.511 .577,.577-.577,.577-.577-.577 .577-.577zm1.511,1.511-.577,.578-.577-.578 .577-.577 .577,.577zm.357-1.51 .577,.576-.577,.577-.577-.577 .577-.576zm1.511,1.51-.577,.576-.577-.576 .577-.577 .577,.577zm.357-1.511 .577,.577-.577,.577-.577-.577 .577-.577zm1.511,1.511-.576,.577-.578-.577 .577-.577 .577,.577zm.367-1.52 .576,.577-.586,.586-.576-.577 .586-.586zm.934,.934 .575,.574-.587,.587-.575-.575 .587-.586zm-.946,2.096-.574-.575 .576-.577 .575,.575-.577,.577zm-1.866,.001-.577-.578 .577-.576 .577,.577-.577,.577zm-1.868,0-.577-.575 .577-.578 .577,.576-.577,.577zm-1.868,.001-.577-.577 .577-.578 .577,.578-.577,.577zm-1.866-.002-.577-.577 .575-.576 .577,.578-.575,.575zm-.486,.227h.973l.445-.445 .445,.445h.978l.445-.445 .446,.445h.976l.446-.446 .446,.446h.977l.446-.445 .445,.445h.972l.448-.448 .448,.448h.352v-.362l-.443-.442 .443-.443v-1.002l-.431-.431 .431-.431v-.319h-.394l-.394,.394-.395-.394h-1.079l-.403,.402-.404-.402h-1.061l-.404,.402-.404-.402h-1.06l-.404,.402-.403-.402h-1.061l-.404,.402-.404-.402h-1.079l-.395,.395-.394-.395h-.251v.462l.288,.29-.288,.287v1.288l.3,.299-.3,.3v.504h.209l.448-.447 .448,.447z" clip-path="url(#SVGID_2_)" transform="translate(-232.9483 -158.34708)"/>
<path fill="#414e56" d="m127.583,71.613 .575-.574 .586,.586-.574,.575-.587-.587zm1.509-1.508 .587,.586-.578,.577-.586-.584 .577-.579zm1.52,1.52-.577,.578-.576-.578 .577-.577 .576,.577zm.357-1.511 .578,.577-.578,.577-.576-.577 .576-.577zm1.511,1.511-.577,.578-.576-.578 .577-.577 .576,.577zm.358-1.51 .576,.576-.576,.577-.577-.577 .577-.576zm1.511,1.51-.578,.576-.576-.576 .576-.577 .578,.577zm.357-1.511 .577,.577-.577,.577-.577-.577 .577-.577zm1.511,1.511-.577,.577-.577-.577 .577-.577 .577,.577zm.366-1.52 .577,.577-.586,.586-.577-.577 .586-.586zm1.509,1.508-.587,.587-.574-.575 .586-.586 .575,.574zm-1.52,1.522-.575-.575 .577-.577 .574,.575-.576,.577zm-1.866,.001-.577-.578 .577-.576 .577,.577-.577,.577zm-1.868,0-.577-.575 .577-.578 .576,.576-.576,.577zm-1.869,.001-.577-.577 .577-.578 .577,.578-.577,.577zm-1.866-.002-.576-.577 .574-.576 .577,.578-.575,.575zm-.485,.227h.972l.445-.445 .445,.445h.978l.445-.445 .446,.445h.976l.446-.446 .447,.446h.976l.446-.445 .446,.445h.971l.448-.448 .448,.448h.352v-.363l-.443-.441 .443-.443v-1.003l-.431-.43 .431-.431v-.319h-.393l-.395,.394-.394-.394h-1.079l-.404,.402-.404-.402h-1.061l-.404,.402-.403-.402h-1.061l-.403,.402-.404-.402h-1.061l-.403,.402-.405-.402h-1.079l-.394,.395-.395-.395h-.25v.462l.288,.29-.288,.287v1.288l.3,.299-.3,.3v.504h.209l.448-.447 .448,.447z" clip-path="url(#SVGID_2_)" transform="translate(-232.9483 -158.34708)"/>
<g clip-path="url(#SVGID_2_)" transform="translate(-232.9483 -158.34708)">
<path fill="#414e56" d="m140.796,48.039c1.065,0 2.99,.315 3.811,2.355l-.432,.188v.265h-6.721v-.265l-.394-.188c.526-1.826 2.521-2.355 3.736-2.355" clip-path="url(#SVGID_8_)"/>
</g>
<path fill="#414e56" d="m137.474,51.38h6.718v.5h-6.718z" clip-path="url(#SVGID_2_)" transform="translate(-232.9483 -158.34708)"/>
<path fill="#414e56" d="m137.507,52.417h3.115v9.038h-3.115z" clip-path="url(#SVGID_2_)" transform="translate(-232.9483 -158.34708)"/>
<path fill="#414e56" d="m141.044,52.417h3.115v9.038h-3.115z" clip-path="url(#SVGID_2_)" transform="translate(-232.9483 -158.34708)"/>
<g clip-path="url(#SVGID_2_)" transform="translate(-232.9483 -158.34708)">
<path fill="#414e56" d="m125.124,48.039c1.065,0 2.99,.315 3.811,2.355l-.433,.188v.265h-6.72v-.265l-.395-.188c.527-1.826 2.521-2.355 3.737-2.355" clip-path="url(#SVGID_10_)"/>
</g>
<path fill="#414e56" d="m121.801,51.38h6.718v.5h-6.718z" clip-path="url(#SVGID_2_)" transform="translate(-232.9483 -158.34708)"/>
<path fill="#414e56" d="m121.835,52.417h3.116v9.038h-3.116z" clip-path="url(#SVGID_2_)" transform="translate(-232.9483 -158.34708)"/>
<path fill="#414e56" d="m125.371,52.417h3.115v9.038h-3.115z" clip-path="url(#SVGID_2_)" transform="translate(-232.9483 -158.34708)"/>
<g clip-path="url(#SVGID_2_)" transform="translate(-232.9483 -158.34708)">
<path fill="#414e56" d="m117.2,48.039c1.065,0 2.99,.315 3.81,2.355l-.431,.188v.265h-6.721v-.265l-.395-.188c.527-1.826 2.521-2.355 3.737-2.355" clip-path="url(#SVGID_12_)"/>
</g>
<path fill="#414e56" d="m113.878,51.38h6.718v.5h-6.718z" clip-path="url(#SVGID_2_)" transform="translate(-232.9483 -158.34708)"/>
<path fill="#414e56" d="m113.911,52.417h3.115v9.038h-3.115z" clip-path="url(#SVGID_2_)" transform="translate(-232.9483 -158.34708)"/>
<path fill="#414e56" d="m117.446,52.417h3.116v9.038h-3.116z" clip-path="url(#SVGID_2_)" transform="translate(-232.9483 -158.34708)"/>
<g clip-path="url(#SVGID_2_)" transform="translate(-232.9483 -158.34708)">
<path fill="#414e56" d="m101.527,48.039c1.066,0 2.99,.315 3.811,2.355l-.432,.188v.265h-6.722v-.265l-.393-.188c.526-1.826 2.521-2.355 3.736-2.355" clip-path="url(#SVGID_14_)"/>
</g>
<path fill="#414e56" d="m98.205,51.38h6.719v.5h-6.719z" clip-path="url(#SVGID_2_)" transform="translate(-232.9483 -158.34708)"/>
<path fill="#414e56" d="m98.239,52.417h3.115v9.038h-3.115z" clip-path="url(#SVGID_2_)" transform="translate(-232.9483 -158.34708)"/>
<path fill="#414e56" d="m101.775,52.417h3.115v9.038h-3.115z" clip-path="url(#SVGID_2_)" transform="translate(-232.9483 -158.34708)"/>
<path fill="#414e56" d="m106.075,52.417h3.115v9.038h-3.115z" clip-path="url(#SVGID_2_)" transform="translate(-232.9483 -158.34708)"/>
<path fill="#414e56" d="m109.611,52.417h3.115v9.038h-3.115z" clip-path="url(#SVGID_2_)" transform="translate(-232.9483 -158.34708)"/>
<path fill="#414e56" d="m106.05,50.838 0-.292-.335-.188 3.685-2.61 3.685,2.61-.314,.188 0,.292z" clip-path="url(#SVGID_2_)" transform="translate(-232.9483 -158.34708)"/>
<path fill="#414e56" d="m106.042,51.38h6.719v.5h-6.719z" clip-path="url(#SVGID_2_)" transform="translate(-232.9483 -158.34708)"/>
<path fill="#414e56" d="m129.671,52.417h3.115v9.038h-3.115z" clip-path="url(#SVGID_2_)" transform="translate(-232.9483 -158.34708)"/>
<path fill="#414e56" d="m133.208,52.417h3.113v9.038h-3.113z" clip-path="url(#SVGID_2_)" transform="translate(-232.9483 -158.34708)"/>
<path fill="#414e56" d="m129.646,50.838 0-.292-.335-.188 3.686-2.61 3.685,2.61-.315,.188 0,.292z" clip-path="url(#SVGID_2_)" transform="translate(-232.9483 -158.34708)"/>
<path fill="#414e56" d="m129.638,51.38h6.717v.5h-6.717z" clip-path="url(#SVGID_2_)" transform="translate(-232.9483 -158.34708)"/>
<path fill="#414e56" d="m114.453,83.016h-9.816v-8.766h4.004l-2.425,2.425 .337,.337 2.762-2.762h.921l-5.25,5.249 .337,.337 5.586-5.586h3.544v8.766zm-10.293,.476h10.769v-9.719h-10.769v9.719z" clip-path="url(#SVGID_2_)" transform="translate(-232.9483 -158.34708)"/>
<path fill="#414e56" d="m137.801,83.016h-9.842v-8.766h4.004l-2.425,2.425 .337,.337 2.762-2.762h.921l-5.249,5.249 .337,.337 5.586-5.586h3.569v8.766zm-10.318,.476h10.794v-9.719h-10.794v9.719z" clip-path="url(#SVGID_2_)" transform="translate(-232.9483 -158.34708)"/>
<g clip-path="url(#SVGID_2_)">
<g clip-path="url(#SVGID_29_)"/>
</g>
<g clip-path="url(#SVGID_2_)">
<g clip-path="url(#SVGID_33_)"/>
</g>
<g clip-path="url(#SVGID_2_)">
<g clip-path="url(#SVGID_37_)"/>
</g>
<g clip-path="url(#SVGID_2_)">
<g clip-path="url(#SVGID_41_)"/>
</g>
<g clip-path="url(#SVGID_2_)">
<g clip-path="url(#SVGID_49_)"/>
</g>
<g clip-path="url(#SVGID_2_)">
<g clip-path="url(#SVGID_113_)"/>
</g>
<g clip-path="url(#SVGID_2_)">
<g clip-path="url(#SVGID_117_)"/>
</g>
<g clip-path="url(#SVGID_2_)">
<g clip-path="url(#SVGID_123_)"/>
</g>
<g clip-path="url(#SVGID_2_)">
<g clip-path="url(#SVGID_187_)"/>
</g>
<g clip-path="url(#SVGID_2_)">
<g clip-path="url(#SVGID_191_)"/>
</g>
<g clip-path="url(#SVGID_2_)">
<g clip-path="url(#SVGID_195_)"/>
</g>
<g clip-path="url(#SVGID_2_)">
<g clip-path="url(#SVGID_199_)"/>
</g>
<g clip-path="url(#SVGID_2_)">
<g clip-path="url(#SVGID_203_)"/>
</g>
<g clip-path="url(#SVGID_2_)">
<g clip-path="url(#SVGID_207_)"/>
</g>
<g clip-path="url(#SVGID_2_)">
<g clip-path="url(#SVGID_211_)"/>
</g>
<g clip-path="url(#SVGID_2_)">
<g clip-path="url(#SVGID_215_)"/>
</g>
</g>
</g>
</switch>
</svg>
