<svg width="180" height="48" viewBox="0 0 180 48" fill="none" xmlns="http://www.w3.org/2000/svg">
<path d="M56.335 35H53.064C52.979 35 52.9365 34.9528 52.9365 34.8584V18.3193H49.1699C49.0755 18.3193 49.0283 18.2721 49.0283 18.1777L49.0566 14.9351C49.0566 14.8595 49.0944 14.8218 49.1699 14.8218H60.1865C60.2904 14.8218 60.3423 14.8595 60.3423 14.9351V18.1777C60.3423 18.2721 60.3045 18.3193 60.229 18.3193H56.4199L56.4482 34.8584C56.4482 34.9528 56.4105 35 56.335 35ZM65.1567 35H61.8716C61.7961 35 61.7583 34.9528 61.7583 34.8584L61.8149 14.9351C61.8149 14.8595 61.8527 14.8218 61.9282 14.8218H67.7905C68.8384 14.8218 69.8013 15.0767 70.6792 15.5864C71.5571 16.0962 72.2557 16.7806 72.7749 17.6396C73.3035 18.4987 73.5679 19.471 73.5679 20.5566C73.5679 21.2646 73.4593 21.9066 73.2422 22.4824C73.0251 23.0583 72.7702 23.5444 72.4775 23.9409C72.1943 24.3374 71.9347 24.63 71.6987 24.8188C72.7466 25.98 73.2705 27.3441 73.2705 28.9111L73.2988 34.8584C73.2988 34.9528 73.2516 35 73.1572 35H69.8721C69.7965 35 69.7588 34.9717 69.7588 34.915V28.9111C69.7588 28.2126 69.5133 27.6084 69.0225 27.0986C68.5316 26.5889 67.9274 26.334 67.21 26.334H65.2983L65.27 34.8584C65.27 34.9528 65.2323 35 65.1567 35ZM67.7905 18.291H65.2983V22.8506H67.7905C68.3853 22.8506 68.9139 22.6287 69.3765 22.1851C69.8485 21.7414 70.0845 21.1986 70.0845 20.5566C70.0845 19.943 69.8579 19.4144 69.4048 18.9707C68.9517 18.5176 68.4136 18.291 67.7905 18.291ZM85.2358 35H75.8618C75.7863 35 75.7485 34.9528 75.7485 34.8584L75.7769 14.9351C75.7769 14.8595 75.8146 14.8218 75.8901 14.8218H85.2075C85.283 14.8218 85.3208 14.869 85.3208 14.9634V18.2061C85.3208 18.2816 85.283 18.3193 85.2075 18.3193H79.2603V22.8506H85.2075C85.283 22.8506 85.3208 22.8883 85.3208 22.9639L85.3491 26.249C85.3491 26.3245 85.3114 26.3623 85.2358 26.3623H79.2603V31.4316H85.2358C85.3114 31.4316 85.3491 31.4788 85.3491 31.5732V34.8867C85.3491 34.9622 85.3114 35 85.2358 35ZM91.084 35H88.1812C88.0301 35 87.9546 34.9339 87.9546 34.8018L87.9263 15.0483C87.9263 14.8973 88.0018 14.8218 88.1528 14.8218H90.7725L95.6719 26.249L95.5303 15.0483C95.5303 14.8973 95.6152 14.8218 95.7852 14.8218H98.6597C98.7729 14.8218 98.8296 14.8973 98.8296 15.0483L98.8579 34.8301C98.8579 34.9434 98.8107 35 98.7163 35H96.1675L91.1406 24.3232L91.353 34.7734C91.353 34.9245 91.2633 35 91.084 35ZM106.717 34.9717L101.52 35C101.426 35 101.378 34.9528 101.378 34.8584L101.435 14.9351C101.435 14.8595 101.473 14.8218 101.548 14.8218L106.972 14.7935C108.048 14.7651 109.02 15.0106 109.889 15.5298C110.767 16.049 111.465 16.7523 111.984 17.6396C112.513 18.5176 112.777 19.4899 112.777 20.5566V28.8828C112.777 29.9967 112.508 31.0163 111.97 31.9414C111.423 32.8571 110.696 33.5887 109.79 34.1362C108.883 34.6743 107.859 34.9528 106.717 34.9717ZM106.972 18.2627L104.947 18.291L104.918 31.4316H106.717C107.434 31.4316 108.038 31.1815 108.529 30.6812C109.02 30.1808 109.266 29.5814 109.266 28.8828V20.5283C109.266 19.9147 109.039 19.3813 108.586 18.9282C108.133 18.4657 107.595 18.2438 106.972 18.2627ZM127.9 35H122.704C122.628 35 122.59 34.9528 122.59 34.8584L122.647 14.9351C122.647 14.8595 122.685 14.8218 122.76 14.8218H128.339C129.425 14.8218 130.411 15.0861 131.299 15.6147C132.167 16.1434 132.852 16.8467 133.352 17.7246C133.852 18.5931 134.103 19.5371 134.103 20.5566C134.103 21.3874 133.914 22.1615 133.536 22.8789C133.159 23.5964 132.71 24.1769 132.191 24.6206C132.748 25.1776 133.182 25.8242 133.494 26.5605C133.805 27.2969 133.961 28.071 133.961 28.8828C133.961 30.0062 133.692 31.0304 133.154 31.9556C132.606 32.8807 131.875 33.6217 130.959 34.1787C130.043 34.7262 129.024 35 127.9 35ZM128.339 18.2627H126.13V22.8223H128.339C129.01 22.8223 129.552 22.5863 129.968 22.1143C130.383 21.6328 130.591 21.1136 130.591 20.5566C130.591 19.943 130.369 19.4097 129.925 18.9565C129.482 18.494 128.953 18.2627 128.339 18.2627ZM127.9 26.334H126.13L126.102 31.46H127.9C128.599 31.46 129.198 31.2051 129.699 30.6953C130.199 30.1855 130.449 29.5814 130.449 28.8828C130.449 28.1842 130.199 27.5848 129.699 27.0845C129.198 26.5841 128.599 26.334 127.9 26.334ZM139.469 35H136.184C136.09 35 136.042 34.9528 136.042 34.8584L136.071 14.9351C136.071 14.8595 136.109 14.8218 136.184 14.8218H139.441C139.516 14.8218 139.554 14.8595 139.554 14.9351L139.583 34.8584C139.583 34.9528 139.545 35 139.469 35ZM145.53 35H142.245C142.169 35 142.131 34.9528 142.131 34.8584L142.188 14.9634C142.188 14.869 142.226 14.8218 142.301 14.8218H145.558C145.634 14.8218 145.671 14.869 145.671 14.9634V21.8311L150.217 14.9351C150.292 14.8595 150.363 14.8218 150.429 14.8218H153.757C153.842 14.8218 153.861 14.8595 153.813 14.9351L148.801 22.9355L154.422 34.8867C154.47 34.9622 154.422 35 154.281 35H150.741C150.646 35 150.59 34.9622 150.571 34.8867L146.648 26.3623L145.643 27.9482V34.8584C145.643 34.9528 145.605 35 145.53 35ZM165.212 35H155.838C155.763 35 155.725 34.9528 155.725 34.8584L155.753 14.9351C155.753 14.8595 155.791 14.8218 155.867 14.8218H165.184C165.26 14.8218 165.297 14.869 165.297 14.9634V18.2061C165.297 18.2816 165.26 18.3193 165.184 18.3193H159.237V22.8506H165.184C165.26 22.8506 165.297 22.8883 165.297 22.9639L165.326 26.249C165.326 26.3245 165.288 26.3623 165.212 26.3623H159.237V31.4316H165.212C165.288 31.4316 165.326 31.4788 165.326 31.5732V34.8867C165.326 34.9622 165.288 35 165.212 35ZM172.831 35.2832C171.802 35.2832 170.853 35.0189 169.984 34.4902C169.125 33.9616 168.436 33.2583 167.917 32.3804C167.407 31.493 167.152 30.5207 167.152 29.4634V28.1323C167.152 28.0285 167.2 27.9766 167.294 27.9766H170.551C170.626 27.9766 170.664 28.0285 170.664 28.1323V29.4634C170.664 30.0959 170.876 30.6434 171.301 31.106C171.726 31.5591 172.236 31.7856 172.831 31.7856C173.435 31.7856 173.949 31.5544 174.374 31.0918C174.799 30.6198 175.011 30.077 175.011 29.4634C175.011 28.7554 174.549 28.137 173.624 27.6084C173.472 27.514 173.274 27.4007 173.029 27.2686C172.793 27.127 172.51 26.9665 172.179 26.7871C171.849 26.6077 171.528 26.4331 171.216 26.2632C170.905 26.0838 170.603 25.9139 170.31 25.7534C169.253 25.1304 168.465 24.3516 167.945 23.417C167.436 22.473 167.181 21.4157 167.181 20.2451C167.181 19.1689 167.445 18.1966 167.974 17.3281C168.502 16.4691 169.191 15.7894 170.041 15.2891C170.9 14.7793 171.83 14.5244 172.831 14.5244C173.86 14.5244 174.804 14.7793 175.663 15.2891C176.522 15.8083 177.206 16.4974 177.716 17.3564C178.235 18.2155 178.495 19.1784 178.495 20.2451V22.624C178.495 22.6995 178.457 22.7373 178.381 22.7373H175.125C175.049 22.7373 175.011 22.6995 175.011 22.624L174.983 20.2451C174.983 19.5654 174.771 19.0132 174.346 18.5884C173.921 18.1636 173.416 17.9512 172.831 17.9512C172.236 17.9512 171.726 18.1777 171.301 18.6309C170.876 19.084 170.664 19.6221 170.664 20.2451C170.664 20.8776 170.796 21.4062 171.061 21.8311C171.334 22.2559 171.83 22.6618 172.547 23.0488C172.623 23.0866 172.798 23.181 173.071 23.332C173.345 23.4831 173.647 23.653 173.978 23.8418C174.317 24.0212 174.624 24.1864 174.898 24.3374C175.172 24.479 175.337 24.564 175.394 24.5923C176.356 25.1304 177.116 25.7912 177.673 26.5747C178.24 27.3582 178.523 28.3211 178.523 29.4634C178.523 30.5679 178.268 31.5591 177.758 32.437C177.239 33.3149 176.55 34.0088 175.691 34.5186C174.832 35.0283 173.878 35.2832 172.831 35.2832Z" fill="black"/>
<path d="M53.7656 42.6875C54.0938 42.6875 54.349 42.6419 54.5312 42.5508C54.8177 42.4076 54.9609 42.1497 54.9609 41.7773C54.9609 41.4023 54.8086 41.1497 54.5039 41.0195C54.332 40.9466 54.0768 40.9102 53.7383 40.9102H52.3516V42.6875H53.7656ZM54.0273 45.3359C54.5039 45.3359 54.8438 45.1979 55.0469 44.9219C55.1745 44.7474 55.2383 44.5365 55.2383 44.2891C55.2383 43.8724 55.0521 43.5885 54.6797 43.4375C54.4818 43.3568 54.2201 43.3164 53.8945 43.3164H52.3516V45.3359H54.0273ZM51.5898 40.2617H54.0547C54.7266 40.2617 55.2044 40.4622 55.4883 40.8633C55.6549 41.1003 55.7383 41.3737 55.7383 41.6836C55.7383 42.0456 55.6354 42.3424 55.4297 42.5742C55.3229 42.6966 55.1693 42.8086 54.9688 42.9102C55.263 43.0221 55.4831 43.1484 55.6289 43.2891C55.8867 43.5391 56.0156 43.8841 56.0156 44.3242C56.0156 44.694 55.8997 45.0286 55.668 45.3281C55.3216 45.776 54.7708 46 54.0156 46H51.5898V40.2617ZM57.1211 40.2617H57.9062V46H57.1211V40.2617ZM61.5898 40.1055C62.3164 40.1055 62.8802 40.2969 63.2812 40.6797C63.6823 41.0625 63.9049 41.4974 63.9492 41.9844H63.1914C63.1055 41.6146 62.9336 41.3216 62.6758 41.1055C62.4206 40.8893 62.0612 40.7812 61.5977 40.7812C61.0326 40.7812 60.5755 40.9805 60.2266 41.3789C59.8802 41.7747 59.707 42.3828 59.707 43.2031C59.707 43.875 59.8633 44.4206 60.1758 44.8398C60.4909 45.2565 60.9596 45.4648 61.582 45.4648C62.1549 45.4648 62.5911 45.2448 62.8906 44.8047C63.0495 44.5729 63.168 44.2682 63.2461 43.8906H64.0039C63.9362 44.4948 63.7122 45.0013 63.332 45.4102C62.8763 45.9023 62.2617 46.1484 61.4883 46.1484C60.8216 46.1484 60.2617 45.9466 59.8086 45.543C59.2122 45.0091 58.9141 44.1849 58.9141 43.0703C58.9141 42.224 59.138 41.5299 59.5859 40.9883C60.0703 40.3997 60.7383 40.1055 61.5898 40.1055ZM65.1289 40.2617H65.9141V46H65.1289V40.2617ZM69.5977 40.1055C70.3242 40.1055 70.888 40.2969 71.2891 40.6797C71.6901 41.0625 71.9128 41.4974 71.957 41.9844H71.1992C71.1133 41.6146 70.9414 41.3216 70.6836 41.1055C70.4284 40.8893 70.069 40.7812 69.6055 40.7812C69.0404 40.7812 68.5833 40.9805 68.2344 41.3789C67.888 41.7747 67.7148 42.3828 67.7148 43.2031C67.7148 43.875 67.8711 44.4206 68.1836 44.8398C68.4987 45.2565 68.9674 45.4648 69.5898 45.4648C70.1628 45.4648 70.599 45.2448 70.8984 44.8047C71.0573 44.5729 71.1758 44.2682 71.2539 43.8906H72.0117C71.944 44.4948 71.7201 45.0013 71.3398 45.4102C70.8841 45.9023 70.2695 46.1484 69.4961 46.1484C68.8294 46.1484 68.2695 45.9466 67.8164 45.543C67.2201 45.0091 66.9219 44.1849 66.9219 43.0703C66.9219 42.224 67.1458 41.5299 67.5938 40.9883C68.0781 40.3997 68.7461 40.1055 69.5977 40.1055ZM72.9609 40.2617H73.7383V45.3164H76.6445V46H72.9609V40.2617ZM77.4883 40.2617H81.6719V40.9648H78.2461V42.707H81.4141V43.3711H78.2461V45.3164H81.7305V46H77.4883V40.2617ZM86.9258 40.2617V40.9453H84.9922V46H84.2031V40.9453H82.2695V40.2617H86.9258ZM89.9922 43.6484L89.1211 41.1133L88.1953 43.6484H89.9922ZM88.7148 40.2617H89.5938L91.6758 46H90.8242L90.2422 44.2812H87.9727L87.3516 46H86.5547L88.7148 40.2617ZM92.8906 44.1484C92.9089 44.474 92.9857 44.7383 93.1211 44.9414C93.3789 45.3216 93.8333 45.5117 94.4844 45.5117C94.776 45.5117 95.0417 45.4701 95.2812 45.3867C95.7448 45.2253 95.9766 44.9362 95.9766 44.5195C95.9766 44.207 95.8789 43.9844 95.6836 43.8516C95.4857 43.7214 95.1758 43.6081 94.7539 43.5117L93.9766 43.3359C93.4688 43.2214 93.1094 43.0951 92.8984 42.957C92.5339 42.7174 92.3516 42.3594 92.3516 41.8828C92.3516 41.3672 92.5299 40.944 92.8867 40.6133C93.2435 40.2826 93.7487 40.1172 94.4023 40.1172C95.0039 40.1172 95.5143 40.263 95.9336 40.5547C96.3555 40.8438 96.5664 41.3073 96.5664 41.9453H95.8359C95.7969 41.638 95.7135 41.4023 95.5859 41.2383C95.349 40.9388 94.9466 40.7891 94.3789 40.7891C93.9206 40.7891 93.5911 40.8854 93.3906 41.0781C93.1901 41.2708 93.0898 41.4948 93.0898 41.75C93.0898 42.0312 93.207 42.237 93.4414 42.3672C93.5951 42.4505 93.9427 42.5547 94.4844 42.6797L95.2891 42.8633C95.6771 42.9518 95.9766 43.0729 96.1875 43.2266C96.5521 43.4948 96.7344 43.8841 96.7344 44.3945C96.7344 45.0299 96.5026 45.4844 96.0391 45.7578C95.5781 46.0312 95.0417 46.168 94.4297 46.168C93.7161 46.168 93.1576 45.9857 92.7539 45.6211C92.3503 45.2591 92.1523 44.7682 92.1602 44.1484H92.8906ZM99.3594 40.2617H100.266L101.914 43.0195L103.562 40.2617H104.473L102.305 43.6875V46H101.527V43.6875L99.3594 40.2617ZM109.734 43.6484L108.863 41.1133L107.938 43.6484H109.734ZM108.457 40.2617H109.336L111.418 46H110.566L109.984 44.2812H107.715L107.094 46H106.297L108.457 40.2617ZM114.543 40.1055C115.27 40.1055 115.833 40.2969 116.234 40.6797C116.635 41.0625 116.858 41.4974 116.902 41.9844H116.145C116.059 41.6146 115.887 41.3216 115.629 41.1055C115.374 40.8893 115.014 40.7812 114.551 40.7812C113.986 40.7812 113.529 40.9805 113.18 41.3789C112.833 41.7747 112.66 42.3828 112.66 43.2031C112.66 43.875 112.816 44.4206 113.129 44.8398C113.444 45.2565 113.913 45.4648 114.535 45.4648C115.108 45.4648 115.544 45.2448 115.844 44.8047C116.003 44.5729 116.121 44.2682 116.199 43.8906H116.957C116.889 44.4948 116.665 45.0013 116.285 45.4102C115.829 45.9023 115.215 46.1484 114.441 46.1484C113.775 46.1484 113.215 45.9466 112.762 45.543C112.165 45.0091 111.867 44.1849 111.867 43.0703C111.867 42.224 112.091 41.5299 112.539 40.9883C113.023 40.3997 113.691 40.1055 114.543 40.1055ZM120.324 40.1055C121.051 40.1055 121.615 40.2969 122.016 40.6797C122.417 41.0625 122.639 41.4974 122.684 41.9844H121.926C121.84 41.6146 121.668 41.3216 121.41 41.1055C121.155 40.8893 120.796 40.7812 120.332 40.7812C119.767 40.7812 119.31 40.9805 118.961 41.3789C118.615 41.7747 118.441 42.3828 118.441 43.2031C118.441 43.875 118.598 44.4206 118.91 44.8398C119.225 45.2565 119.694 45.4648 120.316 45.4648C120.889 45.4648 121.326 45.2448 121.625 44.8047C121.784 44.5729 121.902 44.2682 121.98 43.8906H122.738C122.671 44.4948 122.447 45.0013 122.066 45.4102C121.611 45.9023 120.996 46.1484 120.223 46.1484C119.556 46.1484 118.996 45.9466 118.543 45.543C117.947 45.0091 117.648 44.1849 117.648 43.0703C117.648 42.224 117.872 41.5299 118.32 40.9883C118.805 40.3997 119.473 40.1055 120.324 40.1055ZM123.762 40.2617H127.945V40.9648H124.52V42.707H127.688V43.3711H124.52V45.3164H128.004V46H123.762V40.2617ZM129.531 44.1484C129.549 44.474 129.626 44.7383 129.762 44.9414C130.02 45.3216 130.474 45.5117 131.125 45.5117C131.417 45.5117 131.682 45.4701 131.922 45.3867C132.385 45.2253 132.617 44.9362 132.617 44.5195C132.617 44.207 132.52 43.9844 132.324 43.8516C132.126 43.7214 131.816 43.6081 131.395 43.5117L130.617 43.3359C130.109 43.2214 129.75 43.0951 129.539 42.957C129.174 42.7174 128.992 42.3594 128.992 41.8828C128.992 41.3672 129.171 40.944 129.527 40.6133C129.884 40.2826 130.389 40.1172 131.043 40.1172C131.645 40.1172 132.155 40.263 132.574 40.5547C132.996 40.8438 133.207 41.3073 133.207 41.9453H132.477C132.438 41.638 132.354 41.4023 132.227 41.2383C131.99 40.9388 131.587 40.7891 131.02 40.7891C130.561 40.7891 130.232 40.8854 130.031 41.0781C129.831 41.2708 129.73 41.4948 129.73 41.75C129.73 42.0312 129.848 42.237 130.082 42.3672C130.236 42.4505 130.583 42.5547 131.125 42.6797L131.93 42.8633C132.318 42.9518 132.617 43.0729 132.828 43.2266C133.193 43.4948 133.375 43.8841 133.375 44.3945C133.375 45.0299 133.143 45.4844 132.68 45.7578C132.219 46.0312 131.682 46.168 131.07 46.168C130.357 46.168 129.798 45.9857 129.395 45.6211C128.991 45.2591 128.793 44.7682 128.801 44.1484H129.531ZM136.836 40.1055C137.849 40.1055 138.599 40.431 139.086 41.082C139.466 41.5898 139.656 42.2396 139.656 43.0312C139.656 43.888 139.439 44.6003 139.004 45.168C138.493 45.8346 137.766 46.168 136.82 46.168C135.938 46.168 135.243 45.8763 134.738 45.293C134.288 44.7305 134.062 44.0195 134.062 43.1602C134.062 42.3841 134.255 41.7201 134.641 41.168C135.135 40.4596 135.867 40.1055 136.836 40.1055ZM136.914 45.4727C137.599 45.4727 138.094 45.2279 138.398 44.7383C138.706 44.2461 138.859 43.681 138.859 43.043C138.859 42.3685 138.682 41.8255 138.328 41.4141C137.977 41.0026 137.495 40.7969 136.883 40.7969C136.289 40.7969 135.805 41.0013 135.43 41.4102C135.055 41.8164 134.867 42.4167 134.867 43.2109C134.867 43.8464 135.027 44.3828 135.348 44.8203C135.671 45.2552 136.193 45.4727 136.914 45.4727ZM143.254 42.8906C143.618 42.8906 143.906 42.8177 144.117 42.6719C144.331 42.526 144.438 42.263 144.438 41.8828C144.438 41.474 144.289 41.1953 143.992 41.0469C143.833 40.9688 143.621 40.9297 143.355 40.9297H141.457V42.8906H143.254ZM140.68 40.2617H143.336C143.773 40.2617 144.134 40.3255 144.418 40.4531C144.957 40.6979 145.227 41.1497 145.227 41.8086C145.227 42.1523 145.155 42.4336 145.012 42.6523C144.871 42.8711 144.673 43.0469 144.418 43.1797C144.642 43.2708 144.81 43.3906 144.922 43.5391C145.036 43.6875 145.1 43.9284 145.113 44.2617L145.141 45.0312C145.148 45.25 145.167 45.4128 145.195 45.5195C145.242 45.7018 145.326 45.819 145.445 45.8711V46H144.492C144.466 45.9505 144.445 45.8867 144.43 45.8086C144.414 45.7305 144.401 45.5794 144.391 45.3555L144.344 44.3984C144.326 44.0234 144.186 43.7721 143.926 43.6445C143.777 43.5742 143.544 43.5391 143.227 43.5391H141.457V46H140.68V40.2617ZM146.543 40.2617H147.328V46H146.543V40.2617ZM151.07 40.1055C152.083 40.1055 152.833 40.431 153.32 41.082C153.701 41.5898 153.891 42.2396 153.891 43.0312C153.891 43.888 153.673 44.6003 153.238 45.168C152.728 45.8346 152 46.168 151.055 46.168C150.172 46.168 149.478 45.8763 148.973 45.293C148.522 44.7305 148.297 44.0195 148.297 43.1602C148.297 42.3841 148.49 41.7201 148.875 41.168C149.37 40.4596 150.102 40.1055 151.07 40.1055ZM151.148 45.4727C151.833 45.4727 152.328 45.2279 152.633 44.7383C152.94 44.2461 153.094 43.681 153.094 43.043C153.094 42.3685 152.917 41.8255 152.562 41.4141C152.211 41.0026 151.729 40.7969 151.117 40.7969C150.523 40.7969 150.039 41.0013 149.664 41.4102C149.289 41.8164 149.102 42.4167 149.102 43.2109C149.102 43.8464 149.262 44.3828 149.582 44.8203C149.905 45.2552 150.427 45.4727 151.148 45.4727ZM155.328 44.1484C155.346 44.474 155.423 44.7383 155.559 44.9414C155.816 45.3216 156.271 45.5117 156.922 45.5117C157.214 45.5117 157.479 45.4701 157.719 45.3867C158.182 45.2253 158.414 44.9362 158.414 44.5195C158.414 44.207 158.316 43.9844 158.121 43.8516C157.923 43.7214 157.613 43.6081 157.191 43.5117L156.414 43.3359C155.906 43.2214 155.547 43.0951 155.336 42.957C154.971 42.7174 154.789 42.3594 154.789 41.8828C154.789 41.3672 154.967 40.944 155.324 40.6133C155.681 40.2826 156.186 40.1172 156.84 40.1172C157.441 40.1172 157.952 40.263 158.371 40.5547C158.793 40.8438 159.004 41.3073 159.004 41.9453H158.273C158.234 41.638 158.151 41.4023 158.023 41.2383C157.786 40.9388 157.384 40.7891 156.816 40.7891C156.358 40.7891 156.029 40.8854 155.828 41.0781C155.628 41.2708 155.527 41.4948 155.527 41.75C155.527 42.0312 155.645 42.237 155.879 42.3672C156.033 42.4505 156.38 42.5547 156.922 42.6797L157.727 42.8633C158.115 42.9518 158.414 43.0729 158.625 43.2266C158.99 43.4948 159.172 43.8841 159.172 44.3945C159.172 45.0299 158.94 45.4844 158.477 45.7578C158.016 46.0312 157.479 46.168 156.867 46.168C156.154 46.168 155.595 45.9857 155.191 45.6211C154.788 45.2591 154.59 44.7682 154.598 44.1484H155.328Z" fill="black"/>
<path d="M12.675 27.5588L11.505 26.0059C11.2393 26.2045 11.029 26.4674 10.894 26.7696C10.759 27.0718 10.7038 27.4034 10.7337 27.7328C10.7636 28.0622 10.8776 28.3786 11.0648 28.6519C11.252 28.9251 11.5062 29.1462 11.8034 29.2942L12.675 27.5588ZM20.475 31.4412L22.4055 31.7149C22.463 31.3118 22.3916 30.9009 22.2016 30.5403C22.0116 30.1797 21.7125 29.8878 21.3466 29.7058L20.475 31.4412ZM17.5695 37.9616C17.5322 38.2145 17.5454 38.4723 17.6084 38.7201C17.6715 38.9679 17.783 39.2009 17.9368 39.4057C18.0905 39.6104 18.2833 39.783 18.5042 39.9133C18.725 40.0437 18.9696 40.1294 19.2238 40.1655C19.4781 40.2015 19.737 40.1872 19.9856 40.1234C20.2343 40.0596 20.4678 39.9475 20.6729 39.7936C20.8779 39.6397 21.0504 39.447 21.1804 39.2265C21.3104 39.0061 21.3954 38.7622 21.4305 38.509L17.5695 37.9616ZM20.475 21.7353L21.8536 20.3629C21.5218 20.0325 21.0813 19.8324 20.6132 19.7992C20.145 19.766 19.6805 19.9021 19.305 20.1824L20.475 21.7353ZM25.35 26.5882L23.9714 27.9606C24.337 28.3247 24.8329 28.5293 25.35 28.5294V26.5882ZM29.25 28.5294C29.7672 28.5294 30.2632 28.3249 30.6289 27.9609C30.9946 27.5968 31.2 27.1031 31.2 26.5882C31.2 26.0734 30.9946 25.5797 30.6289 25.2156C30.2632 24.8516 29.7672 24.6471 29.25 24.6471V28.5294ZM11.7 38.2353C11.7 39.265 11.2891 40.2524 10.5577 40.9805C9.82632 41.7086 8.83434 42.1176 7.8 42.1176V46C9.86869 46 11.8526 45.1819 13.3154 43.7258C14.7782 42.2696 15.6 40.2946 15.6 38.2353H11.7ZM7.8 42.1176C6.76566 42.1176 5.77368 41.7086 5.04228 40.9805C4.31089 40.2524 3.9 39.265 3.9 38.2353H0C0 40.2946 0.821784 42.2696 2.28457 43.7258C3.74735 45.1819 5.73131 46 7.8 46V42.1176ZM3.9 38.2353C3.9 37.2056 4.31089 36.2181 5.04228 35.4901C5.77368 34.762 6.76566 34.3529 7.8 34.3529V30.4706C5.73131 30.4706 3.74735 31.2887 2.28457 32.7448C0.821784 34.201 0 36.176 0 38.2353H3.9ZM7.8 34.3529C8.83434 34.3529 9.82632 34.762 10.5577 35.4901C11.2891 36.2181 11.7 37.2056 11.7 38.2353H15.6C15.6 36.176 14.7782 34.201 13.3154 32.7448C11.8526 31.2887 9.86869 30.4706 7.8 30.4706V34.3529ZM11.8034 29.2942L19.6034 33.1766L21.3466 29.7058L13.5466 25.8234L11.8034 29.2942ZM18.5445 31.1675L17.5695 37.9616L21.4305 38.509L22.4055 31.7149L18.5445 31.1675ZM13.845 29.1118L21.645 23.2882L19.305 20.1824L11.505 26.0059L13.845 29.1118ZM19.0964 23.1077L23.9714 27.9606L26.7286 25.2158L21.8536 20.3629L19.0964 23.1077ZM25.35 28.5294H29.25V24.6471H25.35V28.5294ZM35.1 38.2353C35.1 39.265 34.6891 40.2524 33.9577 40.9805C33.2263 41.7086 32.2343 42.1176 31.2 42.1176V46C33.2687 46 35.2526 45.1819 36.7154 43.7258C38.1782 42.2696 39 40.2946 39 38.2353H35.1ZM31.2 42.1176C30.1657 42.1176 29.1737 41.7086 28.4423 40.9805C27.7109 40.2524 27.3 39.265 27.3 38.2353H23.4C23.4 40.2946 24.2218 42.2696 25.6846 43.7258C27.1474 45.1819 29.1313 46 31.2 46V42.1176ZM27.3 38.2353C27.3 37.2056 27.7109 36.2181 28.4423 35.4901C29.1737 34.762 30.1657 34.3529 31.2 34.3529V30.4706C29.1313 30.4706 27.1474 31.2887 25.6846 32.7448C24.2218 34.201 23.4 36.176 23.4 38.2353H27.3ZM31.2 34.3529C32.2343 34.3529 33.2263 34.762 33.9577 35.4901C34.6891 36.2181 35.1 37.2056 35.1 38.2353H39C39 36.176 38.1782 34.201 36.7154 32.7448C35.2526 31.2887 33.2687 30.4706 31.2 30.4706V34.3529ZM25.35 16.8824V20.7647C26.3843 20.7647 27.3763 20.3557 28.1077 19.6276C28.8391 18.8995 29.25 17.912 29.25 16.8824H25.35ZM25.35 16.8824H21.45C21.45 17.912 21.8609 18.8995 22.5923 19.6276C23.3237 20.3557 24.3157 20.7647 25.35 20.7647V16.8824ZM25.35 16.8824V13C24.3157 13 23.3237 13.409 22.5923 14.1371C21.8609 14.8652 21.45 15.8527 21.45 16.8824H25.35ZM25.35 16.8824H29.25C29.25 15.8527 28.8391 14.8652 28.1077 14.1371C27.3763 13.409 26.3843 13 25.35 13V16.8824Z" fill="#F2BB9B"/>
</svg>
