<?xml version="1.0" encoding="utf-8"?>
<!-- Generator: Adobe Illustrator 22.1.0, SVG Export Plug-In . SVG Version: 6.00 Build 0)  -->
<svg version="1.1" id="Capa_1" xmlns="http://www.w3.org/2000/svg" xmlns:xlink="http://www.w3.org/1999/xlink" x="0px" y="0px"
	 viewBox="0 0 105.2 75" style="enable-background:new 0 0 105.2 75;" xml:space="preserve">
<style type="text/css">
	.st0{fill:#FFFFFF;}
</style>
<g>
	<path class="st0" d="M26.5,29.7c-0.7,1.4-1.7,2.6-3,3.6c-1.2,1-2.7,1.7-4.3,2.2c-1.6,0.5-3.3,0.7-5,0.7s-3.4-0.2-5.1-0.5
		c-1.6-0.4-3.3-0.8-4.9-1.4v-27H0V0.7h15.3c1.4,0,2.7,0.3,3.9,0.8s2.3,1.2,3.2,2.2c0.9,0.9,1.6,2,2.2,3.2c0.5,1.2,0.8,2.5,0.8,3.9
		c0,2.2-0.6,4.1-1.8,5.8c1.3,1,2.3,2.1,3,3.6c0.7,1.4,1,3,1,4.6C27.6,26.7,27.3,28.3,26.5,29.7z M17.8,8.3c-0.7-0.7-1.5-1-2.4-1H11
		v6.9h4.5c0.9,0,1.7-0.3,2.3-1c0.6-0.7,0.9-1.5,0.9-2.4C18.8,9.8,18.5,9,17.8,8.3z M20.5,23c-0.3-0.5-0.7-0.9-1.2-1.2
		c-0.5-0.3-1.1-0.6-1.7-0.7s-1.3-0.2-1.9-0.2H11v8.3c0.5,0.2,1,0.3,1.6,0.3s1.1,0.1,1.6,0.1c0.8,0,1.6-0.1,2.4-0.2s1.5-0.4,2.2-0.7
		c0.7-0.4,1.2-0.8,1.6-1.5c0.4-0.6,0.6-1.4,0.6-2.3C21,24.1,20.8,23.5,20.5,23z"/>
	<path class="st0" d="M65.9,25.1c-1,2.2-2.3,4.1-3.9,5.7c-1.6,1.6-3.5,2.9-5.7,3.9s-4.5,1.4-7,1.4s-4.8-0.5-7-1.4
		c-2.2-1-4.1-2.3-5.7-3.9c-1.6-1.6-2.9-3.5-3.9-5.7s-1.4-4.5-1.4-7s0.5-4.8,1.4-7c1-2.2,2.3-4.1,3.9-5.7c1.6-1.6,3.5-2.9,5.7-3.9
		s4.5-1.4,7-1.4s4.9,0.5,7,1.4c2.2,0.9,4.1,2.2,5.7,3.9c1.6,1.6,2.9,3.5,3.9,5.7s1.4,4.5,1.4,7C67.4,20.6,66.9,22.9,65.9,25.1z
		 M59.8,13.6c-0.6-1.4-1.4-2.6-2.4-3.6s-2.3-1.9-3.6-2.4c-1.4-0.6-2.9-0.9-4.5-0.9S46.2,7,44.8,7.6S42.2,9,41.2,10s-1.9,2.3-2.4,3.6
		c-0.6,1.4-0.9,2.9-0.9,4.5s0.3,3.1,0.9,4.5c0.6,1.4,1.4,2.6,2.4,3.6s2.3,1.9,3.6,2.4c1.4,0.6,2.9,0.9,4.5,0.9s3.1-0.3,4.5-0.9
		s2.6-1.4,3.6-2.4s1.9-2.3,2.4-3.6c0.6-1.4,0.9-2.9,0.9-4.5S60.4,15,59.8,13.6z"/>
	<path class="st0" d="M96.2,35.6v-14H81v14h-6.6V0.7H81V15h15.2V7.3h-4.4V0.7h11v34.9C102.8,35.6,96.2,35.6,96.2,35.6z"/>
	<path class="st0" d="M24.6,63.9c0,0.1,0,0.3,0,0.4H3.7c0.1,1.2,0.4,2.3,0.9,3.4s1.2,2,2.1,2.7c0.8,0.8,1.8,1.4,2.9,1.8
		s2.2,0.7,3.5,0.7H21V75h-7.9c-1.6,0-3.1-0.3-4.5-0.9S6,72.7,4.9,71.7c-1-1-1.9-2.3-2.4-3.7c-0.6-1.4-0.9-2.9-0.9-4.5
		s0.3-3.1,0.9-4.5s1.4-2.6,2.4-3.7c1-1,2.3-1.9,3.7-2.5s2.9-0.9,4.5-0.9s3.1,0.3,4.5,0.9c1.4,0.6,2.6,1.4,3.7,2.5s1.9,2.3,2.5,3.7
		s0.9,2.9,0.9,4.5C24.6,63.6,24.6,63.8,24.6,63.9z M21.4,59.1c-0.5-1-1.2-1.9-2.1-2.6s-1.8-1.3-2.9-1.8c-1.1-0.4-2.2-0.6-3.4-0.6
		s-2.3,0.2-3.4,0.6c-1.1,0.4-2,1-2.9,1.8s-1.4,1.5-2,2.6c-0.5,1-0.9,2.1-1,3.2h18.7C22.2,61.1,21.9,60.1,21.4,59.1z"/>
	<path class="st0" d="M64.6,75V62.3c0-1.2-0.2-2.2-0.6-3.2s-1-1.9-1.8-2.6c-0.8-0.8-1.6-1.4-2.6-1.8c-1-0.4-2.1-0.6-3.2-0.6
		c-1.7,0-3.2,0.5-4.6,1.4c-1.4,1-2.4,2.2-3,3.8c0.3,1,0.4,2,0.4,3.1V75h-2.1V62.3c0-1.2-0.2-2.2-0.6-3.2c-0.4-1-1-1.9-1.8-2.6
		c-0.8-0.8-1.6-1.4-2.6-1.8c-1-0.4-2.1-0.6-3.2-0.6c-1.5,0-2.9,0.4-4.1,1.1c-1.3,0.7-2.3,1.7-3,3V75h-2.1V54.6h-6.6v-2h8.7v2.5
		c0.9-1.1,2-1.8,3.2-2.3c1.3-0.5,2.6-0.7,3.9-0.7c1.8,0,3.5,0.4,5,1.3c1.5,0.9,2.8,2.1,3.8,3.6c0.9-1.6,2.1-2.8,3.6-3.7
		c1.5-0.8,3.2-1.2,5.1-1.2c1.4,0,2.8,0.3,4,0.8c1.3,0.5,2.3,1.3,3.3,2.2c0.9,0.9,1.7,2,2.2,3.3s0.8,2.6,0.8,4V75H64.6z"/>
	<path class="st0" d="M74.6,75V54.6H68v-2.1h8.6V75H74.6z M76.1,44.2c-0.3,0.3-0.8,0.5-1.3,0.5s-0.9-0.2-1.3-0.5
		c-0.3-0.3-0.5-0.8-0.5-1.3s0.2-0.9,0.5-1.3c0.3-0.3,0.8-0.5,1.3-0.5s0.9,0.2,1.3,0.5s0.5,0.8,0.5,1.3S76.4,43.9,76.1,44.2z"/>
	<path class="st0" d="M89.8,75c-1.1,0-2.1-0.2-3.1-0.5c-1-0.4-1.9-0.9-2.7-1.5c-0.8-0.6-1.4-1.4-1.9-2.3s-0.7-1.9-0.7-3.1
		c0-1,0.2-2,0.7-2.9c0.4-0.9,1-1.7,1.8-2.4s1.7-1.2,2.7-1.6c1-0.4,2.1-0.6,3.3-0.6c1.5,0,2.7,0.1,3.8,0.4s2,0.7,2.9,1.1
		c-0.1-1.1-0.4-2-0.9-2.9s-1.1-1.7-1.9-2.4s-1.6-1.2-2.6-1.6c-1-0.4-2-0.6-3.1-0.6s-2.2,0.2-3.2,0.6l-0.7-2c1.2-0.5,2.5-0.7,4-0.7
		s2.9,0.3,4.2,0.8c1.3,0.6,2.4,1.3,3.4,2.3s1.7,2.1,2.3,3.4c0.6,1.3,0.8,2.7,0.8,4.2v10.1h6.6V75H89.8z M96.5,64.1
		c-0.8-0.5-1.7-1-2.7-1.4c-1.1-0.4-2.4-0.6-4-0.6c-0.8,0-1.5,0.1-2.3,0.4c-0.8,0.2-1.4,0.6-2,1.1s-1.1,1-1.5,1.7s-0.6,1.4-0.6,2.2
		c0,0.8,0.2,1.6,0.6,2.2c0.4,0.7,0.9,1.2,1.5,1.7s1.3,0.8,2,1.1c0.8,0.2,1.5,0.4,2.3,0.4h6.7V64.1z"/>
</g>
</svg>
