<svg width="99" height="84" viewBox="0 0 99 84" fill="none" xmlns="http://www.w3.org/2000/svg">
<path d="M32.175 37.0588L29.205 33.1059C28.5305 33.6114 27.9966 34.2806 27.654 35.0499C27.3113 35.8192 27.1713 36.6632 27.2472 37.5017C27.323 38.3402 27.6123 39.1455 28.0875 39.8411C28.5627 40.5367 29.2081 41.0995 29.9624 41.4762L32.175 37.0588ZM51.975 46.9412L56.8755 47.6379C57.0214 46.6118 56.8403 45.5658 56.358 44.648C55.8756 43.7303 55.1164 42.9871 54.1876 42.5238L51.975 46.9412ZM44.5995 63.5386C44.5048 64.1824 44.5384 64.8385 44.6983 65.4693C44.8583 66.1001 45.1416 66.6931 45.5318 67.2144C45.922 67.7356 46.4114 68.1748 46.9721 68.5067C47.5328 68.8386 48.1537 69.0567 48.799 69.1484C49.4444 69.2402 50.1015 69.2038 50.7327 69.0413C51.3639 68.8789 51.9568 68.5936 52.4773 68.2018C52.9977 67.81 53.4355 67.3195 53.7656 66.7584C54.0956 66.1973 54.3114 65.5766 54.4005 64.932L44.5995 63.5386ZM51.975 22.2353L55.4746 18.7419C54.6322 17.9009 53.5142 17.3914 52.3257 17.307C51.1373 17.2226 49.9583 17.5689 49.005 18.2824L51.975 22.2353ZM64.35 34.5882L60.8504 38.0816C61.7784 39.0084 63.0373 39.5291 64.35 39.5294V34.5882ZM74.25 39.5294C75.5628 39.5294 76.8219 39.0088 77.7502 38.0822C78.6785 37.1555 79.2 35.8987 79.2 34.5882C79.2 33.2778 78.6785 32.0209 77.7502 31.0943C76.8219 30.1676 75.5628 29.6471 74.25 29.6471V39.5294ZM29.7 64.2353C29.7 66.8563 28.657 69.3699 26.8004 71.2232C24.9437 73.0765 22.4256 74.1176 19.8 74.1176V84C25.0513 84 30.0875 81.9177 33.8007 78.211C37.5139 74.5044 39.6 69.4772 39.6 64.2353H29.7ZM19.8 74.1176C17.1744 74.1176 14.6563 73.0765 12.7996 71.2232C10.943 69.3699 9.9 66.8563 9.9 64.2353H0C0 69.4772 2.08607 74.5044 5.79929 78.211C9.51251 81.9177 14.5487 84 19.8 84V74.1176ZM9.9 64.2353C9.9 61.6143 10.943 59.1007 12.7996 57.2474C14.6563 55.3941 17.1744 54.3529 19.8 54.3529V44.4706C14.5487 44.4706 9.51251 46.5529 5.79929 50.2595C2.08607 53.9661 0 58.9934 0 64.2353H9.9ZM19.8 54.3529C22.4256 54.3529 24.9437 55.3941 26.8004 57.2474C28.657 59.1007 29.7 61.6143 29.7 64.2353H39.6C39.6 58.9934 37.5139 53.9661 33.8007 50.2595C30.0875 46.5529 25.0513 44.4706 19.8 44.4706V54.3529ZM29.9624 41.4762L49.7624 51.3586L54.1876 42.5238L34.3876 32.6414L29.9624 41.4762ZM47.0745 46.2445L44.5995 63.5386L54.4005 64.932L56.8755 47.6379L47.0745 46.2445ZM35.145 41.0118L54.945 26.1882L49.005 18.2824L29.205 33.1059L35.145 41.0118ZM48.4754 25.7287L60.8504 38.0816L67.8496 31.0948L55.4746 18.7419L48.4754 25.7287ZM64.35 39.5294H74.25V29.6471H64.35V39.5294ZM89.1 64.2353C89.1 66.8563 88.057 69.3699 86.2004 71.2232C84.3437 73.0765 81.8256 74.1176 79.2 74.1176V84C84.4513 84 89.4875 81.9177 93.2007 78.211C96.9139 74.5044 99 69.4772 99 64.2353H89.1ZM79.2 74.1176C76.5744 74.1176 74.0563 73.0765 72.1996 71.2232C70.343 69.3699 69.3 66.8563 69.3 64.2353H59.4C59.4 69.4772 61.4861 74.5044 65.1993 78.211C68.9125 81.9177 73.9487 84 79.2 84V74.1176ZM69.3 64.2353C69.3 61.6143 70.343 59.1007 72.1996 57.2474C74.0563 55.3941 76.5744 54.3529 79.2 54.3529V44.4706C73.9487 44.4706 68.9125 46.5529 65.1993 50.2595C61.4861 53.9661 59.4 58.9934 59.4 64.2353H69.3ZM79.2 54.3529C81.8256 54.3529 84.3437 55.3941 86.2004 57.2474C88.057 59.1007 89.1 61.6143 89.1 64.2353H99C99 58.9934 96.9139 53.9661 93.2007 50.2595C89.4875 46.5529 84.4513 44.4706 79.2 44.4706V54.3529ZM64.35 9.88235V19.7647C66.9756 19.7647 69.4937 18.7235 71.3504 16.8702C73.207 15.0169 74.25 12.5033 74.25 9.88235H64.35ZM64.35 9.88235H54.45C54.45 12.5033 55.493 15.0169 57.3496 16.8702C59.2063 18.7235 61.7244 19.7647 64.35 19.7647V9.88235ZM64.35 9.88235V0C61.7244 0 59.2063 1.04117 57.3496 2.89447C55.493 4.74777 54.45 7.26139 54.45 9.88235H64.35ZM64.35 9.88235H74.25C74.25 7.26139 73.207 4.74777 71.3504 2.89447C69.4937 1.04117 66.9756 0 64.35 0V9.88235Z" fill="white"/>
</svg>
