<svg width="96" height="106" viewBox="0 0 96 106" fill="none" xmlns="http://www.w3.org/2000/svg">
<path d="M65.549 62.163C65.549 60.755 65.583 59.77 65.583 59.276C65.583 57.868 65.001 56.32 62.633 56.671C57.833 57.371 53.992 63.571 52.757 68.395C51.489 73.324 53.375 75.084 55.502 75.084C57.284 75.084 59.341 73.817 61.16 70.859C61.502 73.043 62.325 74.733 63.903 74.733C64.2577 74.7326 64.6077 74.6523 64.9271 74.4982C65.2465 74.344 65.527 74.1199 65.748 73.8425C65.9689 73.565 66.1245 73.2414 66.2033 72.8956C66.2821 72.5498 66.282 72.1907 66.203 71.845C65.964 70.754 65.552 64.417 65.552 62.163H65.549ZM57.152 70.613C54.786 70.613 59.895 61.177 62.158 60.473C62.297 64.98 58.969 70.613 57.152 70.613Z" fill="#FB001C"/>
<path d="M77.551 56.671C75.523 56.671 73.92 58.21 72.865 60.552C72.802 60.17 72.73 59.762 72.647 59.311C71.996 55.65 67.88 56.671 68.155 60.227C68.567 65.509 68.703 70.789 68.703 72.021C68.703 72.76 68.943 74.872 70.903 74.872C72.309 74.872 72.96 73.817 72.96 72.408L72.926 69.345C72.926 65.965 74.16 61.917 76.15 61.917C78.722 61.917 77.795 70.017 78.035 72.866C78.0365 73.4656 78.269 74.0415 78.6841 74.4741C79.0992 74.9067 79.665 75.1628 80.264 75.189C81.464 75.189 82.63 74.203 82.528 72.056C82.081 62.973 82.013 56.671 77.555 56.671" fill="#FB001C"/>
<path d="M41.784 48.75C42.2335 48.5874 42.6068 48.2641 42.8319 47.8424C43.0569 47.4207 43.1177 46.9306 43.0026 46.4667C42.8875 46.0028 42.6046 45.598 42.2086 45.3305C41.8125 45.0629 41.3314 44.9516 40.858 45.018C33.7094 46.7682 26.7228 49.124 19.974 52.06C16.682 53.573 19.1861 56.706 21.2431 56.073C23.8491 55.263 25.873 54.594 30.159 53.151C30.845 65.72 29.4741 73.395 22.9591 73.395C20.2841 73.395 16.821 71.74 12.912 67.303C10.579 64.663 8.01206 67.903 9.82506 70.26C12.7411 74.06 18.2251 77.831 23.2681 77.831C29.7491 77.831 35.51 71.881 34.309 51.637L41.784 48.75Z" fill="#FB001C"/>
<path d="M50.46 59.91C50.597 58.855 50.426 57.058 48.197 57.058C47.065 57.058 46.379 58.115 46.379 59.524C46.379 62.374 45.079 70.367 42.814 70.367C40.241 70.367 41.614 60.65 41.751 59.067C41.7865 58.783 41.7647 58.4947 41.6867 58.2192C41.6087 57.9438 41.4762 57.6868 41.2971 57.4635C41.1179 57.2403 40.8957 57.0552 40.6437 56.9194C40.3917 56.7836 40.115 56.6998 39.83 56.673C38.562 56.673 37.43 57.729 37.43 59.873C37.43 60.542 37.396 63.253 37.396 64.837C37.396 69.696 37.533 75.083 41.409 75.083C43.382 75.083 44.953 73.352 46.009 70.978C46.351 73.068 47.132 74.731 48.509 74.731C48.892 74.6817 49.2608 74.5542 49.5924 74.3562C49.924 74.1583 50.2113 73.8942 50.4364 73.5804C50.6616 73.2667 50.8197 72.9099 50.901 72.5324C50.9823 72.1549 50.985 71.7646 50.909 71.386C50.2707 67.5948 50.1208 63.7373 50.463 59.908" fill="#FB001C"/>
<path d="M54.631 89.457C54.631 88.198 54.658 87.28 54.664 86.746C54.801 83.788 54.87 79.951 54.87 78.895C54.87 75.339 50.893 76.183 50.893 79.388C50.926 81.276 50.97 82.911 50.993 84.115C46.53 85.291 43.007 91.107 41.834 95.688C40.565 100.617 42.452 102.377 44.578 102.377C46.361 102.377 48.418 101.11 50.236 98.152C50.579 100.336 51.401 102.026 52.979 102.026C53.3337 102.026 53.6838 101.946 54.0033 101.792C54.3228 101.638 54.6034 101.414 54.8244 101.137C55.0454 100.859 55.2011 100.536 55.2798 100.19C55.3584 99.8438 55.3582 99.4847 55.279 99.139C55.04 98.047 54.628 91.71 54.628 89.456L54.631 89.457ZM46.228 97.906C43.862 97.906 48.971 88.47 51.234 87.766C51.371 92.273 48.045 97.906 46.228 97.906" fill="#FB001C"/>
<path d="M66.735 96.745C65.4779 97.8931 63.8726 98.5873 62.175 98.717C61.5437 98.75 60.9238 98.5387 60.444 98.127C65.434 95.859 69.444 90.833 69.444 87.557C69.4453 87.0821 69.3485 86.612 69.1597 86.1762C68.9709 85.7404 68.6942 85.3483 68.3469 85.0243C67.9996 84.7004 67.5891 84.4516 67.1413 84.2936C66.6934 84.1356 66.2177 84.0717 65.744 84.106C61.835 84.106 56.863 88.472 56.315 95.337C56.006 99.21 57.891 102.624 62.555 102.624C64.8954 102.521 67.1319 101.628 68.899 100.09C71.368 98.153 69.345 94.739 66.738 96.745H66.735ZM64.438 87.662C67.246 87.662 62.112 93.905 59.632 95.232C59.872 91.992 62.357 87.662 64.438 87.662Z" fill="#FB001C"/>
<path d="M19.488 77.242C18.013 81.149 16.848 84.46 15.716 88.014C14.627 91.466 13.569 95.135 12.065 99.791C11.578 98.277 10.01 93.365 8.58301 88.473C7.21201 83.791 5.73699 79.213 5.22199 77.594C4.02199 73.757 -0.572979 75.306 0.696021 79.003C3.74902 87.945 6.35399 95.479 9.23499 103.013C10.401 106.076 13.761 105.689 14.619 103.048C16.196 98.19 17.465 94.348 18.768 90.761C20.243 86.677 21.512 82.77 23.295 78.016C24.395 75.059 20.655 74.179 19.488 77.242" fill="#FB001C"/>
<path d="M74.589 100.793L78.121 98.259C81.035 95.936 85.734 91.746 88.203 89.633C91.46 86.817 89.503 83.191 85.703 84.282C80.764 85.69 78.227 86.465 72.945 88.436C70.305 89.423 71.403 93.084 74.318 92.168L83.543 88.542L85.291 87.733C78.913 93.048 72.226 98.964 70.648 100.233C68.111 102.239 70.134 106.182 73.701 104.739C79.427 102.415 86.217 99.247 93.316 96.958C96.47 95.938 95.339 91.858 91.669 93.05" fill="#FB001C"/>
<path d="M91.666 93.048C89.746 93.682 80.179 98.223 74.589 100.793Z" fill="#FB001C"/>
<path d="M32.347 89.634C32.347 88.226 32.382 87.241 32.382 86.747C32.382 85.339 31.799 83.791 29.431 84.147C24.631 84.847 20.79 91.047 19.555 95.871C18.287 100.8 20.173 102.56 22.3 102.56C24.082 102.56 26.14 101.293 27.958 98.335C28.301 100.519 29.123 102.209 30.7 102.209C31.0546 102.208 31.4045 102.128 31.7238 101.974C32.0431 101.82 32.3236 101.595 32.5445 101.318C32.7654 101.041 32.921 100.717 32.9999 100.371C33.0787 100.026 33.0788 99.6667 33 99.321C32.76 98.23 32.348 91.893 32.348 89.639L32.347 89.634ZM24.118 98.089C21.752 98.089 26.861 88.653 29.124 87.949C29.262 92.456 25.935 98.089 24.118 98.089" fill="#FB001C"/>
<path d="M39.3771 79.108C39.4771 75.834 35.57 76.185 35.331 79.742C35.125 82.7 35.056 92.342 35.296 99.352C35.433 103.612 40.096 103.612 39.754 99.704C39.171 93.05 39.2401 83.72 39.3771 79.104" fill="#FB001C"/>
<path d="M93.581 98.705C93.7888 98.6996 93.9955 98.737 94.1881 98.8149C94.3808 98.8929 94.5554 99.0097 94.701 99.158C94.8502 99.3083 94.9673 99.4874 95.045 99.6845C95.1227 99.8815 95.1595 100.092 95.153 100.304C95.1598 100.517 95.1233 100.73 95.0456 100.928C94.9679 101.127 94.8507 101.308 94.701 101.46C94.3994 101.751 93.9965 101.913 93.5775 101.912C93.1585 101.911 92.7563 101.747 92.456 101.455C92.1653 101.143 92.0037 100.732 92.0037 100.305C92.0037 99.8783 92.1653 99.4674 92.456 99.155C92.6019 99.0055 92.7772 98.8877 92.9708 98.809C93.1644 98.7304 93.3721 98.6926 93.581 98.698V98.705ZM93.576 101.584C93.7399 101.588 93.903 101.559 94.0548 101.497C94.2066 101.435 94.3439 101.342 94.458 101.224C94.6846 100.972 94.8099 100.645 94.8099 100.307C94.8099 99.9677 94.6846 99.6409 94.458 99.389C94.345 99.2711 94.2086 99.178 94.0576 99.1156C93.9066 99.0533 93.7443 99.0231 93.581 99.027C93.4161 99.0226 93.2522 99.0525 93.0995 99.1148C92.9468 99.1771 92.8087 99.2705 92.694 99.389C92.4674 99.6409 92.3421 99.9677 92.3421 100.307C92.3421 100.645 92.4674 100.972 92.694 101.224C92.8088 101.342 92.947 101.435 93.0997 101.497C93.2524 101.559 93.4163 101.589 93.581 101.584H93.576ZM92.976 99.476H93.755C93.9044 99.4704 94.0502 99.5219 94.163 99.62C94.2156 99.6671 94.2571 99.7252 94.2846 99.7902C94.3121 99.8552 94.3248 99.9255 94.322 99.996C94.3253 100.063 94.3126 100.13 94.2849 100.191C94.2573 100.252 94.2155 100.305 94.163 100.347C94.0403 100.439 93.8892 100.485 93.736 100.477H93.695L94.402 101.155H93.97L93.3 100.488V101.155H92.976V99.476ZM93.3 99.776V100.238H93.741C93.8064 100.241 93.8706 100.219 93.92 100.176C93.9434 100.154 93.9616 100.127 93.9735 100.097C93.9854 100.067 93.9907 100.035 93.989 100.003C93.9903 99.9715 93.9848 99.9402 93.9729 99.911C93.961 99.8819 93.9429 99.8556 93.92 99.834C93.8709 99.79 93.807 99.7661 93.741 99.767L93.3 99.776Z" fill="#FB001C"/>
<path d="M66.918 0.717003H28.243V39.392H66.918V0.717003Z" fill="white"/>
<path d="M53.437 7.066C53.805 6.572 52.977 6.032 52.368 5.966C51.655 5.866 51.099 6.266 50.768 6.266C48.368 6.291 50.468 3.28699 51.193 2.65799C52.224 1.75799 53.693 2.485 54.905 1.348C55.167 1.113 54.8899 0.772998 54.4809 0.747998C53.1859 0.685998 53.2809 1.712 50.8559 1.553C48.9869 1.712 47.761 2.73 46.812 4.724C45.829 6.8 46.947 8.046 47.569 9.472C48.069 10.61 48.33 12.972 49.409 12.578C50.695 12.114 49.4189 11.695 49.1189 10.745C48.9883 10.1817 48.9735 9.59777 49.0754 9.0286C49.1774 8.45943 49.3939 7.91691 49.712 7.43399C50.594 6.42299 51.75 9.305 53.433 7.068" fill="#FB001C"/>
<path d="M58.056 1.515C58.228 0.986996 57.413 0.762994 57.01 0.781994C56.247 0.787994 55.982 1.503 56.237 1.503C57.478 1.465 57.993 1.72 58.056 1.515Z" fill="#FB001C"/>
<path d="M54.921 13.545C53.962 13.645 54.08 14.475 55.198 14.251C55.81 14.118 56.091 13.424 54.921 13.545Z" fill="#FB001C"/>
<path d="M56.96 12.722C57.692 12.991 58.09 13.952 58.219 13.852C58.525 13.62 58.178 10.774 57.186 10.858C55.9284 11.0207 54.6612 11.0986 53.393 11.091C50.599 10.891 51.237 14.584 51.443 14.085C51.5654 13.7691 51.7509 13.4814 51.9881 13.2396C52.2253 12.9977 52.5093 12.8067 52.8228 12.6782C53.1363 12.5497 53.4727 12.4865 53.8114 12.4923C54.1501 12.4981 54.4841 12.5728 54.793 12.712C54.549 12.623 55.938 12.348 56.96 12.722Z" fill="#FB001C"/>
<path d="M31.454 5.014C31.273 5.201 30.093 7.468 30.319 7.796H30.33C30.33 7.803 30.33 7.803 30.336 7.81C30.6879 7.79874 31.0373 7.74638 31.377 7.654C31.177 8.289 30.546 9.287 31.062 9.67H31.073C31.827 10.227 34.885 7.939 35.305 7.763C37.59 6.541 37.829 5.579 39.218 3.153C39.6349 2.3618 40.0094 1.54899 40.34 0.718002V0.718002H38.94C38.001 2.483 35.94 3.835 34.47 2.818C33.8258 2.28008 33.3828 1.53989 33.213 0.718002H31.659C31.6923 0.8071 31.7197 0.898293 31.741 0.990997C33.292 5.408 32.347 4.061 31.452 5.013" fill="#FB001C"/>
<path d="M62.089 12.325C62.915 13.725 65.717 7.725 64.857 5.904C63.988 4.062 62.089 0.846997 59.524 2.044C58.896 3.375 60.791 2.568 60.134 5.244C59.944 5.998 60.994 6.549 61.089 7.518C61.225 9.03 60.177 11.284 60.871 11.325C61.94 11.399 62.212 8.131 62.771 8.543C64.433 9.767 61.562 11.814 62.085 12.327" fill="#FB001C"/>
<path d="M59.558 5.892C59.558 5.48 58.908 5.273 57.921 5.341C56.859 4.87 56.247 5.116 55.846 5.619C55.708 6.068 54.929 7.135 56.541 6.993C58.017 7.973 57.993 6.636 59.214 6.993C59.655 6.632 58.14 6.223 58.166 6.143C58.329 5.643 59.566 6.348 59.558 5.895" fill="#FB001C"/>
<path d="M59.139 39.392H61.01C61.16 38.423 61.302 37.47 61.535 36.509C62.0119 34.4921 62.7122 32.5347 63.623 30.673C64.243 29.395 65.847 27.087 66.923 25.435V22.516C65.3501 24.4707 63.9451 26.5548 62.723 28.746C60.9462 32.0711 59.736 35.669 59.142 39.392" fill="#FB001C"/>
<path d="M61.374 15.107C60.974 15.931 57.543 19.368 58.357 20.007C58.705 20.279 60.674 18.307 62.107 17.865C62.2117 17.8249 62.3257 17.815 62.4358 17.8364C62.5459 17.8578 62.6478 17.9096 62.73 17.986C62.938 18.167 63.118 18.462 63.412 18.713C63.469 18.764 63.542 18.824 63.612 18.886C64.066 19.286 64.459 19.686 64.159 20.108C63.392 21.208 62.292 22.648 62.882 23.219C62.9032 23.2335 62.9235 23.2492 62.943 23.266C63.607 23.74 65.014 21.134 65.643 20.751C66.0386 20.5499 66.4784 20.4512 66.922 20.464V19.124C66.788 19.066 66.65 19.024 66.522 18.958C64.793 18.142 64.174 17.429 64.158 16.793C64.179 15.755 65.872 14.965 66.927 14.384V12.294C65.4293 13.8031 63.4853 14.7895 61.383 15.107" fill="#FB001C"/>
<path d="M62.97 39.392H64.944C65.511 36.822 66.263 33.621 66.919 31.451V28.542C66.2727 29.6047 65.6897 30.7046 65.173 31.836C64.1712 34.2686 63.4336 36.8018 62.973 39.392" fill="#FB001C"/>
<path d="M32.769 37.126C32.6267 37.2039 32.4927 37.2961 32.369 37.401C31.6616 38.1772 30.8462 38.8478 29.948 39.392H32.326C33.142 38.544 33.807 37.258 32.769 37.126Z" fill="#FB001C"/>
<path d="M53.119 28.14C53.8 27.169 56.44 22.02 57.986 23.113C58.014 23.1294 58.0402 23.1489 58.064 23.171C58.695 23.708 60.11 26.102 61.077 26.965C61.363 27.21 61.604 27.324 61.784 27.239C62.846 26.651 60.135 22.724 59.027 21.596C58.861 21.428 58.705 21.283 58.543 21.146C57.443 20.207 56.433 20.057 55.352 21.656C55.192 21.89 53.912 23.619 53.591 23.405C53.5662 23.3894 53.5481 23.3652 53.54 23.337C53.347 21.931 52.097 19.457 54.316 19.616C55.289 19.682 57.016 18.882 56.672 18.249L56.624 18.196C56.197 17.752 53.924 18.838 53.146 18.225C53.0901 18.1872 53.043 18.1377 53.008 18.08C52.4874 17.2776 51.8638 16.547 51.153 15.907C49.7786 14.804 48.2764 13.8703 46.679 13.126C46.5133 13.0267 46.3567 12.9129 46.211 12.786C45.169 11.861 44.569 10.117 44.063 9.363C43.119 7.988 41.706 3.563 42.993 0.722H41.551C40.9439 2.87662 40.9163 5.1533 41.471 7.322C42.105 10.722 45.039 12.649 43.285 16.509C41.855 19.8558 40.2151 23.1089 38.375 26.249C37.41 27.675 36.92 28.005 36.59 27.793C36.033 27.406 35.905 25.53 34.69 24.72H34.685L34.678 24.713C32.7401 23.7611 30.5427 23.4733 28.425 23.894C28.361 23.913 28.303 23.93 28.247 23.952L28.252 25.437C29.421 25.0211 30.6987 25.0276 31.8633 25.4554C33.028 25.8832 34.0061 26.7053 34.628 27.779C35.2962 29.2594 35.5784 30.885 35.448 32.504C35.403 34.443 35.005 37.641 33.878 39.397H35.178C35.318 39.166 35.454 38.932 35.578 38.682C36.2287 37.3393 36.586 35.8735 36.626 34.382C36.6266 33.9732 36.7163 33.5695 36.889 33.199C37.752 31.562 40.389 32.199 42.567 28.532C42.5787 28.5122 42.5894 28.4919 42.599 28.471C42.979 27.725 44.499 23.414 43.348 24.03C42.9887 24.2708 42.71 24.614 42.548 25.015C42.216 25.67 41.917 26.53 41.483 27.359C41.167 28.0701 40.6812 28.6927 40.0683 29.1722C39.4555 29.6517 38.7342 29.9734 37.968 30.109C37.628 30.17 37.705 29.804 37.999 29.209C38.837 27.566 41.416 24.189 41.965 23.209C42.047 23.064 42.122 22.909 42.211 22.754C43.4107 20.0805 44.4072 17.3203 45.192 14.497C45.214 14.437 45.233 14.379 45.255 14.331C45.992 12.891 49.348 18.703 49.333 18.698C49.742 18.944 52.777 25.052 52.625 25.535C52.4915 25.9874 52.3161 26.4263 52.101 26.846C51.387 28.117 50.836 26.946 49.801 26.727C48.796 26.508 47.226 28.254 46.516 29.622C46.144 30.341 46.005 30.959 46.302 31.138C47.002 31.549 47.308 31.244 47.576 30.748C47.676 30.564 47.787 30.329 47.9 30.112C48.0857 29.671 48.4285 29.3146 48.862 29.112C50.612 28.435 50.602 29.112 49.969 30.297C49.269 31.611 47.807 33.548 47.115 34.943C47.0066 35.1455 46.915 35.3565 46.841 35.574C46.672 36.057 45.986 37.774 45.523 39.393H47.6C47.925 38.242 48.183 37.086 48.411 36.568C49.6601 33.5933 51.2364 30.7669 53.111 28.141" fill="#FB001C"/>
<path d="M30.838 35.169C31.597 34.695 32.021 32.106 30.557 32.24C29.593 32.318 28.374 36.682 30.838 35.169Z" fill="#FB001C"/>
<path d="M38.1 14.873C39.039 17.452 42.936 12.645 40.486 12.698C39.094 12.698 37.78 14.015 38.1 14.873Z" fill="#FB001C"/>
</svg>
