<?xml version="1.0" encoding="utf-8"?>
<!-- Generator: Adobe Illustrator 23.0.3, SVG Export Plug-In . SVG Version: 6.00 Build 0)  -->
<svg version="1.1" id="Capa_1" xmlns="http://www.w3.org/2000/svg" xmlns:xlink="http://www.w3.org/1999/xlink" x="0px" y="0px"
	 viewBox="0 0 370.7 92.9" style="enable-background:new 0 0 370.7 92.9;" xml:space="preserve">
<style type="text/css">
	.st0{fill:#1D1D1B;}
</style>
<path class="st0" d="M30,92.9l-1.5-4.5c0.8-0.4,1.5-0.7,2.2-1.1c1.6-0.8,3.1-1.5,4.5-2.4c2.2-1.4,4.2-2.8,5.5-4.4
	c1.4-1.8,2.3-4.1,3-6.2c0.5-1.5,0.8-3.2,1.1-4.9c0.1-0.8,0.3-1.6,0.4-2.4l0.4-1.9l4.6,0l0.5,1.7c0.1,0.4,0.3,0.9,0.4,1.3
	c0.4,1.1,0.7,2.3,0.9,3.5c0.4,2.7,0.8,5.7,1.1,9.1c0.2,2,0.5,3.2,1.6,4c0.9,0.6,1.3,1.5,1.6,2.2c0.1,0.2,0.1,0.3,0.2,0.4l1.4,2.4
	l-2.6,1c-0.2,0.1-0.3,0.1-0.5,0.2c-0.6,0.3-1.4,0.7-2.4,0.7c0,0,0,0,0,0c-1.6,0-3.2-0.1-5.1-0.4c-1.1-0.1-2.2-0.2-3.4-0.2
	c-3.6,0-7.1,0.6-10.8,1.3C32,92.6,31,92.8,30,92.9z"/>
<path class="st0" d="M42.9,25.3l-1.8-1.5c-5.3-4.3-5.9-11.8-1.8-20.5L40.8,0l2.4,2.7c5.7,6.4,6.2,15,1.2,20.8L42.9,25.3z"/>
<path class="st0" d="M65.3,57.6c-1,0-2-0.1-3.1-0.3l-2.3-0.4l0.4-2.3c1.1-6.6,8.1-11.1,17.3-11.2l3.5,0l-1.3,3.3
	C77,53.7,71.9,57.6,65.3,57.6z"/>
<path class="st0" d="M36.2,60L34,59.3c-3.2-1-6.1-3.8-8-7.6c-1.9-3.9-2.4-8.1-1.3-11.2l0.9-2.4l2.4,1.1c7.6,3.6,11.4,11.5,9,18.7
	L36.2,60z"/>
<path class="st0" d="M74.7,40.1L74,37.8c-2.1-6.5,2-13.8,10.1-18l3.2-1.7l0.2,3.6c0.6,9.1-2.8,14.8-10.5,17.6L74.7,40.1z"/>
<path class="st0" d="M45,36.8l-0.4-2.4c-1-6.7,4-13.3,12.5-16.4l3.3-1.2l-0.1,3.5c-0.3,8.8-4.8,14.5-12.9,16L45,36.8z"/>
<path class="st0" d="M72.3,19.6c-6.1,0-11.7-4.7-14.6-12.3L56.4,4L60,4c8.8,0.1,14.6,4.6,16.3,12.6l0.5,2.4l-2.4,0.4
	C73.7,19.5,73,19.6,72.3,19.6z"/>
<path class="st0" d="M53.3,48.3l-0.2-2.4c-0.5-6.9,4.6-13,13.1-15.8l3.1-1l0,3.3c0,8.3-6.1,15.2-13.7,15.7L53.3,48.3z"/>
<path class="st0" d="M21.3,62.5c-6.1,0-11.8-4.9-14.6-12.4l-1.2-3.3L9,46.8c8.8,0.2,15.5,5.5,16.2,12.9l0.2,2.2l-2.2,0.4
	C22.6,62.4,21.9,62.5,21.3,62.5z"/>
<path class="st0" d="M66.4,71.7c-4.2,0-8-1.7-11.1-5l-1.7-1.8l1.9-1.6c5.1-4.4,13-3.8,20.6,1.5l3,2.1l-3.1,1.9
	C72.9,70.7,69.6,71.7,66.4,71.7z"/>
<path class="st0" d="M29.1,74.4c-1.6,0-3.2-0.2-4.9-0.7l-2.3-0.7l0.7-2.3c1.7-5.6,7.7-9.2,15.5-9.2c1,0,2,0.1,3.1,0.2l3.4,0.4
	l-1.6,3C39.7,71.3,34.9,74.4,29.1,74.4z"/>
<path class="st0" d="M16.1,43.5c-6.1,0-12.4-4.4-15-10.4L0,30.6l2.6-0.7c1.1-0.3,2.3-0.5,3.5-0.5c7,0,13.9,5.2,14.8,11.1l0.3,2.1
	l-2,0.6C18.1,43.4,17.1,43.5,16.1,43.5z"/>
<path class="st0" d="M51.7,59.6l-2.3-0.8c-6.4-2.1-10-8.9-9.5-18.2l0.2-3.7l3.3,1.7c8,4.3,11.2,10.9,9,18.6L51.7,59.6z"/>
<path class="st0" d="M33,36.1l-2-0.9c-7.2-3.2-8.6-12.3-6.8-19.4l0.8-3.1l2.8,1.7c7,4.3,9.9,13.1,6.4,19.8L33,36.1z"/>
<path class="st0" d="M66.3,92.6l-0.2,0c-2.6-0.1-4.6-2.3-4.6-4.9c0-2.7,2.1-4.8,4.8-4.8c2.8,0.1,4.9,2.2,4.8,4.9
	C71.1,90.4,68.9,92.6,66.3,92.6z"/>
<g>
	<path class="st0" d="M130.6,54.2h-10.4v18.1c0,1.6,0.6,3,1.7,4.1c1.3,1.1,3,1.6,5.1,1.6h3.2v7.8h-9.9c-3,0-5.5-1.1-7.6-3.2
		c-1.2-1.3-2-2.7-2.4-4.2c-0.4-1.5-0.5-3.4-0.5-5.5V54.2h-6.8v-8.3h6.8V31.9h10.6v13.9h10.4V54.2z"/>
	<path class="st0" d="M170.4,86h-18.8c-4.6,0-8.5-2-11.9-5.9c-3.4-3.9-5-8.5-5-13.6c0-5.6,1.8-10.4,5.5-14.5
		c3.7-4.1,7.8-6.1,12.3-6.1h17.9v8.2h-13.1c-1.6,0-3,0.1-4.2,0.4c-1.2,0.3-2.2,0.8-3.2,1.7c-1.8,1.5-2.7,3.6-2.7,6.2h23.1v8.3h-23.1
		c0,1.2,0.1,2.3,0.4,3.1c0.3,0.8,0.9,1.7,1.7,2.5c0.9,0.8,1.9,1.4,3.1,1.7c1.2,0.3,2.7,0.4,4.4,0.4h13.5L170.4,86L170.4,86z"/>
	<path class="st0" d="M200.5,54.5h-11.9v31.3H178V45.9h10.6v5.5c0.6-1.4,1.3-2.5,2.1-3.4c0.8-0.9,1.9-1.5,3.3-2
		c0.6-0.2,1.3-0.4,2-0.5c0.7-0.2,1.4-0.2,2.1-0.2c0.9,0,1.7,0.1,2.5,0.3L200.5,54.5L200.5,54.5z"/>
	<path class="st0" d="M228.7,54.5h-11.9v31.3h-10.6V45.9h10.6v5.5c0.6-1.4,1.3-2.5,2.1-3.4c0.8-0.9,1.9-1.5,3.3-2
		c0.6-0.2,1.3-0.4,2-0.5c0.7-0.2,1.4-0.2,2.1-0.2c0.9,0,1.7,0.1,2.5,0.3L228.7,54.5L228.7,54.5z"/>
	<path class="st0" d="M273.3,85.8h-28.8c-3.2,0-6-1.1-8.3-3.3c-2.3-2.2-3.4-4.9-3.4-8.3c0-3.5,1-6.4,3.1-8.6s4.7-3.4,7.8-3.4h18.6
		v-2.2c0-0.7-0.1-1.2-0.3-1.7c-0.2-0.5-0.6-1.1-1.1-1.7c-0.7-0.8-1.5-1.3-2.2-1.6c-0.8-0.2-1.8-0.3-3.2-0.3h-19.9v-8.8h17.1h3.3
		c3.7,0,6.5,0.3,8.4,1c1.8,0.6,3.4,1.6,4.8,2.9c1.7,1.7,2.8,3.5,3.4,5.5c0.6,2,0.8,4.6,0.8,7.7L273.3,85.8L273.3,85.8z M262.3,77.6
		v-7.8h-13.6c-1.3,0-2.4,0.4-3.3,1.1c-0.9,0.7-1.3,1.7-1.3,2.9c0,1.1,0.4,2,1.3,2.7c0.9,0.7,1.9,1.1,3,1.1
		C248.5,77.6,262.3,77.6,262.3,77.6z"/>
	<path class="st0" d="M318.2,85.8h-10.7V59.5c0-0.7-0.2-1.3-0.5-1.8c-0.3-0.5-0.7-1.1-1.3-1.6c-1-0.9-2.2-1.3-3.5-1.3h-10.5v31H281
		V45.9h20.5c3.6,0,6.3,0.2,7.9,0.6c2.6,0.6,4.6,2,6.2,4.1c1.7,2.5,2.6,5.2,2.6,8.1V85.8z"/>
	<path class="st0" d="M370.7,65.7c0,6.9-2.2,12.3-6.6,16c-4.1,3.4-9.6,5.1-16.6,5.1c-7,0-12.4-1.5-16.3-4.6
		c-4.5-3.6-6.7-9.1-6.7-16.6c0-6.3,2.4-11.2,7.2-14.8c4.3-3.2,9.6-4.9,15.9-4.9c6.9,0,12.5,1.7,16.7,5.2
		C368.6,54.6,370.7,59.4,370.7,65.7z M358.8,65.6c0-3.2-1-6-3-8.2c-2-2.2-4.8-3.3-8.3-3.3c-3.2,0-5.8,1.1-7.9,3.4
		c-2.1,2.2-3.1,5.1-3.1,8.5c0,3.9,1.1,7,3.2,9.3c2.1,2.3,4.8,3.5,8.2,3.5c3.8,0,6.6-1.2,8.5-3.6C357.9,73,358.8,69.8,358.8,65.6z"/>
</g>
</svg>
