<?xml version="1.0" encoding="utf-8"?>
<!-- Generator: Adobe Illustrator 27.0.1, SVG Export Plug-In . SVG Version: 6.00 Build 0)  -->
<svg version="1.1" id="Capa_1" xmlns="http://www.w3.org/2000/svg" xmlns:xlink="http://www.w3.org/1999/xlink" x="0px" y="0px"
	 viewBox="0 0 199.73 89.41" style="enable-background:new 0 0 199.73 89.41;" xml:space="preserve">
<g>
	<g>
		<path d="M61.17,4.79c0,1.94-0.56,2.91-1.69,2.91c-0.31,0-0.63-0.25-0.94-0.75c-0.56-1-1.5-1.5-2.82-1.5
			c-2.88,0-5.58,2.07-8.08,6.2c-0.5,0.81-2.07,3.76-4.7,8.83h1.13c6.83,0,11.37-0.09,13.62-0.28c0.25,0.06,0.38,0.19,0.38,0.38
			c0,0.5-2.22,1.19-6.67,2.07c-4.2,0.69-7.64,1.28-10.34,1.79c-1.94,4.01-4.29,8.77-7.05,14.28c-5.64,10.52-9.37,17.07-11.18,19.64
			C17.38,66.11,12.06,70,6.86,70c-1.82,0-3.4-0.77-4.74-2.3C0.77,66.16,0.06,64.45,0,62.58c0.19-0.75,0.47-1.13,0.85-1.13
			c0.19,0,0.31,0.22,0.38,0.66c0.38,1.63,1,2.88,1.88,3.76c0.88,0.88,1.79,1.32,2.73,1.32c5.32,0,10.18-3.29,14.56-9.87
			c2.5-3.76,5.92-10.52,10.24-20.3L35.7,24.8c-6.26-0.06-9.4-0.81-9.4-2.25c0-0.63,0.3-1.16,0.89-1.6c0.59-0.44,1.11-0.66,1.55-0.66
			l8.83,0.19C43.72,6.83,49.36,0,54.5,0c1.94,0,3.91,0.94,5.92,2.82C60.91,3.32,61.17,3.98,61.17,4.79z"/>
		<path d="M76.86,22.64l1.32-0.28c0.69,0,1.35,0.28,1.97,0.85c0.63,0.56,0.94,1,0.94,1.32c0,0.31-1.94,3.34-5.83,9.07
			c-3.88,5.73-5.83,9.72-5.83,11.98c0,0.19,0.03,0.38,0.09,0.56c0.31,1.44,1,2.16,2.07,2.16c3.26,0,9.21-5.39,17.85-16.16
			c0.19-0.25,0.41-0.38,0.66-0.38c0.25,0,0.38,0.23,0.38,0.7c0,0.47-0.28,1.08-0.85,1.83c-8.02,10.71-14.13,16.07-18.32,16.07
			c-0.56,0-1.1-0.09-1.6-0.28c-2.76-1.06-4.13-3.13-4.13-6.2c0-1.06,0.12-2.13,0.38-3.19l-5.83,5.64c-3.7,3.26-6.37,4.89-8.03,4.89
			c-1.66,0-3.24-0.53-4.74-1.6c-1.69-1.25-2.54-2.91-2.54-4.98c0-4.57,3.19-10.04,9.58-16.4c6.39-6.36,12.24-9.54,17.57-9.54
			c2.07,0,3.44,0.72,4.13,2.16c0.19,0.5,0.34,0.92,0.47,1.27C76.7,22.47,76.79,22.64,76.86,22.64z M48.76,45.76
			c0,2.25,0.78,3.38,2.35,3.38c3.63,0,8.58-3.98,14.85-11.93l9.96-13.72c-0.5-0.88-1.32-1.32-2.44-1.32c-3.82,0-8.9,2.96-15.22,8.88
			C51.92,36.97,48.76,41.87,48.76,45.76z"/>
		<path d="M108.8,20.48l13.53-0.19c0.19,0.13,0.28,0.22,0.28,0.28c0,0.56-3.9,1.35-11.7,2.35c-7.8,1-12.01,1.6-12.64,1.79
			c-1.19,1.07-3.38,4.24-6.58,9.54c-3.19,5.29-4.79,9.16-4.79,11.6c0,2.32,1.6,3.48,4.79,3.48c1.5,0,3.48-0.47,5.92-1.41
			c2.44-0.94,4.32-1.82,5.64-2.63c3.51-2.19,7.27-5.42,11.27-9.68c0.88-0.88,1.47-1.32,1.79-1.32c0.19,0,0.28,0.19,0.28,0.56
			c0,0.38-0.47,1.13-1.41,2.25c-3.26,4.01-6.92,7.23-10.99,9.68c-4.89,3.01-9.55,4.51-14,4.51c-1.94,0-3.52-0.42-4.74-1.27
			c-1.22-0.85-1.83-2.55-1.83-5.12c0-2.57,1.13-6.09,3.38-10.57c2.25-4.48,3.98-7.81,5.17-10.01c-0.88,0.19-1.63,0.28-2.25,0.28
			c-1.82,0-2.73-0.72-2.73-2.16c0-1.06,0.75-1.82,2.25-2.25c0.19,0,0.47-0.03,0.85-0.09h5.45c1.13-1.44,2.41-3.1,3.85-4.98
			c1.75-2.25,2.94-3.38,3.57-3.38c0.63,0,1.41,0.25,2.35,0.75c0.94,0.5,1.41,1.1,1.41,1.78c0,0.69-1.5,2.73-4.51,6.11
			C104.04,20.45,106.17,20.48,108.8,20.48z"/>
		<path d="M136.71,20.48l13.53-0.19c0.19,0.13,0.28,0.22,0.28,0.28c0,0.56-3.9,1.35-11.7,2.35c-7.8,1-12.01,1.6-12.64,1.79
			c-1.19,1.07-3.38,4.24-6.58,9.54c-3.19,5.29-4.79,9.16-4.79,11.6c0,2.32,1.6,3.48,4.79,3.48c1.5,0,3.48-0.47,5.92-1.41
			c2.44-0.94,4.32-1.82,5.64-2.63c3.51-2.19,7.27-5.42,11.27-9.68c0.88-0.88,1.47-1.32,1.79-1.32c0.19,0,0.28,0.19,0.28,0.56
			c0,0.38-0.47,1.13-1.41,2.25c-3.26,4.01-6.92,7.23-10.99,9.68c-4.89,3.01-9.55,4.51-14,4.51c-1.94,0-3.52-0.42-4.74-1.27
			c-1.22-0.85-1.83-2.55-1.83-5.12c0-2.57,1.13-6.09,3.38-10.57c2.25-4.48,3.98-7.81,5.17-10.01c-0.88,0.19-1.63,0.28-2.25,0.28
			c-1.82,0-2.73-0.72-2.73-2.16c0-1.06,0.75-1.82,2.25-2.25c0.19,0,0.47-0.03,0.85-0.09h5.45c1.13-1.44,2.41-3.1,3.85-4.98
			c1.75-2.25,2.94-3.38,3.57-3.38c0.63,0,1.41,0.25,2.35,0.75c0.94,0.5,1.41,1.1,1.41,1.78c0,0.69-1.5,2.73-4.51,6.11
			C131.94,20.45,134.07,20.48,136.71,20.48z"/>
		<path d="M164.61,30.82c0,2.19-2.1,5.86-6.3,10.99c-4.95,6.08-9.18,9.11-12.68,9.11h-1.5c-1.63,0-2.91-0.85-3.85-2.54
			c-0.75-1.19-1.13-2.5-1.13-3.95c0-3.76,2.74-9.03,8.22-15.83c5.48-6.8,9.91-10.19,13.29-10.19c3.19,0,4.79,1.69,4.79,5.07
			c0,0.88-0.16,2.01-0.47,3.38c0.06,0.19,0.66,0.28,1.78,0.28c1.13,0,2.85-0.59,5.17-1.78c-0.06,1.07-2.54,2.6-7.42,4.6
			C164.58,30.22,164.61,30.5,164.61,30.82z M158.5,25.93c-2.13,0-5.15,2.51-9.07,7.52c-3.92,5.01-5.87,8.71-5.87,11.09
			c0,2.38,0.75,3.57,2.25,3.57c2.69,0,6.11-2.44,10.24-7.33c4.13-4.89,6.2-8.39,6.2-10.52C161.26,29.69,160.01,28.25,158.5,25.93z"
			/>
	</g>
	<g>
		<path d="M28.13,89.26c-2.51,0-3.77-1.62-3.77-4.88c0-2.66,1.45-6.34,4.36-11.04c2.91-4.7,5.25-7.08,7.02-7.13
			c0.49,0,1.05,0.2,1.66,0.59c0.62,0.4,0.92,0.79,0.92,1.18c-0.25,0.35-0.54,0.73-0.89,1.15c-0.34,0.42-0.71,0.88-1.11,1.37
			c-0.39,0.49-0.94,1.19-1.62,2.11c-0.69,0.91-1.36,1.79-1.99,2.62c-3.69,4.78-5.54,8.06-5.54,9.86c0,1.8,0.62,2.7,1.85,2.7
			c1.03,0,2.44-0.57,4.21-1.7c4.14-2.56,7.41-5.37,9.83-8.42c0.89-1.13,1.49-1.7,1.81-1.7c0.32,0,0.48,0.2,0.48,0.59
			c0,0.39-0.57,1.18-1.7,2.36c-1.13,1.18-2.03,2.12-2.7,2.81c-0.67,0.69-1.12,1.15-1.37,1.37c-0.25,0.22-0.7,0.64-1.37,1.26
			c-0.67,0.62-1.17,1.05-1.51,1.29c-0.35,0.25-0.84,0.62-1.48,1.11c-0.64,0.49-1.21,0.85-1.7,1.07c-0.49,0.22-1.06,0.48-1.7,0.78
			C30.79,89.04,29.55,89.26,28.13,89.26z M43.6,59.01c0.67,0.47,1,1.02,1,1.66c0,0.64-0.31,1.19-0.92,1.66
			c-0.62,0.47-1.29,0.7-2.03,0.7s-1.42-0.27-2.03-0.81c-0.62-0.54-0.92-1.16-0.92-1.85c0-1.38,0.94-2.07,2.81-2.07
			C42.24,58.31,42.94,58.54,43.6,59.01z"/>
		<path d="M54.06,65.11c1.33,0,1.99,0.52,1.99,1.55c0,0.3-0.07,0.59-0.22,0.89c-4.43,6.16-7.09,10.81-7.98,13.96
			c11.47-11.47,18.44-17.21,20.91-17.21c0.25-0.05,0.47-0.07,0.66-0.07c1.38,0,2.07,0.62,2.07,1.85c0,0.25-0.05,0.49-0.15,0.74
			c-0.1,0.25-1.08,1.58-2.96,3.99c-2.17,2.56-4,5.02-5.5,7.39c-1.5,2.36-2.25,4.33-2.25,5.91c0,1.58,0.34,2.36,1.03,2.36
			c2.17,0,5.93-2.98,11.3-8.94c0.1-0.1,0.27-0.32,0.52-0.67c0.74-0.89,1.18-1.33,1.33-1.33c0.15,0,0.22,0.25,0.22,0.74
			c0,0.49-0.34,1.13-1.03,1.92C67.9,85.13,63.56,88.6,61,88.6c-2.41,0-3.62-1.33-3.62-3.99c0-2.66,0.98-5.71,2.96-9.16l4.73-7.68
			c-3.35,2.46-6.33,5.16-8.94,8.09c-2.61,2.93-4.99,5.77-7.13,8.53c-2.14,2.76-3.39,4.14-3.73,4.14c-0.74,0-1.32-0.31-1.74-0.92
			c-0.42-0.62-0.63-1.38-0.63-2.29c0-0.91,0.32-2.13,0.96-3.66c0.64-1.53,1.45-3.37,2.44-5.54l-4.43,4.65
			c-1.08,1.08-1.76,1.62-2.03,1.62c-0.27,0-0.41-0.16-0.41-0.48c0-0.32,0.2-0.68,0.59-1.07c1.82-1.82,3.4-3.57,4.73-5.25
			c1.28-1.67,3.92-4.88,7.9-9.6C53.1,65.4,53.56,65.11,54.06,65.11z"/>
		<path d="M92.17,89.41c-0.54,0-1.03-0.07-1.48-0.22c-3.15-0.89-4.73-2.66-4.73-5.32c0-3.45,2.17-7.44,6.5-11.97
			c4.33-4.53,8.22-6.8,11.67-6.8c1.13,0,2.06,0.31,2.77,0.92c0.71,0.62,1.07,1.45,1.07,2.51c0,1.06-0.32,2.17-0.96,3.32
			c-0.64,1.16-1.6,1.74-2.88,1.74c-1.28,0-1.92-0.39-1.92-1.18c0-0.54,0.33-1.37,1-2.47c0.66-1.11,1-1.7,1-1.77
			s-0.07-0.11-0.22-0.11c-1.38,0.15-3.26,1.13-5.65,2.96c-2.39,1.82-4.03,3.35-4.91,4.58l-2.88,4.21c-0.49,0.79-0.85,1.72-1.07,2.81
			c-0.22,1.08-0.33,1.9-0.33,2.44c0,0.54,0.31,1.16,0.92,1.85c0.62,0.69,1.49,1.03,2.62,1.03c2.46,0,5.52-1.44,9.16-4.32
			c3.64-2.88,6.45-5.63,8.42-8.24c0.25-0.3,0.54-0.44,0.89-0.44c0.34,0,0.52,0.1,0.52,0.3c0,0.2-0.12,0.44-0.37,0.74
			c-2.71,3.6-5.95,6.74-9.71,9.42C97.83,88.07,94.69,89.41,92.17,89.41z"/>
		<path d="M132.07,66.36l1.03-0.22c0.54,0,1.06,0.22,1.55,0.67c0.49,0.44,0.74,0.79,0.74,1.03c0,0.25-1.53,2.62-4.58,7.13
			c-3.05,4.51-4.58,7.65-4.58,9.42c0,0.15,0.02,0.3,0.07,0.44c0.25,1.13,0.79,1.7,1.62,1.7c2.56,0,7.24-4.23,14.04-12.71
			c0.15-0.2,0.32-0.3,0.52-0.3c0.2,0,0.3,0.18,0.3,0.55c0,0.37-0.22,0.85-0.67,1.44c-6.3,8.42-11.11,12.63-14.41,12.63
			c-0.44,0-0.86-0.07-1.26-0.22c-2.17-0.84-3.25-2.46-3.25-4.88c0-0.84,0.1-1.67,0.3-2.51l-4.58,4.43
			c-2.91,2.56-5.01,3.84-6.32,3.84c-1.31,0-2.55-0.42-3.73-1.26c-1.33-0.98-1.99-2.29-1.99-3.92c0-3.59,2.51-7.89,7.54-12.89
			c5.02-5,9.63-7.5,13.81-7.5c1.63,0,2.71,0.57,3.25,1.7c0.15,0.39,0.27,0.73,0.37,1C131.94,66.23,132.02,66.36,132.07,66.36z
			 M109.98,84.54c0,1.77,0.62,2.66,1.85,2.66c2.86,0,6.75-3.13,11.67-9.38l7.83-10.79c-0.4-0.69-1.03-1.03-1.92-1.03
			c-3,0-6.99,2.33-11.97,6.98C112.46,77.63,109.98,81.48,109.98,84.54z"/>
		<path d="M151.49,87.34c-1.43,0.84-3.19,1.26-5.28,1.26c-2.09,0-3.69-0.69-4.8-2.07c-1.11-1.38-2.06-3.57-2.84-6.57
			c-0.89,0.89-1.5,1.33-1.85,1.33c-0.25,0-0.37-0.17-0.37-0.52c0-0.34,0.12-0.64,0.37-0.89c1.62-2.02,4.38-4.92,8.27-8.72l9.31-8.72
			c2.66-2.51,4.23-3.77,4.73-3.77c1.58,0,2.36,0.59,2.36,1.77c0,0.59-0.23,1.17-0.7,1.74c-0.47,0.57-0.81,1.01-1.03,1.33
			c-0.22,0.32-0.46,0.63-0.7,0.92c-0.89,1.53-1.79,4.68-2.7,9.46c-0.91,4.78-1.61,8.1-2.11,9.97c4.09-0.05,8.3-2.71,12.63-7.98
			c0.49-0.49,0.86-0.74,1.11-0.74c0.25,0,0.37,0.16,0.37,0.48c0,0.32-0.22,0.75-0.67,1.29c-2.86,3.35-5.52,5.69-7.98,7.02
			c-1.48,0.74-3.4,1.35-5.76,1.85L151.49,87.34z M141.52,79.14c0,1.67,0.55,3.04,1.66,4.1c1.11,1.06,2.35,1.59,3.73,1.59
			c1.38,0,2.44-0.27,3.18-0.81c0.98-0.54,1.96-2.81,2.92-6.8c0.96-3.99,1.54-7.51,1.74-10.56l0.29-2.51
			c-2.71,2.02-5.6,4.63-8.68,7.83c-3.08,3.2-4.67,5.32-4.76,6.35C141.55,78.63,141.52,78.9,141.52,79.14z"/>
		<path d="M189.02,66.36l1.03-0.22c0.54,0,1.06,0.22,1.55,0.67c0.49,0.44,0.74,0.79,0.74,1.03c0,0.25-1.53,2.62-4.58,7.13
			c-3.05,4.51-4.58,7.65-4.58,9.42c0,0.15,0.02,0.3,0.07,0.44c0.25,1.13,0.79,1.7,1.62,1.7c2.56,0,7.24-4.23,14.04-12.71
			c0.15-0.2,0.32-0.3,0.52-0.3c0.2,0,0.3,0.18,0.3,0.55c0,0.37-0.22,0.85-0.67,1.44c-6.3,8.42-11.11,12.63-14.41,12.63
			c-0.44,0-0.86-0.07-1.26-0.22c-2.17-0.84-3.25-2.46-3.25-4.88c0-0.84,0.1-1.67,0.3-2.51l-4.58,4.43
			c-2.91,2.56-5.01,3.84-6.32,3.84c-1.31,0-2.55-0.42-3.73-1.26c-1.33-0.98-1.99-2.29-1.99-3.92c0-3.59,2.51-7.89,7.54-12.89
			c5.02-5,9.63-7.5,13.81-7.5c1.63,0,2.71,0.57,3.25,1.7c0.15,0.39,0.27,0.73,0.37,1C188.9,66.23,188.97,66.36,189.02,66.36z
			 M166.93,84.54c0,1.77,0.62,2.66,1.85,2.66c2.86,0,6.75-3.13,11.67-9.38l7.83-10.79c-0.4-0.69-1.03-1.03-1.92-1.03
			c-3,0-6.99,2.33-11.97,6.98C169.42,77.63,166.93,81.48,166.93,84.54z"/>
	</g>
</g>
</svg>
