<?xml version="1.0" encoding="utf-8"?>
<!-- Generator: Adobe Illustrator 23.0.3, SVG Export Plug-In . SVG Version: 6.00 Build 0)  -->
<svg version="1.1" id="Layer_1" xmlns="http://www.w3.org/2000/svg" xmlns:xlink="http://www.w3.org/1999/xlink" x="0px" y="0px"
	 viewBox="0 0 542.6 241.1" style="enable-background:new 0 0 542.6 241.1;" xml:space="preserve">
<style type="text/css">
	.st0{enable-background:new    ;}
	.st1{stroke:#000000;stroke-width:0.9314;stroke-miterlimit:10;}
	.st2{fill:#FFFFFF;}
</style>
<g class="st0">
	<path d="M441.3,216.1c0,2.3-0.3,4.5-1,6.4s-1.6,3.5-2.8,4.9c-1.3,1.3-2.8,2.4-4.6,3.1s-4,1.1-6.4,1.1h-6.1v-30.8h7.6
		c2.3,0,4.3,0.4,6,1.2c1.7,0.8,3.1,1.9,4.2,3.3c1.1,1.4,1.9,3,2.4,4.9C441,212,441.3,214,441.3,216.1z M437.2,216.1
		c0-1.7-0.2-3.3-0.6-4.8s-1-2.7-1.9-3.8c-0.9-1.1-2-1.9-3.3-2.5c-1.3-0.6-2.9-0.9-4.7-0.9h-2.3v23.9h2c1.8,0,3.4-0.3,4.7-0.9
		s2.5-1.5,3.4-2.5c0.9-1.1,1.6-2.3,2-3.8S437.2,217.7,437.2,216.1L437.2,216.1z"/>
	<path d="M463.9,227.1c-0.6,1.1-1.3,2-2.1,2.7c-0.9,0.7-1.9,1.3-3,1.7c-1.1,0.4-2.4,0.6-3.7,0.6c-1.6,0-3.1-0.3-4.4-0.9
		c-1.3-0.6-2.4-1.4-3.3-2.4c-0.9-1-1.6-2.2-2.1-3.6s-0.7-2.8-0.7-4.4c0-1.7,0.2-3.2,0.7-4.6c0.5-1.4,1.2-2.7,2.1-3.8
		c0.9-1.1,2.1-1.9,3.4-2.5c1.4-0.6,2.9-0.9,4.6-0.9c1.2,0,2.4,0.2,3.5,0.5c1.1,0.3,2.1,0.8,2.9,1.5c0.9,0.7,1.6,1.5,2.1,2.5
		c0.5,1,0.9,2.1,1,3.3l-16.6,6.1c0.1,0.9,0.3,1.7,0.7,2.5c0.4,0.8,0.8,1.4,1.4,2s1.2,1,2,1.4c0.8,0.3,1.7,0.5,2.7,0.5
		c0.9,0,1.6-0.1,2.4-0.4c0.7-0.3,1.4-0.7,1.9-1.2c0.6-0.5,1-1.1,1.3-1.8c0.3-0.7,0.5-1.5,0.6-2.3h3.6
		C464.8,224.8,464.4,226,463.9,227.1z M459,212.9c-1-0.7-2.2-1.1-3.6-1.1c-1.2,0-2.3,0.2-3.2,0.7c-0.9,0.4-1.6,1-2.2,1.8
		c-0.6,0.7-1,1.6-1.3,2.6c-0.3,1-0.5,2-0.5,3.1v0.6l12.9-4.6C460.7,214.6,460,213.6,459,212.9z"/>
	<path d="M486.3,225.3c0,1.3-0.3,2.4-0.8,3.2c-0.5,0.9-1.3,1.5-2.1,2.1c-0.9,0.5-1.9,0.9-3,1.1c-1.1,0.2-2.2,0.3-3.3,0.3
		c-1.4,0-2.7-0.1-3.9-0.4s-2.2-0.8-3.1-1.4c-0.9-0.6-1.5-1.5-2-2.5c-0.5-1-0.8-2.2-0.8-3.6h3.6c0,1.9,0.6,3.3,1.7,4.2
		c1.1,0.9,2.6,1.3,4.6,1.3c0.6,0,1.2-0.1,1.9-0.2c0.7-0.1,1.2-0.4,1.8-0.7c0.5-0.3,1-0.7,1.3-1.2c0.4-0.5,0.5-1.1,0.5-1.8
		c0-0.7-0.2-1.3-0.5-1.8s-0.8-0.8-1.3-1.1s-1.3-0.5-2.1-0.8c-0.8-0.2-1.7-0.4-2.7-0.6c-1.2-0.3-2.2-0.5-3.2-0.8
		c-1-0.3-1.8-0.7-2.6-1.1c-0.7-0.5-1.3-1.1-1.7-1.8s-0.6-1.6-0.6-2.7c0-0.9,0.2-1.7,0.6-2.5c0.4-0.7,1-1.4,1.8-1.9s1.7-1,2.7-1.2
		s2.2-0.4,3.5-0.4c1.2,0,2.3,0.1,3.4,0.4c1.1,0.2,2,0.6,2.8,1.2c0.8,0.6,1.5,1.3,2,2.2c0.5,0.9,0.7,2,0.8,3.3h-3.4
		c0-1.7-0.5-2.9-1.6-3.6s-2.4-1.1-3.9-1.1c-1.1,0-2,0.1-2.6,0.4c-0.7,0.3-1.2,0.6-1.5,1c-0.4,0.4-0.6,0.8-0.7,1.2
		c-0.1,0.4-0.2,0.7-0.2,1c0,0.9,0.3,1.5,0.9,2c0.6,0.5,1.3,0.9,2.2,1.2c0.9,0.3,1.8,0.5,2.7,0.7c0.9,0.2,1.7,0.4,2.4,0.5
		c0.8,0.2,1.6,0.5,2.3,0.8s1.4,0.6,2,1.1c0.6,0.4,1.1,1,1.5,1.7S486.3,224.3,486.3,225.3z"/>
	<path d="M494.1,202.3c0,0.7-0.3,1.2-0.8,1.7c-0.5,0.4-1.1,0.6-1.8,0.6c-0.7,0-1.3-0.2-1.8-0.6c-0.5-0.4-0.8-1-0.8-1.7
		s0.3-1.2,0.8-1.7c0.5-0.4,1.1-0.6,1.8-0.6c0.7,0,1.3,0.2,1.8,0.6C493.8,201,494.1,201.6,494.1,202.3z M489.6,231.5v-22.1h3.7v22.1
		H489.6z"/>
	<path d="M518.5,235.3c-0.3,1.2-0.9,2.2-1.7,3c-0.8,0.9-1.8,1.5-3.1,2c-1.3,0.5-2.8,0.7-4.7,0.7c-1.2,0-2.4-0.1-3.5-0.4
		c-1.1-0.2-2.1-0.6-3-1.2c-0.9-0.6-1.6-1.3-2.2-2.2s-0.9-2-1-3.4h3.7c0.1,0.8,0.3,1.5,0.6,2.1c0.3,0.6,0.8,1.1,1.3,1.5
		c0.5,0.4,1.1,0.7,1.8,0.9c0.7,0.2,1.4,0.3,2.1,0.3c2.2,0,3.8-0.6,4.9-1.9c1.1-1.3,1.6-2.9,1.6-5v-3.3c-0.8,1.1-1.8,2-3.1,2.6
		c-1.3,0.6-2.7,0.9-4.3,0.9c-1.6,0-3.1-0.3-4.4-0.9c-1.3-0.6-2.4-1.4-3.4-2.4c-0.9-1-1.6-2.2-2.1-3.6c-0.5-1.4-0.8-2.9-0.8-4.5
		c0-1.7,0.2-3.2,0.7-4.6c0.5-1.4,1.2-2.7,2.1-3.8c0.9-1.1,2.1-1.9,3.4-2.5c1.4-0.6,2.9-0.9,4.6-0.9c1.5,0,2.8,0.3,4,0.8
		c1.2,0.5,2.3,1.3,3.1,2.4v-2.7h3.7v22.2C519,232.9,518.8,234.2,518.5,235.3z M515.3,216.8c0-0.7-0.2-1.4-0.6-2
		c-0.4-0.6-0.9-1.2-1.5-1.6c-0.6-0.4-1.3-0.8-2.1-1c-0.8-0.3-1.5-0.4-2.2-0.4c-1.5,0-2.7,0.3-3.7,0.8c-1,0.5-1.8,1.2-2.4,2
		s-1.1,1.8-1.3,2.9s-0.4,2.2-0.4,3.3c0,1.2,0.2,2.3,0.5,3.3c0.3,1,0.8,1.9,1.4,2.7c0.6,0.8,1.4,1.3,2.3,1.8c0.9,0.4,2.1,0.6,3.3,0.6
		c0.9,0,1.7-0.1,2.5-0.4c0.8-0.3,1.5-0.6,2.2-1.1c0.6-0.5,1.2-1.1,1.5-1.8s0.6-1.5,0.6-2.4V216.8z"/>
	<path d="M538.9,231.5v-13.4c0-0.9-0.1-1.7-0.3-2.5c-0.2-0.8-0.5-1.4-1-2c-0.4-0.5-1-1-1.7-1.3c-0.7-0.3-1.5-0.5-2.4-0.5
		c-1.1,0-2,0.2-2.8,0.6c-0.8,0.4-1.4,0.9-1.9,1.6c-0.5,0.7-0.9,1.5-1.2,2.4c-0.3,0.9-0.4,1.8-0.4,2.8v12.2h-3.7v-22.1h3.7l0,4.3
		c0.7-1.7,1.6-2.9,3-3.7s2.9-1.2,4.7-1.2c2.4,0,4.3,0.7,5.7,2.1c1.4,1.4,2.1,3.3,2.1,5.7v14.9H538.9z"/>
</g>
<g>
	<rect x="137.5" y="0.5" class="st1" width="129.5" height="129.5"/>
	<g>
		<g>
			<path class="st2" d="M163.3,66.5c0-5,0.9-9.6,2.7-14c1.8-4.4,4.4-8.2,7.8-11.5c3.4-3.3,7.6-5.9,12.6-7.8c5-1.9,10.7-2.9,17.1-2.9
				s12.1,1,17.1,2.9s9.2,4.5,12.7,7.8c3.4,3.3,6.1,7.1,7.9,11.5c1.8,4.4,2.7,9.1,2.7,14c0,4.9-0.9,9.6-2.7,13.9
				c-1.8,4.4-4.4,8.2-7.8,11.5c-3.4,3.3-7.7,5.9-12.7,7.7c-5,1.9-10.7,2.8-17.1,2.8c-6.4,0-12.1-0.9-17.1-2.8
				c-5-1.9-9.2-4.5-12.7-7.7c-3.4-3.3-6.1-7.1-7.8-11.5C164.2,76.1,163.3,71.5,163.3,66.5z"/>
		</g>
	</g>
	<circle class="st1" cx="212.7" cy="56.7" r="14.3"/>
</g>
<g>
	<rect x="275.5" y="69.4" class="st1" width="129.5" height="129.5"/>
	<g>
		<g>
			<path class="st2" d="M300.4,136.4c0-5,0.9-9.6,2.7-14c1.8-4.4,4.4-8.2,7.8-11.5c3.4-3.3,7.6-5.9,12.6-7.8
				c5-1.9,10.7-2.9,17.1-2.9c6.4,0,12.1,1,17.1,2.9c5,1.9,9.2,4.5,12.7,7.8c3.4,3.3,6.1,7.1,7.9,11.5c1.8,4.4,2.7,9.1,2.7,14
				c0,4.9-0.9,9.6-2.7,13.9c-1.8,4.4-4.4,8.2-7.8,11.5c-3.4,3.3-7.7,5.9-12.7,7.7c-5,1.9-10.7,2.8-17.1,2.8s-12.1-0.9-17.1-2.8
				c-5-1.9-9.2-4.5-12.7-7.7c-3.4-3.3-6.1-7.1-7.8-11.5S300.4,141.3,300.4,136.4z"/>
		</g>
	</g>
	<circle class="st1" cx="329.3" cy="148.6" r="14.3"/>
</g>
<g>
	<rect y="36.5" class="st1" width="128.5" height="128.5"/>
	<g>
		<g class="st0">
			<path class="st2" d="M17,70l35.3-17.5c3.2-1.6,6.5-2.5,9.9-2.9c3.4-0.4,6.6-0.2,9.7,0.5c3.1,0.7,5.8,2,8.4,3.8
				c2.5,1.8,4.5,4.2,5.9,7c1.9,3.9,3,7.7,3.1,11.4s-1,7.3-3.3,10.8c5.7-0.7,10.4,0.2,14.1,2.7c3.7,2.5,6.8,6.1,9.1,10.9
				c1.5,3.1,2.3,6.4,2.4,9.9c0.1,3.5-0.5,7-1.7,10.4c-1.2,3.4-3,6.5-5.4,9.4c-2.4,2.8-5.3,5.1-8.7,6.8l-38.1,18.8L17,70z M48.8,95.1
				l17.5-8.7c1.3-0.7,2.5-1.6,3.4-2.9c0.9-1.2,1.6-2.6,2-4.1c0.4-1.5,0.5-3,0.4-4.7c-0.1-1.6-0.5-3.1-1.2-4.5
				c-0.6-1.2-1.3-2.2-2.3-3.2c-1-1-2.1-1.7-3.4-2.2c-1.3-0.5-2.7-0.7-4.3-0.6c-1.6,0.1-3.2,0.6-5,1.4l-17.5,8.7L48.8,95.1z
				 M67.2,132.5l18.7-9.2c1.6-0.8,3-1.9,4.3-3.2c1.3-1.3,2.2-2.9,2.8-4.5c0.6-1.7,0.9-3.4,0.9-5.3c0-1.9-0.5-3.7-1.5-5.7
				c-1.8-3.7-4.4-6.3-7.8-7.8c-3.4-1.5-7.2-1.3-11.2,0.7l-18.8,9.3L67.2,132.5z"/>
		</g>
	</g>
</g>
<g>
	<rect x="414" y="36.5" class="st1" width="128.5" height="128.5"/>
	<g>
		<g class="st0">
			<path class="st2" d="M476,55.7l-4.6,63.9c6.7-8.5,13.4-16.9,20.1-25.2c6.7-8.3,13.4-16.6,20-24.9l18.4,7.1l-29.8,76.9l-14.7-5.7
				l18.7-48.6l-34.4,42.5l-12.8-4.9l2.9-54.4l-18.7,48.3l-14.5-5.6l29.8-76.9L476,55.7z"/>
		</g>
	</g>
</g>
</svg>
